<?xml version="1.0" encoding="utf-8" standalone="no"?>
<!DOCTYPE svg PUBLIC "-//W3C//DTD SVG 1.1//EN"
  "http://www.w3.org/Graphics/SVG/1.1/DTD/svg11.dtd">
<!-- Created with matplotlib (http://matplotlib.org/) -->
<svg height="345.6pt" version="1.1" viewBox="0 0 460.8 345.6" width="460.8pt" xmlns="http://www.w3.org/2000/svg" xmlns:xlink="http://www.w3.org/1999/xlink">
 <defs>
  <style type="text/css">
*{stroke-linecap:butt;stroke-linejoin:round;}
  </style>
 </defs>
 <g id="figure_1">
  <g id="patch_1">
   <path d="M 0 345.6 
L 460.8 345.6 
L 460.8 0 
L 0 0 
z
" style="fill:#ffffff;"/>
  </g>
  <g id="axes_1">
   <g id="patch_2">
    <path d="M 57.6 307.584 
L 414.72 307.584 
L 414.72 41.472 
L 57.6 41.472 
z
" style="fill:#ffffff;"/>
   </g>
   <g id="PolyCollection_1">
    <path clip-path="url(#p0d0604905f)" d="M 73.832727 280.095906 
L 73.832727 280.43043 
L 74.914909 280.519134 
L 75.997091 280.607838 
L 77.079273 280.696542 
L 78.161455 280.705202 
L 79.243636 280.713862 
L 80.325818 280.722523 
L 81.408 280.731183 
L 82.490182 280.819887 
L 83.572364 280.828547 
L 84.654545 280.837207 
L 85.736727 280.925911 
L 86.818909 280.925911 
L 87.901091 280.925911 
L 88.983273 280.925911 
L 90.065455 280.925911 
L 91.147636 280.934572 
L 92.229818 280.934572 
L 93.312 280.934572 
L 94.394182 280.934572 
L 95.476364 280.9728 
L 96.558545 280.9728 
L 97.640727 280.9728 
L 98.722909 280.9728 
L 99.805091 280.9728 
L 100.887273 280.9728 
L 101.969455 280.9728 
L 103.051636 280.9728 
L 104.133818 280.9728 
L 105.216 280.9728 
L 106.298182 280.9728 
L 107.380364 280.9728 
L 108.462545 280.9728 
L 109.544727 280.9728 
L 110.626909 280.9728 
L 111.709091 280.9728 
L 112.791273 280.9728 
L 113.873455 280.9728 
L 114.955636 280.9728 
L 116.037818 280.9728 
L 117.12 280.9728 
L 118.202182 280.9728 
L 119.284364 280.9728 
L 120.366545 280.9728 
L 121.448727 280.9728 
L 122.530909 280.9728 
L 123.613091 280.9728 
L 124.695273 280.9728 
L 125.777455 280.9728 
L 126.859636 280.9728 
L 127.941818 280.9728 
L 129.024 280.9728 
L 130.106182 280.9728 
L 131.188364 280.9728 
L 132.270545 280.9728 
L 133.352727 280.9728 
L 134.434909 280.9728 
L 135.517091 280.9728 
L 136.599273 280.9728 
L 137.681455 280.9728 
L 138.763636 280.9728 
L 139.845818 280.9728 
L 140.928 280.9728 
L 142.010182 280.9728 
L 143.092364 280.9728 
L 144.174545 280.9728 
L 145.256727 280.9728 
L 146.338909 280.9728 
L 147.421091 280.9728 
L 148.503273 280.9728 
L 149.585455 280.9728 
L 150.667636 280.9728 
L 151.749818 280.9728 
L 152.832 280.9728 
L 153.914182 280.9728 
L 154.996364 280.9728 
L 156.078545 280.9728 
L 157.160727 280.9728 
L 158.242909 280.9728 
L 159.325091 280.9728 
L 160.407273 280.9728 
L 161.489455 280.9728 
L 162.571636 280.9728 
L 163.653818 276.182784 
L 164.736 275.74111 
L 165.818182 275.74111 
L 166.900364 275.74111 
L 167.982545 275.74111 
L 169.064727 273.676784 
L 170.146909 273.676784 
L 171.229091 273.676784 
L 172.311273 273.676784 
L 173.393455 273.676784 
L 174.475636 273.676784 
L 175.557818 273.676784 
L 176.64 273.676784 
L 177.722182 269.046855 
L 178.804364 269.046855 
L 179.886545 269.046855 
L 180.968727 264.674379 
L 182.050909 260.921344 
L 183.133091 259.2393 
L 184.215273 259.161358 
L 185.297455 259.161358 
L 186.379636 259.161358 
L 187.461818 259.152698 
L 188.544 259.152698 
L 189.626182 259.100736 
L 190.708364 258.880027 
L 191.790545 258.459516 
L 192.872727 258.459516 
L 193.954909 257.75173 
L 195.037091 257.75173 
L 196.119273 261.593829 
L 197.201455 262.035503 
L 198.283636 262.035503 
L 199.365818 261.806133 
L 200.448 261.806133 
L 201.530182 263.87046 
L 202.612364 263.712474 
L 203.694545 263.712474 
L 204.776727 263.483104 
L 205.858909 262.986137 
L 206.941091 262.986137 
L 208.023273 261.523571 
L 209.105455 261.523571 
L 210.187636 265.580076 
L 211.269818 258.916875 
L 212.352 251.161398 
L 213.434182 251.889942 
L 214.516364 255.383169 
L 215.598545 250.918656 
L 216.680727 247.44137 
L 217.762909 246.756233 
L 218.845091 246.756233 
L 219.927273 241.24111 
L 221.009455 241.24111 
L 222.091636 231.902695 
L 223.173818 222.517392 
L 224.256 214.138886 
L 225.338182 204.781665 
L 226.420364 197.527614 
L 227.502545 188.137237 
L 228.584727 179.618321 
L 229.666909 170.26976 
L 230.749091 161.427442 
L 231.831273 153.472164 
L 232.913455 153.472164 
L 233.995636 143.853904 
L 235.077818 135.232295 
L 236.16 131.292067 
L 237.242182 127.622154 
L 238.324364 119.814716 
L 239.406545 117.581897 
L 240.488727 109.501172 
L 241.570909 104.223825 
L 242.653091 102.539935 
L 243.735273 99.419715 
L 244.817455 107.175191 
L 245.899636 106.463968 
L 246.981818 105.624687 
L 248.064 109.373264 
L 249.146182 103.419844 
L 250.228364 100.292811 
L 251.310545 97.936646 
L 252.392727 99.225646 
L 253.474909 95.081053 
L 254.557091 101.619783 
L 255.639273 110.792783 
L 256.721455 119.591799 
L 257.803636 128.481366 
L 258.885818 136.053491 
L 259.968 144.984874 
L 261.050182 154.079315 
L 262.132364 162.934241 
L 263.214545 171.308905 
L 264.296727 179.051878 
L 265.378909 175.159664 
L 266.461091 184.353571 
L 267.543273 192.752114 
L 268.625455 196.692342 
L 269.707636 200.591626 
L 270.789818 208.896031 
L 271.872 211.12885 
L 272.954182 220.67214 
L 274.036364 225.836903 
L 275.118545 228.094218 
L 276.200727 237.877638 
L 277.282909 237.877638 
L 278.365091 242.232795 
L 279.447273 243.331884 
L 279.447273 218.200788 
L 279.447273 218.200788 
L 278.365091 216.934437 
L 277.282909 212.537466 
L 276.200727 212.537466 
L 275.118545 202.628598 
L 274.036364 200.036761 
L 272.954182 191.777652 
L 271.872 181.98347 
L 270.789818 179.248865 
L 269.707636 170.10815 
L 268.625455 161.94369 
L 267.543273 154.825486 
L 266.461091 147.848669 
L 265.378909 140.661904 
L 264.296727 144.930458 
L 263.214545 138.776471 
L 262.132364 132.367135 
L 261.050182 125.728429 
L 259.968 118.26479 
L 258.885818 111.465997 
L 257.803636 105.02289 
L 256.721455 98.182281 
L 255.639273 89.299633 
L 254.557091 82.091961 
L 253.474909 76.389539 
L 252.392727 80.701394 
L 251.310545 77.61433 
L 250.228364 80.639541 
L 249.146182 84.017468 
L 248.064 86.16568 
L 246.981818 82.877073 
L 245.899636 82.629152 
L 244.817455 79.493353 
L 243.735273 71.696061 
L 242.653091 72.892769 
L 241.570909 74.283951 
L 240.488727 83.199244 
L 239.406545 91.321783 
L 238.324364 94.056388 
L 237.242182 102.156534 
L 236.16 109.840733 
L 235.077818 116.958937 
L 233.995636 125.664176 
L 232.913455 135.324252 
L 231.831273 135.324252 
L 230.749091 143.572238 
L 229.666909 152.707264 
L 228.584727 162.223087 
L 227.502545 168.902123 
L 226.420364 178.37613 
L 225.338182 184.250271 
L 224.256 193.81657 
L 223.173818 201.818736 
L 222.091636 211.120409 
L 221.009455 220.291562 
L 219.927273 220.291562 
L 218.845091 228.022903 
L 217.762909 228.022903 
L 216.680727 228.875302 
L 215.598545 235.865088 
L 214.516364 238.615167 
L 213.434182 235.95825 
L 212.352 238.993098 
L 211.269818 246.790389 
L 210.187636 255.502548 
L 209.105455 251.989645 
L 208.023273 251.989645 
L 206.941091 253.661287 
L 205.858909 253.661287 
L 204.776727 254.701856 
L 203.694545 255.182118 
L 202.612364 255.182118 
L 201.530182 255.674628 
L 200.448 251.352267 
L 199.365818 251.352267 
L 198.283636 251.832529 
L 197.201455 251.832529 
L 196.119273 249.258267 
L 195.037091 247.42331 
L 193.954909 247.42331 
L 192.872727 250.263684 
L 191.790545 250.263684 
L 190.708364 251.144165 
L 189.626182 251.573952 
L 188.544 251.876806 
L 187.461818 251.876806 
L 186.379636 251.927282 
L 185.297455 251.927282 
L 184.215273 251.927282 
L 183.133091 252.381564 
L 182.050909 255.903488 
L 180.968727 260.074677 
L 179.886545 264.572601 
L 178.804364 264.572601 
L 177.722182 264.572601 
L 176.64 269.28616 
L 175.557818 269.28616 
L 174.475636 269.28616 
L 173.393455 269.28616 
L 172.311273 269.28616 
L 171.229091 269.28616 
L 170.146909 269.28616 
L 169.064727 269.28616 
L 167.982545 273.608522 
L 166.900364 273.608522 
L 165.818182 273.608522 
L 164.736 273.608522 
L 163.653818 276.182784 
L 162.571636 280.9728 
L 161.489455 280.9728 
L 160.407273 280.9728 
L 159.325091 280.9728 
L 158.242909 280.9728 
L 157.160727 280.9728 
L 156.078545 280.9728 
L 154.996364 280.9728 
L 153.914182 280.9728 
L 152.832 280.9728 
L 151.749818 280.9728 
L 150.667636 280.9728 
L 149.585455 280.9728 
L 148.503273 280.9728 
L 147.421091 280.9728 
L 146.338909 280.9728 
L 145.256727 280.9728 
L 144.174545 280.9728 
L 143.092364 280.9728 
L 142.010182 280.9728 
L 140.928 280.9728 
L 139.845818 280.9728 
L 138.763636 280.9728 
L 137.681455 280.9728 
L 136.599273 280.9728 
L 135.517091 280.9728 
L 134.434909 280.9728 
L 133.352727 280.9728 
L 132.270545 280.9728 
L 131.188364 280.9728 
L 130.106182 280.9728 
L 129.024 280.9728 
L 127.941818 280.9728 
L 126.859636 280.9728 
L 125.777455 280.9728 
L 124.695273 280.9728 
L 123.613091 280.9728 
L 122.530909 280.9728 
L 121.448727 280.9728 
L 120.366545 280.9728 
L 119.284364 280.9728 
L 118.202182 280.9728 
L 117.12 280.9728 
L 116.037818 280.9728 
L 114.955636 280.9728 
L 113.873455 280.9728 
L 112.791273 280.9728 
L 111.709091 280.9728 
L 110.626909 280.9728 
L 109.544727 280.9728 
L 108.462545 280.9728 
L 107.380364 280.9728 
L 106.298182 280.9728 
L 105.216 280.9728 
L 104.133818 280.9728 
L 103.051636 280.9728 
L 101.969455 280.9728 
L 100.887273 280.9728 
L 99.805091 280.9728 
L 98.722909 280.9728 
L 97.640727 280.9728 
L 96.558545 280.9728 
L 95.476364 280.9728 
L 94.394182 280.892756 
L 93.312 280.892756 
L 92.229818 280.892756 
L 91.147636 280.892756 
L 90.065455 280.842281 
L 88.983273 280.842281 
L 87.901091 280.842281 
L 86.818909 280.842281 
L 85.736727 280.842281 
L 84.654545 280.753577 
L 83.572364 280.703101 
L 82.490182 280.652625 
L 81.408 280.563921 
L 80.325818 280.513445 
L 79.243636 280.46297 
L 78.161455 280.412494 
L 77.079273 280.362018 
L 75.997091 280.273314 
L 74.914909 280.18461 
L 73.832727 280.095906 
z
" style="fill:#1f77b4;fill-opacity:0.1;"/>
   </g>
   <g id="matplotlib.axis_1">
    <g id="xtick_1">
     <g id="line2d_1">
      <defs>
       <path d="M 0 0 
L 0 3.5 
" id="mf78a0b93c0" style="stroke:#000000;stroke-width:0.8;"/>
      </defs>
      <g>
       <use style="stroke:#000000;stroke-width:0.8;" x="73.832727" xlink:href="#mf78a0b93c0" y="307.584"/>
      </g>
     </g>
     <g id="text_1">
      <!-- 0 -->
      <defs>
       <path d="M 31.78125 66.40625 
Q 24.171875 66.40625 20.328125 58.90625 
Q 16.5 51.421875 16.5 36.375 
Q 16.5 21.390625 20.328125 13.890625 
Q 24.171875 6.390625 31.78125 6.390625 
Q 39.453125 6.390625 43.28125 13.890625 
Q 47.125 21.390625 47.125 36.375 
Q 47.125 51.421875 43.28125 58.90625 
Q 39.453125 66.40625 31.78125 66.40625 
z
M 31.78125 74.21875 
Q 44.046875 74.21875 50.515625 64.515625 
Q 56.984375 54.828125 56.984375 36.375 
Q 56.984375 17.96875 50.515625 8.265625 
Q 44.046875 -1.421875 31.78125 -1.421875 
Q 19.53125 -1.421875 13.0625 8.265625 
Q 6.59375 17.96875 6.59375 36.375 
Q 6.59375 54.828125 13.0625 64.515625 
Q 19.53125 74.21875 31.78125 74.21875 
z
" id="DejaVuSans-30"/>
      </defs>
      <g transform="translate(70.651477 322.182437)scale(0.1 -0.1)">
       <use xlink:href="#DejaVuSans-30"/>
      </g>
     </g>
    </g>
    <g id="xtick_2">
     <g id="line2d_2">
      <g>
       <use style="stroke:#000000;stroke-width:0.8;" x="127.941818" xlink:href="#mf78a0b93c0" y="307.584"/>
      </g>
     </g>
     <g id="text_2">
      <!-- 50 -->
      <defs>
       <path d="M 10.796875 72.90625 
L 49.515625 72.90625 
L 49.515625 64.59375 
L 19.828125 64.59375 
L 19.828125 46.734375 
Q 21.96875 47.46875 24.109375 47.828125 
Q 26.265625 48.1875 28.421875 48.1875 
Q 40.625 48.1875 47.75 41.5 
Q 54.890625 34.8125 54.890625 23.390625 
Q 54.890625 11.625 47.5625 5.09375 
Q 40.234375 -1.421875 26.90625 -1.421875 
Q 22.3125 -1.421875 17.546875 -0.640625 
Q 12.796875 0.140625 7.71875 1.703125 
L 7.71875 11.625 
Q 12.109375 9.234375 16.796875 8.0625 
Q 21.484375 6.890625 26.703125 6.890625 
Q 35.15625 6.890625 40.078125 11.328125 
Q 45.015625 15.765625 45.015625 23.390625 
Q 45.015625 31 40.078125 35.4375 
Q 35.15625 39.890625 26.703125 39.890625 
Q 22.75 39.890625 18.8125 39.015625 
Q 14.890625 38.140625 10.796875 36.28125 
z
" id="DejaVuSans-35"/>
      </defs>
      <g transform="translate(121.579318 322.182437)scale(0.1 -0.1)">
       <use xlink:href="#DejaVuSans-35"/>
       <use x="63.623047" xlink:href="#DejaVuSans-30"/>
      </g>
     </g>
    </g>
    <g id="xtick_3">
     <g id="line2d_3">
      <g>
       <use style="stroke:#000000;stroke-width:0.8;" x="182.050909" xlink:href="#mf78a0b93c0" y="307.584"/>
      </g>
     </g>
     <g id="text_3">
      <!-- 100 -->
      <defs>
       <path d="M 12.40625 8.296875 
L 28.515625 8.296875 
L 28.515625 63.921875 
L 10.984375 60.40625 
L 10.984375 69.390625 
L 28.421875 72.90625 
L 38.28125 72.90625 
L 38.28125 8.296875 
L 54.390625 8.296875 
L 54.390625 0 
L 12.40625 0 
z
" id="DejaVuSans-31"/>
      </defs>
      <g transform="translate(172.507159 322.182437)scale(0.1 -0.1)">
       <use xlink:href="#DejaVuSans-31"/>
       <use x="63.623047" xlink:href="#DejaVuSans-30"/>
       <use x="127.246094" xlink:href="#DejaVuSans-30"/>
      </g>
     </g>
    </g>
    <g id="xtick_4">
     <g id="line2d_4">
      <g>
       <use style="stroke:#000000;stroke-width:0.8;" x="236.16" xlink:href="#mf78a0b93c0" y="307.584"/>
      </g>
     </g>
     <g id="text_4">
      <!-- 150 -->
      <g transform="translate(226.61625 322.182437)scale(0.1 -0.1)">
       <use xlink:href="#DejaVuSans-31"/>
       <use x="63.623047" xlink:href="#DejaVuSans-35"/>
       <use x="127.246094" xlink:href="#DejaVuSans-30"/>
      </g>
     </g>
    </g>
    <g id="xtick_5">
     <g id="line2d_5">
      <g>
       <use style="stroke:#000000;stroke-width:0.8;" x="290.269091" xlink:href="#mf78a0b93c0" y="307.584"/>
      </g>
     </g>
     <g id="text_5">
      <!-- 200 -->
      <defs>
       <path d="M 19.1875 8.296875 
L 53.609375 8.296875 
L 53.609375 0 
L 7.328125 0 
L 7.328125 8.296875 
Q 12.9375 14.109375 22.625 23.890625 
Q 32.328125 33.6875 34.8125 36.53125 
Q 39.546875 41.84375 41.421875 45.53125 
Q 43.3125 49.21875 43.3125 52.78125 
Q 43.3125 58.59375 39.234375 62.25 
Q 35.15625 65.921875 28.609375 65.921875 
Q 23.96875 65.921875 18.8125 64.3125 
Q 13.671875 62.703125 7.8125 59.421875 
L 7.8125 69.390625 
Q 13.765625 71.78125 18.9375 73 
Q 24.125 74.21875 28.421875 74.21875 
Q 39.75 74.21875 46.484375 68.546875 
Q 53.21875 62.890625 53.21875 53.421875 
Q 53.21875 48.921875 51.53125 44.890625 
Q 49.859375 40.875 45.40625 35.40625 
Q 44.1875 33.984375 37.640625 27.21875 
Q 31.109375 20.453125 19.1875 8.296875 
z
" id="DejaVuSans-32"/>
      </defs>
      <g transform="translate(280.725341 322.182437)scale(0.1 -0.1)">
       <use xlink:href="#DejaVuSans-32"/>
       <use x="63.623047" xlink:href="#DejaVuSans-30"/>
       <use x="127.246094" xlink:href="#DejaVuSans-30"/>
      </g>
     </g>
    </g>
    <g id="xtick_6">
     <g id="line2d_6">
      <g>
       <use style="stroke:#000000;stroke-width:0.8;" x="344.378182" xlink:href="#mf78a0b93c0" y="307.584"/>
      </g>
     </g>
     <g id="text_6">
      <!-- 250 -->
      <g transform="translate(334.834432 322.182437)scale(0.1 -0.1)">
       <use xlink:href="#DejaVuSans-32"/>
       <use x="63.623047" xlink:href="#DejaVuSans-35"/>
       <use x="127.246094" xlink:href="#DejaVuSans-30"/>
      </g>
     </g>
    </g>
    <g id="xtick_7">
     <g id="line2d_7">
      <g>
       <use style="stroke:#000000;stroke-width:0.8;" x="398.487273" xlink:href="#mf78a0b93c0" y="307.584"/>
      </g>
     </g>
     <g id="text_7">
      <!-- 300 -->
      <defs>
       <path d="M 40.578125 39.3125 
Q 47.65625 37.796875 51.625 33 
Q 55.609375 28.21875 55.609375 21.1875 
Q 55.609375 10.40625 48.1875 4.484375 
Q 40.765625 -1.421875 27.09375 -1.421875 
Q 22.515625 -1.421875 17.65625 -0.515625 
Q 12.796875 0.390625 7.625 2.203125 
L 7.625 11.71875 
Q 11.71875 9.328125 16.59375 8.109375 
Q 21.484375 6.890625 26.8125 6.890625 
Q 36.078125 6.890625 40.9375 10.546875 
Q 45.796875 14.203125 45.796875 21.1875 
Q 45.796875 27.640625 41.28125 31.265625 
Q 36.765625 34.90625 28.71875 34.90625 
L 20.21875 34.90625 
L 20.21875 43.015625 
L 29.109375 43.015625 
Q 36.375 43.015625 40.234375 45.921875 
Q 44.09375 48.828125 44.09375 54.296875 
Q 44.09375 59.90625 40.109375 62.90625 
Q 36.140625 65.921875 28.71875 65.921875 
Q 24.65625 65.921875 20.015625 65.03125 
Q 15.375 64.15625 9.8125 62.3125 
L 9.8125 71.09375 
Q 15.4375 72.65625 20.34375 73.4375 
Q 25.25 74.21875 29.59375 74.21875 
Q 40.828125 74.21875 47.359375 69.109375 
Q 53.90625 64.015625 53.90625 55.328125 
Q 53.90625 49.265625 50.4375 45.09375 
Q 46.96875 40.921875 40.578125 39.3125 
z
" id="DejaVuSans-33"/>
      </defs>
      <g transform="translate(388.943523 322.182437)scale(0.1 -0.1)">
       <use xlink:href="#DejaVuSans-33"/>
       <use x="63.623047" xlink:href="#DejaVuSans-30"/>
       <use x="127.246094" xlink:href="#DejaVuSans-30"/>
      </g>
     </g>
    </g>
    <g id="text_8">
     <!-- Episode during training -->
     <defs>
      <path d="M 9.8125 72.90625 
L 55.90625 72.90625 
L 55.90625 64.59375 
L 19.671875 64.59375 
L 19.671875 43.015625 
L 54.390625 43.015625 
L 54.390625 34.71875 
L 19.671875 34.71875 
L 19.671875 8.296875 
L 56.78125 8.296875 
L 56.78125 0 
L 9.8125 0 
z
" id="DejaVuSans-45"/>
      <path d="M 18.109375 8.203125 
L 18.109375 -20.796875 
L 9.078125 -20.796875 
L 9.078125 54.6875 
L 18.109375 54.6875 
L 18.109375 46.390625 
Q 20.953125 51.265625 25.265625 53.625 
Q 29.59375 56 35.59375 56 
Q 45.5625 56 51.78125 48.09375 
Q 58.015625 40.1875 58.015625 27.296875 
Q 58.015625 14.40625 51.78125 6.484375 
Q 45.5625 -1.421875 35.59375 -1.421875 
Q 29.59375 -1.421875 25.265625 0.953125 
Q 20.953125 3.328125 18.109375 8.203125 
z
M 48.6875 27.296875 
Q 48.6875 37.203125 44.609375 42.84375 
Q 40.53125 48.484375 33.40625 48.484375 
Q 26.265625 48.484375 22.1875 42.84375 
Q 18.109375 37.203125 18.109375 27.296875 
Q 18.109375 17.390625 22.1875 11.75 
Q 26.265625 6.109375 33.40625 6.109375 
Q 40.53125 6.109375 44.609375 11.75 
Q 48.6875 17.390625 48.6875 27.296875 
z
" id="DejaVuSans-70"/>
      <path d="M 9.421875 54.6875 
L 18.40625 54.6875 
L 18.40625 0 
L 9.421875 0 
z
M 9.421875 75.984375 
L 18.40625 75.984375 
L 18.40625 64.59375 
L 9.421875 64.59375 
z
" id="DejaVuSans-69"/>
      <path d="M 44.28125 53.078125 
L 44.28125 44.578125 
Q 40.484375 46.53125 36.375 47.5 
Q 32.28125 48.484375 27.875 48.484375 
Q 21.1875 48.484375 17.84375 46.4375 
Q 14.5 44.390625 14.5 40.28125 
Q 14.5 37.15625 16.890625 35.375 
Q 19.28125 33.59375 26.515625 31.984375 
L 29.59375 31.296875 
Q 39.15625 29.25 43.1875 25.515625 
Q 47.21875 21.78125 47.21875 15.09375 
Q 47.21875 7.46875 41.1875 3.015625 
Q 35.15625 -1.421875 24.609375 -1.421875 
Q 20.21875 -1.421875 15.453125 -0.5625 
Q 10.6875 0.296875 5.421875 2 
L 5.421875 11.28125 
Q 10.40625 8.6875 15.234375 7.390625 
Q 20.0625 6.109375 24.8125 6.109375 
Q 31.15625 6.109375 34.5625 8.28125 
Q 37.984375 10.453125 37.984375 14.40625 
Q 37.984375 18.0625 35.515625 20.015625 
Q 33.0625 21.96875 24.703125 23.78125 
L 21.578125 24.515625 
Q 13.234375 26.265625 9.515625 29.90625 
Q 5.8125 33.546875 5.8125 39.890625 
Q 5.8125 47.609375 11.28125 51.796875 
Q 16.75 56 26.8125 56 
Q 31.78125 56 36.171875 55.265625 
Q 40.578125 54.546875 44.28125 53.078125 
z
" id="DejaVuSans-73"/>
      <path d="M 30.609375 48.390625 
Q 23.390625 48.390625 19.1875 42.75 
Q 14.984375 37.109375 14.984375 27.296875 
Q 14.984375 17.484375 19.15625 11.84375 
Q 23.34375 6.203125 30.609375 6.203125 
Q 37.796875 6.203125 41.984375 11.859375 
Q 46.1875 17.53125 46.1875 27.296875 
Q 46.1875 37.015625 41.984375 42.703125 
Q 37.796875 48.390625 30.609375 48.390625 
z
M 30.609375 56 
Q 42.328125 56 49.015625 48.375 
Q 55.71875 40.765625 55.71875 27.296875 
Q 55.71875 13.875 49.015625 6.21875 
Q 42.328125 -1.421875 30.609375 -1.421875 
Q 18.84375 -1.421875 12.171875 6.21875 
Q 5.515625 13.875 5.515625 27.296875 
Q 5.515625 40.765625 12.171875 48.375 
Q 18.84375 56 30.609375 56 
z
" id="DejaVuSans-6f"/>
      <path d="M 45.40625 46.390625 
L 45.40625 75.984375 
L 54.390625 75.984375 
L 54.390625 0 
L 45.40625 0 
L 45.40625 8.203125 
Q 42.578125 3.328125 38.25 0.953125 
Q 33.9375 -1.421875 27.875 -1.421875 
Q 17.96875 -1.421875 11.734375 6.484375 
Q 5.515625 14.40625 5.515625 27.296875 
Q 5.515625 40.1875 11.734375 48.09375 
Q 17.96875 56 27.875 56 
Q 33.9375 56 38.25 53.625 
Q 42.578125 51.265625 45.40625 46.390625 
z
M 14.796875 27.296875 
Q 14.796875 17.390625 18.875 11.75 
Q 22.953125 6.109375 30.078125 6.109375 
Q 37.203125 6.109375 41.296875 11.75 
Q 45.40625 17.390625 45.40625 27.296875 
Q 45.40625 37.203125 41.296875 42.84375 
Q 37.203125 48.484375 30.078125 48.484375 
Q 22.953125 48.484375 18.875 42.84375 
Q 14.796875 37.203125 14.796875 27.296875 
z
" id="DejaVuSans-64"/>
      <path d="M 56.203125 29.59375 
L 56.203125 25.203125 
L 14.890625 25.203125 
Q 15.484375 15.921875 20.484375 11.0625 
Q 25.484375 6.203125 34.421875 6.203125 
Q 39.59375 6.203125 44.453125 7.46875 
Q 49.3125 8.734375 54.109375 11.28125 
L 54.109375 2.78125 
Q 49.265625 0.734375 44.1875 -0.34375 
Q 39.109375 -1.421875 33.890625 -1.421875 
Q 20.796875 -1.421875 13.15625 6.1875 
Q 5.515625 13.8125 5.515625 26.8125 
Q 5.515625 40.234375 12.765625 48.109375 
Q 20.015625 56 32.328125 56 
Q 43.359375 56 49.78125 48.890625 
Q 56.203125 41.796875 56.203125 29.59375 
z
M 47.21875 32.234375 
Q 47.125 39.59375 43.09375 43.984375 
Q 39.0625 48.390625 32.421875 48.390625 
Q 24.90625 48.390625 20.390625 44.140625 
Q 15.875 39.890625 15.1875 32.171875 
z
" id="DejaVuSans-65"/>
      <path id="DejaVuSans-20"/>
      <path d="M 8.5 21.578125 
L 8.5 54.6875 
L 17.484375 54.6875 
L 17.484375 21.921875 
Q 17.484375 14.15625 20.5 10.265625 
Q 23.53125 6.390625 29.59375 6.390625 
Q 36.859375 6.390625 41.078125 11.03125 
Q 45.3125 15.671875 45.3125 23.6875 
L 45.3125 54.6875 
L 54.296875 54.6875 
L 54.296875 0 
L 45.3125 0 
L 45.3125 8.40625 
Q 42.046875 3.421875 37.71875 1 
Q 33.40625 -1.421875 27.6875 -1.421875 
Q 18.265625 -1.421875 13.375 4.4375 
Q 8.5 10.296875 8.5 21.578125 
z
M 31.109375 56 
z
" id="DejaVuSans-75"/>
      <path d="M 41.109375 46.296875 
Q 39.59375 47.171875 37.8125 47.578125 
Q 36.03125 48 33.890625 48 
Q 26.265625 48 22.1875 43.046875 
Q 18.109375 38.09375 18.109375 28.8125 
L 18.109375 0 
L 9.078125 0 
L 9.078125 54.6875 
L 18.109375 54.6875 
L 18.109375 46.1875 
Q 20.953125 51.171875 25.484375 53.578125 
Q 30.03125 56 36.53125 56 
Q 37.453125 56 38.578125 55.875 
Q 39.703125 55.765625 41.0625 55.515625 
z
" id="DejaVuSans-72"/>
      <path d="M 54.890625 33.015625 
L 54.890625 0 
L 45.90625 0 
L 45.90625 32.71875 
Q 45.90625 40.484375 42.875 44.328125 
Q 39.84375 48.1875 33.796875 48.1875 
Q 26.515625 48.1875 22.3125 43.546875 
Q 18.109375 38.921875 18.109375 30.90625 
L 18.109375 0 
L 9.078125 0 
L 9.078125 54.6875 
L 18.109375 54.6875 
L 18.109375 46.1875 
Q 21.34375 51.125 25.703125 53.5625 
Q 30.078125 56 35.796875 56 
Q 45.21875 56 50.046875 50.171875 
Q 54.890625 44.34375 54.890625 33.015625 
z
" id="DejaVuSans-6e"/>
      <path d="M 45.40625 27.984375 
Q 45.40625 37.75 41.375 43.109375 
Q 37.359375 48.484375 30.078125 48.484375 
Q 22.859375 48.484375 18.828125 43.109375 
Q 14.796875 37.75 14.796875 27.984375 
Q 14.796875 18.265625 18.828125 12.890625 
Q 22.859375 7.515625 30.078125 7.515625 
Q 37.359375 7.515625 41.375 12.890625 
Q 45.40625 18.265625 45.40625 27.984375 
z
M 54.390625 6.78125 
Q 54.390625 -7.171875 48.1875 -13.984375 
Q 42 -20.796875 29.203125 -20.796875 
Q 24.46875 -20.796875 20.265625 -20.09375 
Q 16.0625 -19.390625 12.109375 -17.921875 
L 12.109375 -9.1875 
Q 16.0625 -11.328125 19.921875 -12.34375 
Q 23.78125 -13.375 27.78125 -13.375 
Q 36.625 -13.375 41.015625 -8.765625 
Q 45.40625 -4.15625 45.40625 5.171875 
L 45.40625 9.625 
Q 42.625 4.78125 38.28125 2.390625 
Q 33.9375 0 27.875 0 
Q 17.828125 0 11.671875 7.65625 
Q 5.515625 15.328125 5.515625 27.984375 
Q 5.515625 40.671875 11.671875 48.328125 
Q 17.828125 56 27.875 56 
Q 33.9375 56 38.28125 53.609375 
Q 42.625 51.21875 45.40625 46.390625 
L 45.40625 54.6875 
L 54.390625 54.6875 
z
" id="DejaVuSans-67"/>
      <path d="M 18.3125 70.21875 
L 18.3125 54.6875 
L 36.8125 54.6875 
L 36.8125 47.703125 
L 18.3125 47.703125 
L 18.3125 18.015625 
Q 18.3125 11.328125 20.140625 9.421875 
Q 21.96875 7.515625 27.59375 7.515625 
L 36.8125 7.515625 
L 36.8125 0 
L 27.59375 0 
Q 17.1875 0 13.234375 3.875 
Q 9.28125 7.765625 9.28125 18.015625 
L 9.28125 47.703125 
L 2.6875 47.703125 
L 2.6875 54.6875 
L 9.28125 54.6875 
L 9.28125 70.21875 
z
" id="DejaVuSans-74"/>
      <path d="M 34.28125 27.484375 
Q 23.390625 27.484375 19.1875 25 
Q 14.984375 22.515625 14.984375 16.5 
Q 14.984375 11.71875 18.140625 8.90625 
Q 21.296875 6.109375 26.703125 6.109375 
Q 34.1875 6.109375 38.703125 11.40625 
Q 43.21875 16.703125 43.21875 25.484375 
L 43.21875 27.484375 
z
M 52.203125 31.203125 
L 52.203125 0 
L 43.21875 0 
L 43.21875 8.296875 
Q 40.140625 3.328125 35.546875 0.953125 
Q 30.953125 -1.421875 24.3125 -1.421875 
Q 15.921875 -1.421875 10.953125 3.296875 
Q 6 8.015625 6 15.921875 
Q 6 25.140625 12.171875 29.828125 
Q 18.359375 34.515625 30.609375 34.515625 
L 43.21875 34.515625 
L 43.21875 35.40625 
Q 43.21875 41.609375 39.140625 45 
Q 35.0625 48.390625 27.6875 48.390625 
Q 23 48.390625 18.546875 47.265625 
Q 14.109375 46.140625 10.015625 43.890625 
L 10.015625 52.203125 
Q 14.9375 54.109375 19.578125 55.046875 
Q 24.21875 56 28.609375 56 
Q 40.484375 56 46.34375 49.84375 
Q 52.203125 43.703125 52.203125 31.203125 
z
" id="DejaVuSans-61"/>
     </defs>
     <g transform="translate(177.844375 335.860562)scale(0.1 -0.1)">
      <use xlink:href="#DejaVuSans-45"/>
      <use x="63.183594" xlink:href="#DejaVuSans-70"/>
      <use x="126.660156" xlink:href="#DejaVuSans-69"/>
      <use x="154.443359" xlink:href="#DejaVuSans-73"/>
      <use x="206.542969" xlink:href="#DejaVuSans-6f"/>
      <use x="267.724609" xlink:href="#DejaVuSans-64"/>
      <use x="331.201172" xlink:href="#DejaVuSans-65"/>
      <use x="392.724609" xlink:href="#DejaVuSans-20"/>
      <use x="424.511719" xlink:href="#DejaVuSans-64"/>
      <use x="487.988281" xlink:href="#DejaVuSans-75"/>
      <use x="551.367188" xlink:href="#DejaVuSans-72"/>
      <use x="592.480469" xlink:href="#DejaVuSans-69"/>
      <use x="620.263672" xlink:href="#DejaVuSans-6e"/>
      <use x="683.642578" xlink:href="#DejaVuSans-67"/>
      <use x="747.119141" xlink:href="#DejaVuSans-20"/>
      <use x="778.90625" xlink:href="#DejaVuSans-74"/>
      <use x="818.115234" xlink:href="#DejaVuSans-72"/>
      <use x="859.228516" xlink:href="#DejaVuSans-61"/>
      <use x="920.507812" xlink:href="#DejaVuSans-69"/>
      <use x="948.291016" xlink:href="#DejaVuSans-6e"/>
      <use x="1011.669922" xlink:href="#DejaVuSans-69"/>
      <use x="1039.453125" xlink:href="#DejaVuSans-6e"/>
      <use x="1102.832031" xlink:href="#DejaVuSans-67"/>
     </g>
    </g>
   </g>
   <g id="matplotlib.axis_2">
    <g id="ytick_1">
     <g id="line2d_8">
      <defs>
       <path d="M 0 0 
L -3.5 0 
" id="m5a8e1d5b76" style="stroke:#000000;stroke-width:0.8;"/>
      </defs>
      <g>
       <use style="stroke:#000000;stroke-width:0.8;" x="57.6" xlink:href="#m5a8e1d5b76" y="307.584"/>
      </g>
     </g>
     <g id="text_9">
      <!-- −210 -->
      <defs>
       <path d="M 10.59375 35.5 
L 73.1875 35.5 
L 73.1875 27.203125 
L 10.59375 27.203125 
z
" id="DejaVuSans-2212"/>
      </defs>
      <g transform="translate(23.132812 311.383219)scale(0.1 -0.1)">
       <use xlink:href="#DejaVuSans-2212"/>
       <use x="83.789062" xlink:href="#DejaVuSans-32"/>
       <use x="147.412109" xlink:href="#DejaVuSans-31"/>
       <use x="211.035156" xlink:href="#DejaVuSans-30"/>
      </g>
     </g>
    </g>
    <g id="ytick_2">
     <g id="line2d_9">
      <g>
       <use style="stroke:#000000;stroke-width:0.8;" x="57.6" xlink:href="#m5a8e1d5b76" y="280.9728"/>
      </g>
     </g>
     <g id="text_10">
      <!-- −200 -->
      <g transform="translate(23.132812 284.772019)scale(0.1 -0.1)">
       <use xlink:href="#DejaVuSans-2212"/>
       <use x="83.789062" xlink:href="#DejaVuSans-32"/>
       <use x="147.412109" xlink:href="#DejaVuSans-30"/>
       <use x="211.035156" xlink:href="#DejaVuSans-30"/>
      </g>
     </g>
    </g>
    <g id="ytick_3">
     <g id="line2d_10">
      <g>
       <use style="stroke:#000000;stroke-width:0.8;" x="57.6" xlink:href="#m5a8e1d5b76" y="254.3616"/>
      </g>
     </g>
     <g id="text_11">
      <!-- −190 -->
      <defs>
       <path d="M 10.984375 1.515625 
L 10.984375 10.5 
Q 14.703125 8.734375 18.5 7.8125 
Q 22.3125 6.890625 25.984375 6.890625 
Q 35.75 6.890625 40.890625 13.453125 
Q 46.046875 20.015625 46.78125 33.40625 
Q 43.953125 29.203125 39.59375 26.953125 
Q 35.25 24.703125 29.984375 24.703125 
Q 19.046875 24.703125 12.671875 31.3125 
Q 6.296875 37.9375 6.296875 49.421875 
Q 6.296875 60.640625 12.9375 67.421875 
Q 19.578125 74.21875 30.609375 74.21875 
Q 43.265625 74.21875 49.921875 64.515625 
Q 56.59375 54.828125 56.59375 36.375 
Q 56.59375 19.140625 48.40625 8.859375 
Q 40.234375 -1.421875 26.421875 -1.421875 
Q 22.703125 -1.421875 18.890625 -0.6875 
Q 15.09375 0.046875 10.984375 1.515625 
z
M 30.609375 32.421875 
Q 37.25 32.421875 41.125 36.953125 
Q 45.015625 41.5 45.015625 49.421875 
Q 45.015625 57.28125 41.125 61.84375 
Q 37.25 66.40625 30.609375 66.40625 
Q 23.96875 66.40625 20.09375 61.84375 
Q 16.21875 57.28125 16.21875 49.421875 
Q 16.21875 41.5 20.09375 36.953125 
Q 23.96875 32.421875 30.609375 32.421875 
z
" id="DejaVuSans-39"/>
      </defs>
      <g transform="translate(23.132812 258.160819)scale(0.1 -0.1)">
       <use xlink:href="#DejaVuSans-2212"/>
       <use x="83.789062" xlink:href="#DejaVuSans-31"/>
       <use x="147.412109" xlink:href="#DejaVuSans-39"/>
       <use x="211.035156" xlink:href="#DejaVuSans-30"/>
      </g>
     </g>
    </g>
    <g id="ytick_4">
     <g id="line2d_11">
      <g>
       <use style="stroke:#000000;stroke-width:0.8;" x="57.6" xlink:href="#m5a8e1d5b76" y="227.7504"/>
      </g>
     </g>
     <g id="text_12">
      <!-- −180 -->
      <defs>
       <path d="M 31.78125 34.625 
Q 24.75 34.625 20.71875 30.859375 
Q 16.703125 27.09375 16.703125 20.515625 
Q 16.703125 13.921875 20.71875 10.15625 
Q 24.75 6.390625 31.78125 6.390625 
Q 38.8125 6.390625 42.859375 10.171875 
Q 46.921875 13.96875 46.921875 20.515625 
Q 46.921875 27.09375 42.890625 30.859375 
Q 38.875 34.625 31.78125 34.625 
z
M 21.921875 38.8125 
Q 15.578125 40.375 12.03125 44.71875 
Q 8.5 49.078125 8.5 55.328125 
Q 8.5 64.0625 14.71875 69.140625 
Q 20.953125 74.21875 31.78125 74.21875 
Q 42.671875 74.21875 48.875 69.140625 
Q 55.078125 64.0625 55.078125 55.328125 
Q 55.078125 49.078125 51.53125 44.71875 
Q 48 40.375 41.703125 38.8125 
Q 48.828125 37.15625 52.796875 32.3125 
Q 56.78125 27.484375 56.78125 20.515625 
Q 56.78125 9.90625 50.3125 4.234375 
Q 43.84375 -1.421875 31.78125 -1.421875 
Q 19.734375 -1.421875 13.25 4.234375 
Q 6.78125 9.90625 6.78125 20.515625 
Q 6.78125 27.484375 10.78125 32.3125 
Q 14.796875 37.15625 21.921875 38.8125 
z
M 18.3125 54.390625 
Q 18.3125 48.734375 21.84375 45.5625 
Q 25.390625 42.390625 31.78125 42.390625 
Q 38.140625 42.390625 41.71875 45.5625 
Q 45.3125 48.734375 45.3125 54.390625 
Q 45.3125 60.0625 41.71875 63.234375 
Q 38.140625 66.40625 31.78125 66.40625 
Q 25.390625 66.40625 21.84375 63.234375 
Q 18.3125 60.0625 18.3125 54.390625 
z
" id="DejaVuSans-38"/>
      </defs>
      <g transform="translate(23.132812 231.549619)scale(0.1 -0.1)">
       <use xlink:href="#DejaVuSans-2212"/>
       <use x="83.789062" xlink:href="#DejaVuSans-31"/>
       <use x="147.412109" xlink:href="#DejaVuSans-38"/>
       <use x="211.035156" xlink:href="#DejaVuSans-30"/>
      </g>
     </g>
    </g>
    <g id="ytick_5">
     <g id="line2d_12">
      <g>
       <use style="stroke:#000000;stroke-width:0.8;" x="57.6" xlink:href="#m5a8e1d5b76" y="201.1392"/>
      </g>
     </g>
     <g id="text_13">
      <!-- −170 -->
      <defs>
       <path d="M 8.203125 72.90625 
L 55.078125 72.90625 
L 55.078125 68.703125 
L 28.609375 0 
L 18.3125 0 
L 43.21875 64.59375 
L 8.203125 64.59375 
z
" id="DejaVuSans-37"/>
      </defs>
      <g transform="translate(23.132812 204.938419)scale(0.1 -0.1)">
       <use xlink:href="#DejaVuSans-2212"/>
       <use x="83.789062" xlink:href="#DejaVuSans-31"/>
       <use x="147.412109" xlink:href="#DejaVuSans-37"/>
       <use x="211.035156" xlink:href="#DejaVuSans-30"/>
      </g>
     </g>
    </g>
    <g id="ytick_6">
     <g id="line2d_13">
      <g>
       <use style="stroke:#000000;stroke-width:0.8;" x="57.6" xlink:href="#m5a8e1d5b76" y="174.528"/>
      </g>
     </g>
     <g id="text_14">
      <!-- −160 -->
      <defs>
       <path d="M 33.015625 40.375 
Q 26.375 40.375 22.484375 35.828125 
Q 18.609375 31.296875 18.609375 23.390625 
Q 18.609375 15.53125 22.484375 10.953125 
Q 26.375 6.390625 33.015625 6.390625 
Q 39.65625 6.390625 43.53125 10.953125 
Q 47.40625 15.53125 47.40625 23.390625 
Q 47.40625 31.296875 43.53125 35.828125 
Q 39.65625 40.375 33.015625 40.375 
z
M 52.59375 71.296875 
L 52.59375 62.3125 
Q 48.875 64.0625 45.09375 64.984375 
Q 41.3125 65.921875 37.59375 65.921875 
Q 27.828125 65.921875 22.671875 59.328125 
Q 17.53125 52.734375 16.796875 39.40625 
Q 19.671875 43.65625 24.015625 45.921875 
Q 28.375 48.1875 33.59375 48.1875 
Q 44.578125 48.1875 50.953125 41.515625 
Q 57.328125 34.859375 57.328125 23.390625 
Q 57.328125 12.15625 50.6875 5.359375 
Q 44.046875 -1.421875 33.015625 -1.421875 
Q 20.359375 -1.421875 13.671875 8.265625 
Q 6.984375 17.96875 6.984375 36.375 
Q 6.984375 53.65625 15.1875 63.9375 
Q 23.390625 74.21875 37.203125 74.21875 
Q 40.921875 74.21875 44.703125 73.484375 
Q 48.484375 72.75 52.59375 71.296875 
z
" id="DejaVuSans-36"/>
      </defs>
      <g transform="translate(23.132812 178.327219)scale(0.1 -0.1)">
       <use xlink:href="#DejaVuSans-2212"/>
       <use x="83.789062" xlink:href="#DejaVuSans-31"/>
       <use x="147.412109" xlink:href="#DejaVuSans-36"/>
       <use x="211.035156" xlink:href="#DejaVuSans-30"/>
      </g>
     </g>
    </g>
    <g id="ytick_7">
     <g id="line2d_14">
      <g>
       <use style="stroke:#000000;stroke-width:0.8;" x="57.6" xlink:href="#m5a8e1d5b76" y="147.9168"/>
      </g>
     </g>
     <g id="text_15">
      <!-- −150 -->
      <g transform="translate(23.132812 151.716019)scale(0.1 -0.1)">
       <use xlink:href="#DejaVuSans-2212"/>
       <use x="83.789062" xlink:href="#DejaVuSans-31"/>
       <use x="147.412109" xlink:href="#DejaVuSans-35"/>
       <use x="211.035156" xlink:href="#DejaVuSans-30"/>
      </g>
     </g>
    </g>
    <g id="ytick_8">
     <g id="line2d_15">
      <g>
       <use style="stroke:#000000;stroke-width:0.8;" x="57.6" xlink:href="#m5a8e1d5b76" y="121.3056"/>
      </g>
     </g>
     <g id="text_16">
      <!-- −140 -->
      <defs>
       <path d="M 37.796875 64.3125 
L 12.890625 25.390625 
L 37.796875 25.390625 
z
M 35.203125 72.90625 
L 47.609375 72.90625 
L 47.609375 25.390625 
L 58.015625 25.390625 
L 58.015625 17.1875 
L 47.609375 17.1875 
L 47.609375 0 
L 37.796875 0 
L 37.796875 17.1875 
L 4.890625 17.1875 
L 4.890625 26.703125 
z
" id="DejaVuSans-34"/>
      </defs>
      <g transform="translate(23.132812 125.104819)scale(0.1 -0.1)">
       <use xlink:href="#DejaVuSans-2212"/>
       <use x="83.789062" xlink:href="#DejaVuSans-31"/>
       <use x="147.412109" xlink:href="#DejaVuSans-34"/>
       <use x="211.035156" xlink:href="#DejaVuSans-30"/>
      </g>
     </g>
    </g>
    <g id="ytick_9">
     <g id="line2d_16">
      <g>
       <use style="stroke:#000000;stroke-width:0.8;" x="57.6" xlink:href="#m5a8e1d5b76" y="94.6944"/>
      </g>
     </g>
     <g id="text_17">
      <!-- −130 -->
      <g transform="translate(23.132812 98.493619)scale(0.1 -0.1)">
       <use xlink:href="#DejaVuSans-2212"/>
       <use x="83.789062" xlink:href="#DejaVuSans-31"/>
       <use x="147.412109" xlink:href="#DejaVuSans-33"/>
       <use x="211.035156" xlink:href="#DejaVuSans-30"/>
      </g>
     </g>
    </g>
    <g id="ytick_10">
     <g id="line2d_17">
      <g>
       <use style="stroke:#000000;stroke-width:0.8;" x="57.6" xlink:href="#m5a8e1d5b76" y="68.0832"/>
      </g>
     </g>
     <g id="text_18">
      <!-- −120 -->
      <g transform="translate(23.132812 71.882419)scale(0.1 -0.1)">
       <use xlink:href="#DejaVuSans-2212"/>
       <use x="83.789062" xlink:href="#DejaVuSans-31"/>
       <use x="147.412109" xlink:href="#DejaVuSans-32"/>
       <use x="211.035156" xlink:href="#DejaVuSans-30"/>
      </g>
     </g>
    </g>
    <g id="ytick_11">
     <g id="line2d_18">
      <g>
       <use style="stroke:#000000;stroke-width:0.8;" x="57.6" xlink:href="#m5a8e1d5b76" y="41.472"/>
      </g>
     </g>
     <g id="text_19">
      <!-- −110 -->
      <g transform="translate(23.132812 45.271219)scale(0.1 -0.1)">
       <use xlink:href="#DejaVuSans-2212"/>
       <use x="83.789062" xlink:href="#DejaVuSans-31"/>
       <use x="147.412109" xlink:href="#DejaVuSans-31"/>
       <use x="211.035156" xlink:href="#DejaVuSans-30"/>
      </g>
     </g>
    </g>
    <g id="ytick_12">
     <g id="line2d_19">
      <g>
       <use style="stroke:#000000;stroke-width:0.8;" x="57.6" xlink:href="#m5a8e1d5b76" y="278.31168"/>
      </g>
     </g>
     <g id="text_20">
      <!-- −199 -->
      <g transform="translate(23.132812 282.110899)scale(0.1 -0.1)">
       <use xlink:href="#DejaVuSans-2212"/>
       <use x="83.789062" xlink:href="#DejaVuSans-31"/>
       <use x="147.412109" xlink:href="#DejaVuSans-39"/>
       <use x="211.035156" xlink:href="#DejaVuSans-39"/>
      </g>
     </g>
    </g>
    <g id="text_21">
     <!-- Total Return in episode -->
     <defs>
      <path d="M -0.296875 72.90625 
L 61.375 72.90625 
L 61.375 64.59375 
L 35.5 64.59375 
L 35.5 0 
L 25.59375 0 
L 25.59375 64.59375 
L -0.296875 64.59375 
z
" id="DejaVuSans-54"/>
      <path d="M 9.421875 75.984375 
L 18.40625 75.984375 
L 18.40625 0 
L 9.421875 0 
z
" id="DejaVuSans-6c"/>
      <path d="M 44.390625 34.1875 
Q 47.5625 33.109375 50.5625 29.59375 
Q 53.5625 26.078125 56.59375 19.921875 
L 66.609375 0 
L 56 0 
L 46.6875 18.703125 
Q 43.0625 26.03125 39.671875 28.421875 
Q 36.28125 30.8125 30.421875 30.8125 
L 19.671875 30.8125 
L 19.671875 0 
L 9.8125 0 
L 9.8125 72.90625 
L 32.078125 72.90625 
Q 44.578125 72.90625 50.734375 67.671875 
Q 56.890625 62.453125 56.890625 51.90625 
Q 56.890625 45.015625 53.6875 40.46875 
Q 50.484375 35.9375 44.390625 34.1875 
z
M 19.671875 64.796875 
L 19.671875 38.921875 
L 32.078125 38.921875 
Q 39.203125 38.921875 42.84375 42.21875 
Q 46.484375 45.515625 46.484375 51.90625 
Q 46.484375 58.296875 42.84375 61.546875 
Q 39.203125 64.796875 32.078125 64.796875 
z
" id="DejaVuSans-52"/>
     </defs>
     <g transform="translate(17.053125 232.820969)rotate(-90)scale(0.1 -0.1)">
      <use xlink:href="#DejaVuSans-54"/>
      <use x="60.818359" xlink:href="#DejaVuSans-6f"/>
      <use x="122" xlink:href="#DejaVuSans-74"/>
      <use x="161.208984" xlink:href="#DejaVuSans-61"/>
      <use x="222.488281" xlink:href="#DejaVuSans-6c"/>
      <use x="250.271484" xlink:href="#DejaVuSans-20"/>
      <use x="282.058594" xlink:href="#DejaVuSans-52"/>
      <use x="351.478516" xlink:href="#DejaVuSans-65"/>
      <use x="413.001953" xlink:href="#DejaVuSans-74"/>
      <use x="452.210938" xlink:href="#DejaVuSans-75"/>
      <use x="515.589844" xlink:href="#DejaVuSans-72"/>
      <use x="556.6875" xlink:href="#DejaVuSans-6e"/>
      <use x="620.066406" xlink:href="#DejaVuSans-20"/>
      <use x="651.853516" xlink:href="#DejaVuSans-69"/>
      <use x="679.636719" xlink:href="#DejaVuSans-6e"/>
      <use x="743.015625" xlink:href="#DejaVuSans-20"/>
      <use x="774.802734" xlink:href="#DejaVuSans-65"/>
      <use x="836.326172" xlink:href="#DejaVuSans-70"/>
      <use x="899.802734" xlink:href="#DejaVuSans-69"/>
      <use x="927.585938" xlink:href="#DejaVuSans-73"/>
      <use x="979.685547" xlink:href="#DejaVuSans-6f"/>
      <use x="1040.867188" xlink:href="#DejaVuSans-64"/>
      <use x="1104.34375" xlink:href="#DejaVuSans-65"/>
     </g>
    </g>
   </g>
   <g id="LineCollection_1">
    <path clip-path="url(#p0d0604905f)" d="M 73.832727 278.31168 
L 398.487273 278.31168 
" style="fill:none;stroke:#000000;stroke-dasharray:1.85,0.8;stroke-dashoffset:0;stroke-width:0.5;"/>
   </g>
   <g id="line2d_20">
    <path clip-path="url(#p0d0604905f)" d="M 73.832727 280.263168 
L 78.161455 280.558848 
L 84.654545 280.795392 
L 86.818909 280.884096 
L 162.571636 280.9728 
L 163.653818 276.182784 
L 164.736 274.674816 
L 167.982545 274.674816 
L 169.064727 271.481472 
L 176.64 271.481472 
L 177.722182 266.809728 
L 179.886545 266.809728 
L 180.968727 262.374528 
L 182.050909 258.412416 
L 183.133091 255.810432 
L 184.215273 255.54432 
L 188.544 255.514752 
L 189.626182 255.337344 
L 190.708364 255.012096 
L 191.790545 254.3616 
L 192.872727 254.3616 
L 193.954909 252.58752 
L 195.037091 252.58752 
L 196.119273 255.426048 
L 197.201455 256.934016 
L 198.283636 256.934016 
L 199.365818 256.5792 
L 200.448 256.5792 
L 201.530182 259.772544 
L 202.612364 259.447296 
L 203.694545 259.447296 
L 204.776727 259.09248 
L 205.858909 258.323712 
L 206.941091 258.323712 
L 208.023273 256.756608 
L 209.105455 256.756608 
L 210.187636 260.541312 
L 212.352 245.077248 
L 213.434182 243.924096 
L 214.516364 246.999168 
L 215.598545 243.391872 
L 216.680727 238.158336 
L 217.762909 237.389568 
L 218.845091 237.389568 
L 219.927273 230.766336 
L 221.009455 230.766336 
L 223.173818 212.168064 
L 224.256 203.977728 
L 225.338182 194.515968 
L 226.420364 187.951872 
L 227.502545 178.51968 
L 228.584727 170.920704 
L 230.749091 152.49984 
L 231.831273 144.398208 
L 232.913455 144.398208 
L 235.077818 126.095616 
L 237.242182 114.889344 
L 238.324364 106.935552 
L 239.406545 104.45184 
L 240.488727 96.350208 
L 241.570909 89.253888 
L 242.653091 87.716352 
L 243.735273 85.557888 
L 244.817455 93.334272 
L 245.899636 94.54656 
L 246.981818 94.25088 
L 248.064 97.769472 
L 249.146182 93.718656 
L 250.228364 90.466176 
L 251.310545 87.775488 
L 252.392727 89.96352 
L 253.474909 85.735296 
L 254.557091 91.855872 
L 257.803636 116.752128 
L 258.885818 123.759744 
L 263.214545 155.042688 
L 264.296727 161.991168 
L 265.378909 157.910784 
L 267.543273 173.7888 
L 269.707636 185.349888 
L 270.789818 194.072448 
L 271.872 196.55616 
L 272.954182 206.224896 
L 274.036364 212.936832 
L 275.118545 215.361408 
L 276.200727 225.207552 
L 277.282909 225.207552 
L 278.365091 229.583616 
L 279.447273 230.766336 
L 279.447273 230.766336 
" style="fill:none;stroke:#1f77b4;stroke-linecap:square;stroke-width:1.5;"/>
   </g>
   <g id="patch_3">
    <path d="M 57.6 307.584 
L 57.6 41.472 
" style="fill:none;stroke:#000000;stroke-linecap:square;stroke-linejoin:miter;stroke-width:0.8;"/>
   </g>
   <g id="patch_4">
    <path d="M 414.72 307.584 
L 414.72 41.472 
" style="fill:none;stroke:#000000;stroke-linecap:square;stroke-linejoin:miter;stroke-width:0.8;"/>
   </g>
   <g id="patch_5">
    <path d="M 57.6 307.584 
L 414.72 307.584 
" style="fill:none;stroke:#000000;stroke-linecap:square;stroke-linejoin:miter;stroke-width:0.8;"/>
   </g>
   <g id="patch_6">
    <path d="M 57.6 41.472 
L 414.72 41.472 
" style="fill:none;stroke:#000000;stroke-linecap:square;stroke-linejoin:miter;stroke-width:0.8;"/>
   </g>
   <g id="text_22">
    <!-- Episodes' Returns during Training -->
    <defs>
     <path d="M 17.921875 72.90625 
L 17.921875 45.796875 
L 9.625 45.796875 
L 9.625 72.90625 
z
" id="DejaVuSans-27"/>
    </defs>
    <g transform="translate(134.794688 35.472)scale(0.12 -0.12)">
     <use xlink:href="#DejaVuSans-45"/>
     <use x="63.183594" xlink:href="#DejaVuSans-70"/>
     <use x="126.660156" xlink:href="#DejaVuSans-69"/>
     <use x="154.443359" xlink:href="#DejaVuSans-73"/>
     <use x="206.542969" xlink:href="#DejaVuSans-6f"/>
     <use x="267.724609" xlink:href="#DejaVuSans-64"/>
     <use x="331.201172" xlink:href="#DejaVuSans-65"/>
     <use x="392.724609" xlink:href="#DejaVuSans-73"/>
     <use x="444.824219" xlink:href="#DejaVuSans-27"/>
     <use x="472.314453" xlink:href="#DejaVuSans-20"/>
     <use x="504.101562" xlink:href="#DejaVuSans-52"/>
     <use x="573.521484" xlink:href="#DejaVuSans-65"/>
     <use x="635.044922" xlink:href="#DejaVuSans-74"/>
     <use x="674.253906" xlink:href="#DejaVuSans-75"/>
     <use x="737.632812" xlink:href="#DejaVuSans-72"/>
     <use x="778.730469" xlink:href="#DejaVuSans-6e"/>
     <use x="842.109375" xlink:href="#DejaVuSans-73"/>
     <use x="894.208984" xlink:href="#DejaVuSans-20"/>
     <use x="925.996094" xlink:href="#DejaVuSans-64"/>
     <use x="989.472656" xlink:href="#DejaVuSans-75"/>
     <use x="1052.851562" xlink:href="#DejaVuSans-72"/>
     <use x="1093.964844" xlink:href="#DejaVuSans-69"/>
     <use x="1121.748047" xlink:href="#DejaVuSans-6e"/>
     <use x="1185.126953" xlink:href="#DejaVuSans-67"/>
     <use x="1248.603516" xlink:href="#DejaVuSans-20"/>
     <use x="1280.390625" xlink:href="#DejaVuSans-54"/>
     <use x="1341.255859" xlink:href="#DejaVuSans-72"/>
     <use x="1382.369141" xlink:href="#DejaVuSans-61"/>
     <use x="1443.648438" xlink:href="#DejaVuSans-69"/>
     <use x="1471.431641" xlink:href="#DejaVuSans-6e"/>
     <use x="1534.810547" xlink:href="#DejaVuSans-69"/>
     <use x="1562.59375" xlink:href="#DejaVuSans-6e"/>
     <use x="1625.972656" xlink:href="#DejaVuSans-67"/>
    </g>
   </g>
   <g id="legend_1">
    <g id="patch_7">
     <path d="M 297.741875 78.82825 
L 407.72 78.82825 
Q 409.72 78.82825 409.72 76.82825 
L 409.72 48.472 
Q 409.72 46.472 407.72 46.472 
L 297.741875 46.472 
Q 295.741875 46.472 295.741875 48.472 
L 295.741875 76.82825 
Q 295.741875 78.82825 297.741875 78.82825 
z
" style="fill:#ffffff;opacity:0.8;stroke:#cccccc;stroke-linejoin:miter;"/>
    </g>
    <g id="text_23">
     <!-- Demonstration Value -->
     <defs>
      <path d="M 19.671875 64.796875 
L 19.671875 8.109375 
L 31.59375 8.109375 
Q 46.6875 8.109375 53.6875 14.9375 
Q 60.6875 21.78125 60.6875 36.53125 
Q 60.6875 51.171875 53.6875 57.984375 
Q 46.6875 64.796875 31.59375 64.796875 
z
M 9.8125 72.90625 
L 30.078125 72.90625 
Q 51.265625 72.90625 61.171875 64.09375 
Q 71.09375 55.28125 71.09375 36.53125 
Q 71.09375 17.671875 61.125 8.828125 
Q 51.171875 0 30.078125 0 
L 9.8125 0 
z
" id="DejaVuSans-44"/>
      <path d="M 52 44.1875 
Q 55.375 50.25 60.0625 53.125 
Q 64.75 56 71.09375 56 
Q 79.640625 56 84.28125 50.015625 
Q 88.921875 44.046875 88.921875 33.015625 
L 88.921875 0 
L 79.890625 0 
L 79.890625 32.71875 
Q 79.890625 40.578125 77.09375 44.375 
Q 74.3125 48.1875 68.609375 48.1875 
Q 61.625 48.1875 57.5625 43.546875 
Q 53.515625 38.921875 53.515625 30.90625 
L 53.515625 0 
L 44.484375 0 
L 44.484375 32.71875 
Q 44.484375 40.625 41.703125 44.40625 
Q 38.921875 48.1875 33.109375 48.1875 
Q 26.21875 48.1875 22.15625 43.53125 
Q 18.109375 38.875 18.109375 30.90625 
L 18.109375 0 
L 9.078125 0 
L 9.078125 54.6875 
L 18.109375 54.6875 
L 18.109375 46.1875 
Q 21.1875 51.21875 25.484375 53.609375 
Q 29.78125 56 35.6875 56 
Q 41.65625 56 45.828125 52.96875 
Q 50 49.953125 52 44.1875 
z
" id="DejaVuSans-6d"/>
      <path d="M 28.609375 0 
L 0.78125 72.90625 
L 11.078125 72.90625 
L 34.1875 11.53125 
L 57.328125 72.90625 
L 67.578125 72.90625 
L 39.796875 0 
z
" id="DejaVuSans-56"/>
     </defs>
     <g transform="translate(299.741875 58.070437)scale(0.1 -0.1)">
      <use xlink:href="#DejaVuSans-44"/>
      <use x="77.001953" xlink:href="#DejaVuSans-65"/>
      <use x="138.525391" xlink:href="#DejaVuSans-6d"/>
      <use x="235.9375" xlink:href="#DejaVuSans-6f"/>
      <use x="297.119141" xlink:href="#DejaVuSans-6e"/>
      <use x="360.498047" xlink:href="#DejaVuSans-73"/>
      <use x="412.597656" xlink:href="#DejaVuSans-74"/>
      <use x="451.806641" xlink:href="#DejaVuSans-72"/>
      <use x="492.919922" xlink:href="#DejaVuSans-61"/>
      <use x="554.199219" xlink:href="#DejaVuSans-74"/>
      <use x="593.408203" xlink:href="#DejaVuSans-69"/>
      <use x="621.191406" xlink:href="#DejaVuSans-6f"/>
      <use x="682.373047" xlink:href="#DejaVuSans-6e"/>
      <use x="745.751953" xlink:href="#DejaVuSans-20"/>
      <use x="777.539062" xlink:href="#DejaVuSans-56"/>
      <use x="845.837891" xlink:href="#DejaVuSans-61"/>
      <use x="907.117188" xlink:href="#DejaVuSans-6c"/>
      <use x="934.900391" xlink:href="#DejaVuSans-75"/>
      <use x="998.279297" xlink:href="#DejaVuSans-65"/>
     </g>
    </g>
    <g id="line2d_21">
     <path d="M 322.612969 69.248562 
L 342.612969 69.248562 
" style="fill:none;stroke:#1f77b4;stroke-linecap:square;stroke-width:1.5;"/>
    </g>
    <g id="line2d_22"/>
    <g id="text_24">
     <!-- -199.0 -->
     <defs>
      <path d="M 4.890625 31.390625 
L 31.203125 31.390625 
L 31.203125 23.390625 
L 4.890625 23.390625 
z
" id="DejaVuSans-2d"/>
      <path d="M 10.6875 12.40625 
L 21 12.40625 
L 21 0 
L 10.6875 0 
z
" id="DejaVuSans-2e"/>
     </defs>
     <g transform="translate(350.612969 72.748562)scale(0.1 -0.1)">
      <use xlink:href="#DejaVuSans-2d"/>
      <use x="36.083984" xlink:href="#DejaVuSans-31"/>
      <use x="99.707031" xlink:href="#DejaVuSans-39"/>
      <use x="163.330078" xlink:href="#DejaVuSans-39"/>
      <use x="226.953125" xlink:href="#DejaVuSans-2e"/>
      <use x="258.740234" xlink:href="#DejaVuSans-30"/>
     </g>
    </g>
   </g>
  </g>
 </g>
 <defs>
  <clipPath id="p0d0604905f">
   <rect height="266.112" width="357.12" x="57.6" y="41.472"/>
  </clipPath>
 </defs>
</svg>
