<?xml version="1.0" encoding="utf-8" standalone="no"?>
<!DOCTYPE svg PUBLIC "-//W3C//DTD SVG 1.1//EN"
  "http://www.w3.org/Graphics/SVG/1.1/DTD/svg11.dtd">
<!-- Created with matplotlib (http://matplotlib.org/) -->
<svg height="345.6pt" version="1.1" viewBox="0 0 460.8 345.6" width="460.8pt" xmlns="http://www.w3.org/2000/svg" xmlns:xlink="http://www.w3.org/1999/xlink">
 <defs>
  <style type="text/css">
*{stroke-linecap:butt;stroke-linejoin:round;}
  </style>
 </defs>
 <g id="figure_1">
  <g id="patch_1">
   <path d="M 0 345.6 
L 460.8 345.6 
L 460.8 0 
L 0 0 
z
" style="fill:#ffffff;"/>
  </g>
  <g id="axes_1">
   <g id="patch_2">
    <path d="M 57.6 307.584 
L 414.72 307.584 
L 414.72 41.472 
L 57.6 41.472 
z
" style="fill:#ffffff;"/>
   </g>
   <g id="PolyCollection_1">
    <path clip-path="url(#pc928254848)" d="M 73.832727 299.311063 
L 73.832727 1247.855081 
L 74.914909 826.809418 
L 75.997091 793.650864 
L 77.079273 783.61778 
L 78.161455 737.362999 
L 79.243636 731.80109 
L 80.325818 705.140273 
L 81.408 699.275886 
L 82.490182 677.197355 
L 83.572364 641.480949 
L 84.654545 619.43403 
L 85.736727 623.8035 
L 86.818909 620.518836 
L 87.901091 615.956205 
L 88.983273 615.578035 
L 90.065455 638.994489 
L 91.147636 635.323653 
L 92.229818 633.931468 
L 93.312 619.693707 
L 94.394182 580.572798 
L 95.476364 521.414487 
L 96.558545 502.956132 
L 97.640727 486.035069 
L 98.722909 480.126557 
L 99.805091 470.261048 
L 100.887273 470.780198 
L 101.969455 464.232472 
L 103.051636 353.563921 
L 104.133818 341.592714 
L 105.216 340.109526 
L 106.298182 440.260767 
L 107.380364 398.899081 
L 108.462545 384.029118 
L 109.544727 373.887459 
L 110.626909 372.340909 
L 111.709091 364.723719 
L 112.791273 359.229729 
L 113.873455 355.841328 
L 114.955636 344.654088 
L 116.037818 343.759465 
L 117.12 339.920419 
L 118.202182 337.60054 
L 119.284364 334.105439 
L 120.366545 322.056842 
L 121.448727 319.180808 
L 122.530909 295.29047 
L 123.613091 294.792832 
L 124.695273 296.717486 
L 125.777455 287.603406 
L 126.859636 285.417391 
L 127.941818 285.804621 
L 129.024 285.254652 
L 130.106182 280.839766 
L 131.188364 275.642161 
L 132.270545 276.443848 
L 133.352727 328.08092 
L 134.434909 330.73526 
L 135.517091 328.764393 
L 136.599273 327.618872 
L 137.681455 332.091573 
L 138.763636 219.723483 
L 139.845818 338.815954 
L 140.928 370.239724 
L 142.010182 398.486063 
L 143.092364 451.275571 
L 144.174545 450.298415 
L 145.256727 469.171156 
L 146.338909 525.758766 
L 147.421091 526.748326 
L 148.503273 524.957129 
L 149.585455 543.688376 
L 150.667636 552.148615 
L 151.749818 559.791594 
L 152.832 559.969905 
L 153.914182 577.052738 
L 154.996364 575.42072 
L 156.078545 572.581961 
L 157.160727 618.083093 
L 158.242909 618.887693 
L 159.325091 647.119762 
L 160.407273 645.440309 
L 161.489455 652.031692 
L 162.571636 652.444311 
L 163.653818 740.647254 
L 164.736 740.346909 
L 165.818182 689.18899 
L 166.900364 741.146153 
L 167.982545 815.700959 
L 169.064727 823.197069 
L 170.146909 837.622095 
L 171.229091 860.910687 
L 172.311273 740.183993 
L 173.393455 723.270448 
L 174.475636 728.417903 
L 175.557818 677.365284 
L 176.64 699.415394 
L 177.722182 699.411952 
L 178.804364 661.736224 
L 179.886545 668.352052 
L 180.968727 679.750595 
L 182.050909 712.679 
L 183.133091 711.030706 
L 184.215273 708.643568 
L 185.297455 723.928252 
L 186.379636 708.649378 
L 187.461818 713.757645 
L 188.544 720.235602 
L 189.626182 674.014573 
L 190.708364 671.076245 
L 191.790545 651.92947 
L 192.872727 655.41418 
L 193.954909 653.998135 
L 195.037091 660.451825 
L 196.119273 572.114568 
L 197.201455 575.153415 
L 198.283636 577.659428 
L 199.365818 526.026573 
L 200.448 452.083677 
L 201.530182 452.416871 
L 202.612364 440.165188 
L 203.694545 420.835764 
L 204.776727 417.863133 
L 205.858909 408.89854 
L 206.941091 377.131835 
L 208.023273 371.484476 
L 209.105455 350.387984 
L 210.187636 334.764351 
L 211.269818 318.998333 
L 212.352 315.615117 
L 213.434182 307.856917 
L 214.516364 256.099508 
L 215.598545 252.647188 
L 216.680727 249.641029 
L 217.762909 238.639338 
L 218.845091 237.0544 
L 219.927273 234.845092 
L 221.009455 233.221599 
L 222.091636 228.702963 
L 223.173818 229.236113 
L 224.256 220.375646 
L 225.338182 217.832353 
L 226.420364 211.696537 
L 227.502545 207.564351 
L 228.584727 207.973692 
L 229.666909 203.067727 
L 230.749091 199.680883 
L 231.831273 199.021038 
L 232.913455 196.156904 
L 233.995636 190.73733 
L 235.077818 185.771502 
L 236.16 181.733131 
L 237.242182 180.714486 
L 238.324364 177.388531 
L 239.406545 172.809768 
L 240.488727 171.665302 
L 241.570909 170.227135 
L 242.653091 167.998329 
L 243.735273 165.204365 
L 244.817455 161.789668 
L 245.899636 157.742853 
L 246.981818 161.284449 
L 248.064 156.613267 
L 249.146182 154.451473 
L 250.228364 151.272491 
L 251.310545 152.582272 
L 252.392727 152.903394 
L 253.474909 149.339174 
L 254.557091 149.605495 
L 255.639273 146.04317 
L 256.721455 146.783951 
L 257.803636 145.329209 
L 258.885818 145.309732 
L 259.968 142.295617 
L 261.050182 142.339892 
L 262.132364 141.162841 
L 263.214545 139.627642 
L 264.296727 137.544262 
L 265.378909 137.230773 
L 266.461091 134.864423 
L 267.543273 134.011833 
L 268.625455 134.872394 
L 269.707636 135.330388 
L 270.789818 131.978666 
L 271.872 131.189079 
L 272.954182 130.915139 
L 274.036364 130.403013 
L 275.118545 127.933264 
L 276.200727 126.541361 
L 277.282909 125.948235 
L 278.365091 127.789493 
L 279.447273 122.97518 
L 280.529455 123.67192 
L 281.611636 122.254294 
L 282.693818 122.705488 
L 283.776 119.622433 
L 284.858182 118.451525 
L 285.940364 116.951279 
L 287.022545 116.86875 
L 288.104727 116.041915 
L 289.186909 113.022537 
L 290.269091 113.673367 
L 291.351273 113.497236 
L 292.433455 112.194592 
L 293.515636 111.085693 
L 294.597818 111.533361 
L 295.68 111.750874 
L 296.762182 109.223254 
L 297.844364 107.246621 
L 298.926545 106.353097 
L 300.008727 105.503751 
L 301.090909 104.77376 
L 302.173091 101.020558 
L 303.255273 102.606644 
L 304.337455 100.829302 
L 305.419636 101.340406 
L 306.501818 102.48092 
L 307.584 102.120248 
L 308.666182 100.794372 
L 309.748364 98.986551 
L 310.830545 96.507696 
L 311.912727 100.154008 
L 312.994909 98.339817 
L 314.077091 98.120169 
L 315.159273 95.143832 
L 316.241455 94.800602 
L 316.241455 72.446793 
L 316.241455 72.446793 
L 315.159273 72.543535 
L 314.077091 73.775315 
L 312.994909 73.892742 
L 311.912727 73.863275 
L 310.830545 70.203926 
L 309.748364 71.312261 
L 308.666182 71.594307 
L 307.584 71.797688 
L 306.501818 72.004721 
L 305.419636 71.422603 
L 304.337455 71.220528 
L 303.255273 71.503483 
L 302.173091 71.343875 
L 301.090909 72.974414 
L 300.008727 73.483618 
L 298.926545 73.629531 
L 297.844364 73.906899 
L 296.762182 74.409248 
L 295.68 75.109862 
L 294.597818 74.788055 
L 293.515636 74.417281 
L 292.433455 74.967738 
L 291.351273 75.047693 
L 290.269091 75.173747 
L 289.186909 75.491641 
L 288.104727 76.954772 
L 287.022545 77.249747 
L 285.940364 77.375968 
L 284.858182 78.111655 
L 283.776 78.561664 
L 282.693818 79.825697 
L 281.611636 79.409957 
L 280.529455 79.778238 
L 279.447273 80.09769 
L 278.365091 83.053256 
L 277.282909 82.206191 
L 276.200727 82.618969 
L 275.118545 83.76341 
L 274.036364 84.442652 
L 272.954182 84.535488 
L 271.872 84.625825 
L 270.789818 84.856926 
L 269.707636 86.255008 
L 268.625455 85.832466 
L 267.543273 85.644546 
L 266.461091 86.496256 
L 265.378909 87.607102 
L 264.296727 87.541984 
L 263.214545 89.198956 
L 262.132364 90.079463 
L 261.050182 90.871641 
L 259.968 91.380133 
L 258.885818 93.031849 
L 257.803636 93.449979 
L 256.721455 94.159614 
L 255.639273 93.578705 
L 254.557091 96.713532 
L 253.474909 97.308058 
L 252.392727 98.68465 
L 251.310545 99.020557 
L 250.228364 98.724796 
L 249.146182 101.790575 
L 248.064 102.901958 
L 246.981818 105.40693 
L 245.899636 103.440008 
L 244.817455 105.250613 
L 243.735273 107.773171 
L 242.653091 108.642682 
L 241.570909 110.56818 
L 240.488727 111.504323 
L 239.406545 111.66972 
L 238.324364 114.258241 
L 237.242182 114.773168 
L 236.16 115.75332 
L 235.077818 117.746821 
L 233.995636 118.428481 
L 232.913455 121.693029 
L 231.831273 123.926418 
L 230.749091 123.263616 
L 229.666909 124.912203 
L 228.584727 128.483383 
L 227.502545 128.165351 
L 226.420364 131.865728 
L 225.338182 134.319416 
L 224.256 134.14452 
L 223.173818 138.237794 
L 222.091636 135.654477 
L 221.009455 137.525485 
L 219.927273 137.40109 
L 218.845091 137.944564 
L 217.762909 137.622178 
L 216.680727 136.372014 
L 215.598545 136.712953 
L 214.516364 137.429721 
L 213.434182 135.946783 
L 212.352 138.084992 
L 211.269818 139.364649 
L 210.187636 138.997646 
L 209.105455 145.502704 
L 208.023273 151.706347 
L 206.941091 152.77388 
L 205.858909 150.054779 
L 204.776727 148.594544 
L 203.694545 147.907519 
L 202.612364 146.611618 
L 201.530182 150.832268 
L 200.448 149.039523 
L 199.365818 168.138253 
L 198.283636 165.002831 
L 197.201455 163.777363 
L 196.119273 161.532408 
L 195.037091 172.667816 
L 193.954909 167.808789 
L 192.872727 164.840424 
L 191.790545 164.516776 
L 190.708364 160.902072 
L 189.626182 161.097951 
L 188.544 164.506811 
L 187.461818 162.608154 
L 186.379636 160.812292 
L 185.297455 159.63144 
L 184.215273 157.062966 
L 183.133091 156.813595 
L 182.050909 154.198427 
L 180.968727 154.32705 
L 179.886545 150.5099 
L 178.804364 146.5256 
L 177.722182 149.145143 
L 176.64 139.17137 
L 175.557818 132.049692 
L 174.475636 127.945143 
L 173.393455 128.967862 
L 172.311273 127.471073 
L 171.229091 120.220449 
L 170.146909 119.875338 
L 169.064727 114.705651 
L 167.982545 112.553723 
L 166.900364 92.0001 
L 165.818182 94.22093 
L 164.736 92.151805 
L 163.653818 90.260701 
L 162.571636 79.283701 
L 161.489455 79.569178 
L 160.407273 80.391844 
L 159.325091 80.740756 
L 158.242909 80.498841 
L 157.160727 81.371448 
L 156.078545 75.897348 
L 154.996364 77.245418 
L 153.914182 78.011365 
L 152.832 79.260534 
L 151.749818 79.805487 
L 150.667636 78.971321 
L 149.585455 79.451157 
L 148.503273 80.633796 
L 147.421091 81.67817 
L 146.338909 82.366136 
L 145.256727 79.087416 
L 144.174545 80.70723 
L 143.092364 81.518938 
L 142.010182 85.32314 
L 140.928 86.313697 
L 139.845818 88.178338 
L 138.763636 96.006424 
L 137.681455 95.275275 
L 136.599273 95.280251 
L 135.517091 95.873328 
L 134.434909 98.615601 
L 133.352727 99.185397 
L 132.270545 101.372945 
L 131.188364 103.138549 
L 130.106182 103.665309 
L 129.024 105.687377 
L 127.941818 106.284647 
L 126.859636 106.550648 
L 125.777455 107.206117 
L 124.695273 110.099602 
L 123.613091 112.183923 
L 122.530909 112.150503 
L 121.448727 113.537848 
L 120.366545 115.244854 
L 119.284364 115.739003 
L 118.202182 117.025047 
L 117.12 118.457347 
L 116.037818 119.97898 
L 114.955636 120.355781 
L 113.873455 121.933046 
L 112.791273 123.940806 
L 111.709091 126.164063 
L 110.626909 129.658528 
L 109.544727 130.347319 
L 108.462545 133.990261 
L 107.380364 137.490896 
L 106.298182 136.400826 
L 105.216 140.166301 
L 104.133818 140.513372 
L 103.051636 141.096738 
L 101.969455 133.357352 
L 100.887273 136.002317 
L 99.805091 135.253 
L 98.722909 135.674198 
L 97.640727 140.303721 
L 96.558545 148.923497 
L 95.476364 152.948649 
L 94.394182 153.369858 
L 93.312 150.63533 
L 92.229818 153.955047 
L 91.147636 152.870369 
L 90.065455 153.274004 
L 88.983273 151.427559 
L 87.901091 149.621254 
L 86.818909 154.476031 
L 85.736727 155.8365 
L 84.654545 153.39646 
L 83.572364 151.665713 
L 82.490182 153.210901 
L 81.408 153.884946 
L 80.325818 151.131112 
L 79.243636 149.981566 
L 78.161455 149.774422 
L 77.079273 146.916594 
L 75.997091 151.250601 
L 74.914909 170.820662 
L 73.832727 299.311063 
z
" style="fill:#1f77b4;fill-opacity:0.1;"/>
   </g>
   <g id="PolyCollection_2">
    <path clip-path="url(#pc928254848)" d="M 73.832727 332.057203 
L 73.832727 1175.745062 
L 74.914909 1133.672801 
L 75.997091 986.163848 
L 77.079273 985.353712 
L 78.161455 992.777038 
L 79.243636 964.485688 
L 80.325818 970.858073 
L 81.408 948.412223 
L 82.490182 945.804752 
L 83.572364 946.480777 
L 84.654545 945.725746 
L 85.736727 960.173988 
L 86.818909 913.993028 
L 87.901091 916.175855 
L 88.983273 917.202347 
L 90.065455 897.78376 
L 91.147636 920.699168 
L 92.229818 851.469842 
L 93.312 821.918056 
L 94.394182 816.379717 
L 95.476364 813.059479 
L 96.558545 813.15673 
L 97.640727 331.989319 
L 98.722909 304.307017 
L 99.805091 291.972174 
L 100.887273 282.255357 
L 101.969455 284.251497 
L 103.051636 284.205598 
L 104.133818 284.20529 
L 105.216 258.74142 
L 106.298182 252.0746 
L 107.380364 227.008142 
L 108.462545 227.539916 
L 109.544727 230.281734 
L 110.626909 209.947249 
L 111.709091 217.508783 
L 112.791273 210.77729 
L 113.873455 242.05423 
L 114.955636 319.166059 
L 116.037818 324.335817 
L 117.12 324.51271 
L 118.202182 349.645797 
L 119.284364 347.755748 
L 120.366545 379.706578 
L 121.448727 390.689729 
L 122.530909 401.397428 
L 123.613091 408.71218 
L 124.695273 410.507356 
L 125.777455 407.166481 
L 126.859636 413.625646 
L 127.941818 423.35581 
L 129.024 421.512911 
L 130.106182 849.540901 
L 131.188364 865.064633 
L 132.270545 856.130484 
L 133.352727 860.479111 
L 134.434909 857.904733 
L 135.517091 857.6845 
L 136.599273 855.996077 
L 137.681455 849.812074 
L 138.763636 844.914494 
L 139.845818 845.146366 
L 140.928 857.430196 
L 142.010182 854.482575 
L 143.092364 853.258001 
L 144.174545 855.273293 
L 145.256727 856.281829 
L 146.338909 823.230864 
L 147.421091 748.59857 
L 148.503273 750.321451 
L 149.585455 753.611122 
L 150.667636 714.250777 
L 151.749818 717.414716 
L 152.832 684.014925 
L 153.914182 670.948615 
L 154.996364 658.66331 
L 156.078545 645.277479 
L 157.160727 643.117398 
L 158.242909 638.144893 
L 159.325091 632.648567 
L 160.407273 623.589086 
L 161.489455 623.50136 
L 162.571636 187.935651 
L 163.653818 170.321886 
L 164.736 169.761769 
L 165.818182 168.233007 
L 166.900364 167.966589 
L 167.982545 177.368339 
L 169.064727 176.873609 
L 170.146909 302.386519 
L 171.229091 313.038912 
L 172.311273 387.450297 
L 173.393455 374.239378 
L 174.475636 374.023777 
L 175.557818 373.900317 
L 176.64 514.40134 
L 177.722182 529.071518 
L 178.804364 533.950296 
L 179.886545 548.267177 
L 180.968727 570.380663 
L 182.050909 574.450401 
L 183.133091 575.069908 
L 184.215273 575.466599 
L 185.297455 575.34954 
L 186.379636 574.504963 
L 187.461818 702.489295 
L 188.544 745.426088 
L 189.626182 746.182582 
L 190.708364 751.279605 
L 191.790545 748.07703 
L 192.872727 752.368725 
L 193.954909 757.170979 
L 195.037091 752.472138 
L 196.119273 830.001681 
L 197.201455 988.055813 
L 198.283636 1043.487692 
L 199.365818 1048.62209 
L 200.448 1041.122899 
L 201.530182 1047.59165 
L 202.612364 919.161508 
L 203.694545 913.554798 
L 204.776727 838.120773 
L 205.858909 839.058519 
L 206.941091 842.065064 
L 208.023273 843.499232 
L 209.105455 692.045979 
L 210.187636 680.222245 
L 211.269818 677.180955 
L 212.352 655.289395 
L 213.434182 629.407769 
L 214.516364 621.575764 
L 215.598545 625.565932 
L 216.680727 624.920873 
L 217.762909 626.787063 
L 218.845091 628.670397 
L 219.927273 502.289772 
L 221.009455 441.744093 
L 222.091636 439.815272 
L 223.173818 435.998284 
L 224.256 438.919841 
L 225.338182 435.858575 
L 226.420364 429.133773 
L 227.502545 431.322846 
L 228.584727 353.206099 
L 229.666909 194.555394 
L 230.749091 136.770587 
L 231.831273 133.011028 
L 232.913455 130.292148 
L 233.995636 123.906164 
L 235.077818 122.892011 
L 236.16 117.82931 
L 237.242182 119.644972 
L 238.324364 117.689599 
L 239.406545 114.362633 
L 240.488727 114.279655 
L 241.570909 115.730679 
L 242.653091 111.860617 
L 243.735273 109.50584 
L 244.817455 109.21083 
L 245.899636 105.43135 
L 246.981818 105.745875 
L 248.064 100.885678 
L 249.146182 97.606692 
L 250.228364 95.068022 
L 251.310545 92.845425 
L 252.392727 90.347266 
L 253.474909 87.896086 
L 254.557091 87.682909 
L 255.639273 84.830376 
L 256.721455 81.092978 
L 257.803636 79.162234 
L 258.885818 79.081087 
L 259.968 78.693944 
L 261.050182 78.593745 
L 262.132364 78.368894 
L 263.214545 75.978596 
L 264.296727 74.318952 
L 265.378909 74.244822 
L 266.461091 74.207378 
L 267.543273 71.436915 
L 268.625455 71.277421 
L 269.707636 72.628422 
L 270.789818 72.523197 
L 271.872 72.402055 
L 272.954182 70.309355 
L 274.036364 68.60429 
L 275.118545 68.544195 
L 276.200727 68.534732 
L 277.282909 68.506897 
L 278.365091 68.470345 
L 279.447273 67.167386 
L 280.529455 67.14819 
L 281.611636 66.928082 
L 282.693818 66.994423 
L 283.776 66.95231 
L 284.858182 66.93921 
L 285.940364 66.904038 
L 287.022545 66.839327 
L 288.104727 66.768083 
L 289.186909 66.732325 
L 290.269091 66.675307 
L 291.351273 66.664825 
L 292.433455 64.367704 
L 293.515636 64.316225 
L 294.597818 64.303733 
L 295.68 64.293816 
L 296.762182 64.28037 
L 297.844364 64.26226 
L 298.926545 64.201609 
L 300.008727 64.247718 
L 301.090909 64.223757 
L 302.173091 60.659206 
L 303.255273 60.668942 
L 304.337455 60.651327 
L 305.419636 60.638391 
L 306.501818 60.577506 
L 307.584 60.590908 
L 308.666182 60.575532 
L 309.748364 60.579114 
L 310.830545 60.554367 
L 311.912727 60.564462 
L 312.994909 60.567885 
L 314.077091 60.573175 
L 315.159273 60.475704 
L 316.241455 60.466122 
L 317.323636 60.467983 
L 318.405818 60.439918 
L 319.488 60.433119 
L 320.570182 60.393998 
L 321.652364 60.358898 
L 322.734545 60.35041 
L 322.734545 59.955715 
L 322.734545 59.955715 
L 321.652364 59.95314 
L 320.570182 59.977176 
L 319.488 59.982408 
L 318.405818 59.978565 
L 317.323636 59.988939 
L 316.241455 59.984886 
L 315.159273 59.993045 
L 314.077091 60.004976 
L 312.994909 60.016179 
L 311.912727 60.001861 
L 310.830545 60.000129 
L 309.748364 60.016777 
L 308.666182 60.020359 
L 307.584 60.004983 
L 306.501818 59.994731 
L 305.419636 60.02255 
L 304.337455 60.021441 
L 303.255273 60.033394 
L 302.173091 60.019476 
L 301.090909 61.735769 
L 300.008727 61.765031 
L 298.926545 61.740177 
L 297.844364 61.809624 
L 296.762182 61.821083 
L 295.68 61.819464 
L 294.597818 61.833201 
L 293.515636 61.83845 
L 292.433455 61.852021 
L 291.351273 62.269243 
L 290.269091 62.264674 
L 289.186909 62.284532 
L 288.104727 62.29017 
L 287.022545 62.331284 
L 285.940364 62.331622 
L 284.858182 62.3615 
L 283.776 62.360228 
L 282.693818 62.37725 
L 281.611636 62.354888 
L 280.529455 62.424546 
L 279.447273 62.423091 
L 278.365091 62.722717 
L 277.282909 62.727561 
L 276.200727 62.729293 
L 275.118545 62.719831 
L 274.036364 62.748439 
L 272.954182 63.042172 
L 271.872 63.527801 
L 270.789818 63.548585 
L 269.707636 63.644423 
L 268.625455 62.322476 
L 267.543273 62.346304 
L 266.461091 63.632571 
L 265.378909 63.618781 
L 264.296727 63.67475 
L 263.214545 64.084866 
L 262.132364 64.568578 
L 261.050182 64.663062 
L 259.968 64.740271 
L 258.885818 64.938574 
L 257.803636 64.99344 
L 256.721455 65.410395 
L 255.639273 67.320484 
L 254.557091 67.945148 
L 253.474909 68.122269 
L 252.392727 69.31978 
L 251.310545 70.003138 
L 250.228364 70.879267 
L 249.146182 72.219919 
L 248.064 74.04437 
L 246.981818 75.40528 
L 245.899636 75.353162 
L 244.817455 77.091071 
L 243.735273 77.245494 
L 242.653091 77.800209 
L 241.570909 78.554582 
L 240.488727 78.38528 
L 239.406545 78.314129 
L 238.324364 79.298177 
L 237.242182 80.027579 
L 236.16 79.844443 
L 235.077818 81.00285 
L 233.995636 81.875135 
L 232.913455 83.348325 
L 231.831273 84.337273 
L 230.749091 86.42035 
L 229.666909 112.413515 
L 228.584727 150.744826 
L 227.502545 164.45446 
L 226.420364 163.946931 
L 225.338182 165.382897 
L 224.256 166.313311 
L 223.173818 164.799668 
L 222.091636 165.305522 
L 221.009455 165.606128 
L 219.927273 175.278535 
L 218.845091 198.819497 
L 217.762909 198.154069 
L 216.680727 197.205386 
L 215.598545 196.412487 
L 214.516364 195.458886 
L 213.434182 197.626779 
L 212.352 202.543181 
L 211.269818 207.765477 
L 210.187636 209.650216 
L 209.105455 211.741183 
L 208.023273 237.944301 
L 206.941091 237.888242 
L 205.858909 237.021379 
L 204.776727 236.740923 
L 203.694545 249.602859 
L 202.612364 250.613468 
L 201.530182 271.3598 
L 200.448 269.857017 
L 199.365818 270.737398 
L 198.283636 268.414747 
L 197.201455 242.78891 
L 196.119273 204.742153 
L 195.037091 191.166774 
L 193.954909 192.730435 
L 192.872727 192.021214 
L 191.790545 191.00841 
L 190.708364 192.105023 
L 189.626182 191.779274 
L 188.544 191.737432 
L 187.461818 189.405617 
L 186.379636 165.416342 
L 185.297455 165.736744 
L 184.215273 165.903539 
L 183.133091 166.84428 
L 182.050909 166.653625 
L 180.968727 165.341987 
L 179.886545 160.341617 
L 178.804364 156.604277 
L 177.722182 154.34534 
L 176.64 151.777374 
L 175.557818 127.833008 
L 174.475636 127.952005 
L 173.393455 128.363246 
L 172.311273 130.847021 
L 171.229091 118.263437 
L 170.146909 116.160195 
L 169.064727 95.335159 
L 167.982545 95.555975 
L 166.900364 94.242281 
L 165.818182 94.330679 
L 164.736 95.096394 
L 163.653818 95.470626 
L 162.571636 100.328541 
L 161.489455 174.574288 
L 160.407273 174.51613 
L 159.325091 180.530415 
L 158.242909 181.645494 
L 157.160727 183.272567 
L 156.078545 184.654732 
L 154.996364 182.55205 
L 153.914182 188.427411 
L 152.832 190.724633 
L 151.749818 198.802833 
L 150.667636 196.90473 
L 149.585455 205.338101 
L 148.503273 204.517819 
L 147.421091 203.85752 
L 146.338909 218.254473 
L 145.256727 224.570344 
L 144.174545 224.295628 
L 143.092364 225.376572 
L 142.010182 225.45299 
L 140.928 225.669145 
L 139.845818 223.074357 
L 138.763636 222.821314 
L 137.681455 223.68358 
L 136.599273 225.435628 
L 135.517091 226.000287 
L 134.434909 225.661782 
L 133.352727 226.115167 
L 132.270545 224.839961 
L 131.188364 227.200788 
L 130.106182 223.434357 
L 129.024 149.823486 
L 127.941818 151.262635 
L 126.859636 144.949202 
L 125.777455 143.933577 
L 124.695273 143.750564 
L 123.613091 142.896448 
L 122.530909 140.980069 
L 121.448727 135.537727 
L 120.366545 135.302779 
L 119.284364 127.892687 
L 118.202182 129.58628 
L 117.12 123.578349 
L 116.037818 123.802551 
L 114.955636 123.005487 
L 113.873455 110.230596 
L 112.791273 104.346473 
L 111.709091 107.579396 
L 110.626909 104.874921 
L 109.544727 109.223802 
L 108.462545 108.77819 
L 107.380364 108.836876 
L 106.298182 118.524644 
L 105.216 120.929288 
L 104.133818 129.385827 
L 103.051636 130.66877 
L 101.969455 131.314762 
L 100.887273 131.365328 
L 99.805091 133.440229 
L 98.722909 147.692932 
L 97.640727 157.526508 
L 96.558545 240.445574 
L 95.476364 239.714921 
L 94.394182 241.302971 
L 93.312 241.163749 
L 92.229818 245.763003 
L 91.147636 257.898899 
L 90.065455 254.824035 
L 88.983273 257.894869 
L 87.901091 256.195192 
L 86.818909 255.007267 
L 85.736727 261.546051 
L 84.654545 258.921729 
L 83.572364 258.965034 
L 82.490182 258.748105 
L 81.408 258.624347 
L 80.325818 270.18761 
L 79.243636 267.021358 
L 78.161455 271.917131 
L 77.079273 273.84081 
L 75.997091 274.053727 
L 74.914909 329.582315 
L 73.832727 332.057203 
z
" style="fill:#ff7f0e;fill-opacity:0.1;"/>
   </g>
   <g id="PolyCollection_3">
    <path clip-path="url(#pc928254848)" d="M 73.832727 605.114149 
L 73.832727 992.557096 
L 74.914909 700.166309 
L 75.997091 591.091918 
L 77.079273 447.130511 
L 78.161455 428.629088 
L 79.243636 389.47379 
L 80.325818 363.007179 
L 81.408 357.954687 
L 82.490182 349.233054 
L 83.572364 345.233234 
L 84.654545 332.243746 
L 85.736727 330.657676 
L 86.818909 327.626398 
L 87.901091 332.49128 
L 88.983273 330.785344 
L 90.065455 325.264313 
L 91.147636 327.046851 
L 92.229818 325.16051 
L 93.312 321.485446 
L 94.394182 306.333837 
L 95.476364 308.46745 
L 96.558545 301.839664 
L 97.640727 299.448721 
L 98.722909 290.211004 
L 99.805091 292.054143 
L 100.887273 289.56398 
L 101.969455 283.566016 
L 103.051636 272.404603 
L 104.133818 276.317068 
L 105.216 274.29568 
L 106.298182 270.554742 
L 107.380364 271.479943 
L 108.462545 265.475287 
L 109.544727 266.748291 
L 110.626909 269.321877 
L 111.709091 261.634493 
L 112.791273 262.456201 
L 113.873455 260.888602 
L 114.955636 259.14865 
L 116.037818 256.911133 
L 117.12 252.827805 
L 118.202182 252.030133 
L 119.284364 254.240944 
L 120.366545 245.145033 
L 121.448727 243.42474 
L 122.530909 247.396034 
L 123.613091 241.121226 
L 124.695273 239.754576 
L 125.777455 234.946142 
L 126.859636 238.381145 
L 127.941818 233.085891 
L 129.024 231.12165 
L 130.106182 228.714306 
L 131.188364 227.243776 
L 132.270545 231.010872 
L 133.352727 228.330848 
L 134.434909 225.962031 
L 135.517091 228.140388 
L 136.599273 222.023065 
L 137.681455 222.30831 
L 138.763636 221.825499 
L 139.845818 220.1911 
L 140.928 218.506743 
L 142.010182 216.124891 
L 143.092364 211.47925 
L 144.174545 214.985011 
L 145.256727 209.379294 
L 146.338909 207.704114 
L 147.421091 207.453702 
L 148.503273 207.989359 
L 149.585455 209.614876 
L 150.667636 207.860525 
L 151.749818 202.33734 
L 152.832 200.643896 
L 153.914182 198.864047 
L 154.996364 196.663425 
L 156.078545 193.138304 
L 157.160727 191.368823 
L 158.242909 194.095563 
L 159.325091 189.327586 
L 160.407273 191.682854 
L 161.489455 191.368911 
L 162.571636 188.03955 
L 163.653818 189.398756 
L 164.736 180.908186 
L 165.818182 177.596379 
L 166.900364 177.849899 
L 167.982545 177.56936 
L 169.064727 171.438548 
L 170.146909 170.037933 
L 171.229091 172.493956 
L 172.311273 169.035373 
L 173.393455 167.722391 
L 174.475636 162.812318 
L 175.557818 163.871778 
L 176.64 160.131805 
L 177.722182 161.839218 
L 178.804364 159.844918 
L 179.886545 159.921373 
L 180.968727 156.668602 
L 182.050909 151.972865 
L 183.133091 152.121082 
L 184.215273 149.342367 
L 185.297455 148.785184 
L 186.379636 148.94246 
L 187.461818 150.230159 
L 188.544 149.448428 
L 189.626182 146.983277 
L 190.708364 146.104737 
L 191.790545 147.474154 
L 192.872727 142.264176 
L 193.954909 138.035704 
L 195.037091 140.313493 
L 196.119273 139.30746 
L 197.201455 136.217806 
L 198.283636 136.73533 
L 199.365818 138.956509 
L 200.448 135.242335 
L 201.530182 136.321014 
L 202.612364 134.287628 
L 203.694545 129.106536 
L 204.776727 130.1401 
L 205.858909 129.301577 
L 206.941091 129.388521 
L 208.023273 126.257687 
L 209.105455 127.64703 
L 210.187636 126.796961 
L 211.269818 125.417628 
L 212.352 126.169994 
L 213.434182 124.558605 
L 214.516364 123.021957 
L 215.598545 122.776255 
L 216.680727 121.583147 
L 217.762909 119.91558 
L 218.845091 118.570298 
L 219.927273 113.607236 
L 221.009455 114.77934 
L 222.091636 116.051191 
L 223.173818 114.599107 
L 224.256 112.786707 
L 225.338182 116.010545 
L 226.420364 115.747076 
L 227.502545 115.058883 
L 228.584727 114.832857 
L 229.666909 114.467761 
L 230.749091 112.816299 
L 231.831273 110.623342 
L 232.913455 111.771053 
L 233.995636 111.179963 
L 235.077818 109.307427 
L 236.16 110.326056 
L 237.242182 111.324465 
L 238.324364 111.258923 
L 239.406545 109.57111 
L 240.488727 110.710045 
L 241.570909 108.312846 
L 242.653091 109.474529 
L 243.735273 111.231053 
L 244.817455 106.611725 
L 245.899636 107.967401 
L 246.981818 107.888445 
L 248.064 104.092652 
L 249.146182 105.221305 
L 250.228364 108.455085 
L 251.310545 106.529798 
L 252.392727 107.439981 
L 253.474909 106.151242 
L 254.557091 105.30937 
L 255.639273 104.691854 
L 256.721455 104.555963 
L 257.803636 103.680842 
L 258.885818 103.713686 
L 259.968 102.912432 
L 261.050182 100.759119 
L 262.132364 100.85685 
L 263.214545 103.338871 
L 264.296727 101.353488 
L 265.378909 102.486108 
L 266.461091 101.034026 
L 267.543273 102.333084 
L 268.625455 102.259247 
L 269.707636 99.714922 
L 270.789818 99.619017 
L 271.872 100.537853 
L 272.954182 102.483728 
L 274.036364 100.818944 
L 275.118545 97.621776 
L 276.200727 95.01299 
L 277.282909 94.80349 
L 278.365091 92.666498 
L 279.447273 95.453917 
L 280.529455 95.324007 
L 281.611636 93.891217 
L 282.693818 92.586447 
L 283.776 92.401485 
L 284.858182 91.090466 
L 285.940364 90.698007 
L 287.022545 89.370436 
L 288.104727 89.026267 
L 289.186909 88.843104 
L 290.269091 86.892094 
L 291.351273 86.325214 
L 292.433455 85.785817 
L 293.515636 85.721979 
L 294.597818 85.472352 
L 295.68 82.233615 
L 296.762182 82.219338 
L 297.844364 80.084224 
L 298.926545 80.012336 
L 300.008727 77.795287 
L 301.090909 76.136077 
L 302.173091 75.705567 
L 303.255273 75.642087 
L 304.337455 74.575196 
L 305.419636 71.062931 
L 306.501818 71.028695 
L 307.584 70.917191 
L 308.666182 70.173806 
L 309.748364 70.125631 
L 310.830545 70.138704 
L 311.912727 68.784585 
L 312.994909 68.783688 
L 314.077091 68.803086 
L 315.159273 66.522808 
L 316.241455 67.166543 
L 317.323636 67.009151 
L 318.405818 66.966583 
L 319.488 66.957168 
L 320.570182 65.717077 
L 321.652364 65.682556 
L 322.734545 64.809255 
L 323.816727 64.801557 
L 324.898909 63.810596 
L 325.981091 63.757053 
L 327.063273 63.787246 
L 328.145455 63.863813 
L 329.227636 63.865647 
L 330.309818 63.424633 
L 331.392 64.965944 
L 332.474182 64.982923 
L 333.556364 65.008993 
L 334.638545 65.014952 
L 335.720727 65.235289 
L 336.802909 65.152213 
L 337.885091 65.140786 
L 338.967273 65.16253 
L 340.049455 65.202193 
L 341.131636 65.18336 
L 342.213818 65.206274 
L 343.296 65.220676 
L 344.378182 63.474386 
L 345.460364 63.453688 
L 346.542545 63.433506 
L 347.624727 63.444571 
L 348.706909 62.747996 
L 349.789091 62.736168 
L 350.871273 62.747771 
L 351.953455 62.731441 
L 353.035636 62.731441 
L 354.117818 62.740778 
L 355.2 62.708813 
L 356.282182 62.707766 
L 357.364364 62.508841 
L 358.446545 62.512198 
L 359.528727 62.475142 
L 360.610909 62.418806 
L 361.693091 62.426374 
L 362.775273 62.396707 
L 363.857455 60.863608 
L 364.939636 60.90796 
L 366.021818 61.759724 
L 366.021818 60.373704 
L 366.021818 60.373704 
L 364.939636 60.220155 
L 363.857455 60.175803 
L 362.775273 60.416784 
L 361.693091 60.410771 
L 360.610909 60.406512 
L 359.528727 60.427054 
L 358.446545 60.46096 
L 357.364364 60.464317 
L 356.282182 60.501936 
L 355.2 60.506803 
L 354.117818 60.539888 
L 353.035636 60.519656 
L 351.953455 60.519656 
L 350.871273 60.521067 
L 349.789091 60.526756 
L 348.706909 60.538584 
L 347.624727 60.752702 
L 346.542545 60.751941 
L 345.460364 60.761326 
L 344.378182 60.782024 
L 343.296 61.081839 
L 342.213818 61.078501 
L 341.131636 61.054106 
L 340.049455 61.06484 
L 338.967273 61.03354 
L 337.885091 61.007975 
L 336.802909 61.026116 
L 335.720727 61.061313 
L 334.638545 61.027364 
L 333.556364 61.033324 
L 332.474182 61.035739 
L 331.392 61.029064 
L 330.309818 60.760814 
L 329.227636 60.840196 
L 328.145455 60.847944 
L 327.063273 60.818066 
L 325.981091 60.795037 
L 324.898909 60.824284 
L 323.816727 60.998303 
L 322.734545 60.996518 
L 321.652364 61.128529 
L 320.570182 61.170885 
L 319.488 61.397366 
L 318.405818 61.417519 
L 317.323636 61.451828 
L 316.241455 61.489585 
L 315.159273 61.317243 
L 314.077091 61.715826 
L 312.994909 61.705656 
L 311.912727 61.710672 
L 310.830545 62.816611 
L 309.748364 62.800116 
L 308.666182 62.852472 
L 307.584 63.04935 
L 306.501818 63.127081 
L 305.419636 63.157895 
L 304.337455 64.808203 
L 303.255273 65.065958 
L 302.173091 65.091181 
L 301.090909 65.293427 
L 300.008727 65.615273 
L 298.926545 66.153962 
L 297.844364 66.224 
L 296.762182 66.667215 
L 295.68 66.664766 
L 294.597818 67.382227 
L 293.515636 67.516984 
L 292.433455 67.547764 
L 291.351273 67.75348 
L 290.269091 67.902146 
L 289.186909 70.540089 
L 288.104727 70.634866 
L 287.022545 71.195478 
L 285.940364 71.559196 
L 284.858182 71.716702 
L 283.776 72.085145 
L 282.693818 72.172209 
L 281.611636 72.564643 
L 280.529455 73.154303 
L 279.447273 73.260937 
L 278.365091 72.015281 
L 277.282909 72.503927 
L 276.200727 72.649243 
L 275.118545 73.174666 
L 274.036364 74.968576 
L 272.954182 75.515479 
L 271.872 74.250269 
L 270.789818 74.128311 
L 269.707636 74.180246 
L 268.625455 75.44428 
L 267.543273 75.707518 
L 266.461091 75.676016 
L 265.378909 76.098545 
L 264.296727 75.995222 
L 263.214545 76.487638 
L 262.132364 76.095649 
L 261.050182 76.098763 
L 259.968 76.707101 
L 258.885818 76.911159 
L 257.803636 77.174633 
L 256.721455 75.329681 
L 255.639273 75.412594 
L 254.557091 75.173549 
L 253.474909 75.39021 
L 252.392727 75.981997 
L 251.310545 75.957831 
L 250.228364 77.083961 
L 249.146182 76.544865 
L 248.064 76.24834 
L 246.981818 78.478506 
L 245.899636 78.671575 
L 244.817455 78.584333 
L 243.735273 81.138202 
L 242.653091 80.949151 
L 241.570909 79.65669 
L 240.488727 81.197948 
L 239.406545 81.171905 
L 238.324364 82.021026 
L 237.242182 82.126978 
L 236.16 81.445925 
L 235.077818 81.441501 
L 233.995636 81.792479 
L 232.913455 82.224442 
L 231.831273 82.065246 
L 230.749091 83.615599 
L 229.666909 84.057551 
L 228.584727 84.295642 
L 227.502545 84.814729 
L 226.420364 86.007062 
L 225.338182 86.021531 
L 224.256 85.354221 
L 223.173818 85.942743 
L 222.091636 87.48294 
L 221.009455 87.512936 
L 219.927273 87.117936 
L 218.845091 89.606009 
L 217.762909 89.804176 
L 216.680727 90.413345 
L 215.598545 90.947009 
L 214.516364 90.866888 
L 213.434182 91.512358 
L 212.352 91.952989 
L 211.269818 92.143562 
L 210.187636 92.780767 
L 209.105455 93.645642 
L 208.023273 92.527619 
L 206.941091 94.204541 
L 205.858909 94.090423 
L 204.776727 94.753954 
L 203.694545 94.504268 
L 202.612364 98.010253 
L 201.530182 98.513802 
L 200.448 98.202785 
L 199.365818 101.744598 
L 198.283636 100.938014 
L 197.201455 101.272217 
L 196.119273 102.085539 
L 195.037091 102.492855 
L 193.954909 101.32893 
L 192.872727 103.558109 
L 191.790545 106.053551 
L 190.708364 105.915 
L 189.626182 106.296057 
L 188.544 107.036078 
L 187.461818 107.768228 
L 186.379636 108.127492 
L 185.297455 108.101447 
L 184.215273 108.851169 
L 183.133091 110.377555 
L 182.050909 109.910757 
L 180.968727 111.093139 
L 179.886545 113.292707 
L 178.804364 112.452554 
L 177.722182 115.656309 
L 176.64 115.347183 
L 175.557818 118.419678 
L 174.475636 118.2018 
L 173.393455 121.050371 
L 172.311273 121.31632 
L 171.229091 122.884297 
L 170.146909 120.834157 
L 169.064727 121.609747 
L 167.982545 125.863216 
L 166.900364 124.601019 
L 165.818182 124.700785 
L 164.736 125.374745 
L 163.653818 131.526249 
L 162.571636 131.430709 
L 161.489455 132.725784 
L 160.407273 132.979546 
L 159.325091 131.61516 
L 158.242909 134.410677 
L 157.160727 133.234441 
L 156.078545 136.107136 
L 154.996364 138.341862 
L 153.914182 138.790532 
L 152.832 139.38795 
L 151.749818 139.971242 
L 150.667636 140.639596 
L 149.585455 142.273738 
L 148.503273 142.273015 
L 147.421091 143.417773 
L 146.338909 144.160846 
L 145.256727 144.514031 
L 144.174545 147.140045 
L 143.092364 145.376789 
L 142.010182 147.123749 
L 140.928 149.792111 
L 139.845818 151.620432 
L 138.763636 153.179378 
L 137.681455 154.009386 
L 136.599273 156.328909 
L 135.517091 157.621327 
L 134.434909 156.505809 
L 133.352727 158.81465 
L 132.270545 161.421384 
L 131.188364 159.742055 
L 130.106182 160.903076 
L 129.024 163.421761 
L 127.941818 165.254051 
L 126.859636 169.615707 
L 125.777455 168.000494 
L 124.695273 170.826518 
L 123.613091 172.3871 
L 122.530909 177.058366 
L 121.448727 175.204764 
L 120.366545 177.683127 
L 119.284364 181.195011 
L 118.202182 183.210673 
L 117.12 183.323696 
L 116.037818 185.603401 
L 114.955636 186.186671 
L 113.873455 186.415948 
L 112.791273 187.018641 
L 111.709091 188.053239 
L 110.626909 191.767275 
L 109.544727 191.44911 
L 108.462545 190.066909 
L 107.380364 194.931449 
L 106.298182 195.555057 
L 105.216 196.184269 
L 104.133818 196.208987 
L 103.051636 197.413023 
L 101.969455 201.786637 
L 100.887273 205.569767 
L 99.805091 208.478721 
L 98.722909 207.234961 
L 97.640727 213.236591 
L 96.558545 215.239453 
L 95.476364 220.367903 
L 94.394182 220.307571 
L 93.312 229.43129 
L 92.229818 232.686965 
L 91.147636 231.640355 
L 90.065455 229.372077 
L 88.983273 231.958592 
L 87.901091 233.286333 
L 86.818909 234.307375 
L 85.736727 234.753294 
L 84.654545 235.846084 
L 83.572364 241.945697 
L 82.490182 247.437206 
L 81.408 253.848474 
L 80.325818 254.8042 
L 79.243636 271.956303 
L 78.161455 281.12103 
L 77.079273 297.752305 
L 75.997091 387.21843 
L 74.914909 478.484981 
L 73.832727 605.114149 
z
" style="fill:#2ca02c;fill-opacity:0.1;"/>
   </g>
   <g id="matplotlib.axis_1">
    <g id="xtick_1">
     <g id="line2d_1">
      <defs>
       <path d="M 0 0 
L 0 3.5 
" id="m560ed044d3" style="stroke:#000000;stroke-width:0.8;"/>
      </defs>
      <g>
       <use style="stroke:#000000;stroke-width:0.8;" x="73.832727" xlink:href="#m560ed044d3" y="307.584"/>
      </g>
     </g>
     <g id="text_1">
      <!-- 0 -->
      <defs>
       <path d="M 31.78125 66.40625 
Q 24.171875 66.40625 20.328125 58.90625 
Q 16.5 51.421875 16.5 36.375 
Q 16.5 21.390625 20.328125 13.890625 
Q 24.171875 6.390625 31.78125 6.390625 
Q 39.453125 6.390625 43.28125 13.890625 
Q 47.125 21.390625 47.125 36.375 
Q 47.125 51.421875 43.28125 58.90625 
Q 39.453125 66.40625 31.78125 66.40625 
z
M 31.78125 74.21875 
Q 44.046875 74.21875 50.515625 64.515625 
Q 56.984375 54.828125 56.984375 36.375 
Q 56.984375 17.96875 50.515625 8.265625 
Q 44.046875 -1.421875 31.78125 -1.421875 
Q 19.53125 -1.421875 13.0625 8.265625 
Q 6.59375 17.96875 6.59375 36.375 
Q 6.59375 54.828125 13.0625 64.515625 
Q 19.53125 74.21875 31.78125 74.21875 
z
" id="DejaVuSans-30"/>
      </defs>
      <g transform="translate(70.651477 322.182437)scale(0.1 -0.1)">
       <use xlink:href="#DejaVuSans-30"/>
      </g>
     </g>
    </g>
    <g id="xtick_2">
     <g id="line2d_2">
      <g>
       <use style="stroke:#000000;stroke-width:0.8;" x="127.941818" xlink:href="#m560ed044d3" y="307.584"/>
      </g>
     </g>
     <g id="text_2">
      <!-- 50 -->
      <defs>
       <path d="M 10.796875 72.90625 
L 49.515625 72.90625 
L 49.515625 64.59375 
L 19.828125 64.59375 
L 19.828125 46.734375 
Q 21.96875 47.46875 24.109375 47.828125 
Q 26.265625 48.1875 28.421875 48.1875 
Q 40.625 48.1875 47.75 41.5 
Q 54.890625 34.8125 54.890625 23.390625 
Q 54.890625 11.625 47.5625 5.09375 
Q 40.234375 -1.421875 26.90625 -1.421875 
Q 22.3125 -1.421875 17.546875 -0.640625 
Q 12.796875 0.140625 7.71875 1.703125 
L 7.71875 11.625 
Q 12.109375 9.234375 16.796875 8.0625 
Q 21.484375 6.890625 26.703125 6.890625 
Q 35.15625 6.890625 40.078125 11.328125 
Q 45.015625 15.765625 45.015625 23.390625 
Q 45.015625 31 40.078125 35.4375 
Q 35.15625 39.890625 26.703125 39.890625 
Q 22.75 39.890625 18.8125 39.015625 
Q 14.890625 38.140625 10.796875 36.28125 
z
" id="DejaVuSans-35"/>
      </defs>
      <g transform="translate(121.579318 322.182437)scale(0.1 -0.1)">
       <use xlink:href="#DejaVuSans-35"/>
       <use x="63.623047" xlink:href="#DejaVuSans-30"/>
      </g>
     </g>
    </g>
    <g id="xtick_3">
     <g id="line2d_3">
      <g>
       <use style="stroke:#000000;stroke-width:0.8;" x="182.050909" xlink:href="#m560ed044d3" y="307.584"/>
      </g>
     </g>
     <g id="text_3">
      <!-- 100 -->
      <defs>
       <path d="M 12.40625 8.296875 
L 28.515625 8.296875 
L 28.515625 63.921875 
L 10.984375 60.40625 
L 10.984375 69.390625 
L 28.421875 72.90625 
L 38.28125 72.90625 
L 38.28125 8.296875 
L 54.390625 8.296875 
L 54.390625 0 
L 12.40625 0 
z
" id="DejaVuSans-31"/>
      </defs>
      <g transform="translate(172.507159 322.182437)scale(0.1 -0.1)">
       <use xlink:href="#DejaVuSans-31"/>
       <use x="63.623047" xlink:href="#DejaVuSans-30"/>
       <use x="127.246094" xlink:href="#DejaVuSans-30"/>
      </g>
     </g>
    </g>
    <g id="xtick_4">
     <g id="line2d_4">
      <g>
       <use style="stroke:#000000;stroke-width:0.8;" x="236.16" xlink:href="#m560ed044d3" y="307.584"/>
      </g>
     </g>
     <g id="text_4">
      <!-- 150 -->
      <g transform="translate(226.61625 322.182437)scale(0.1 -0.1)">
       <use xlink:href="#DejaVuSans-31"/>
       <use x="63.623047" xlink:href="#DejaVuSans-35"/>
       <use x="127.246094" xlink:href="#DejaVuSans-30"/>
      </g>
     </g>
    </g>
    <g id="xtick_5">
     <g id="line2d_5">
      <g>
       <use style="stroke:#000000;stroke-width:0.8;" x="290.269091" xlink:href="#m560ed044d3" y="307.584"/>
      </g>
     </g>
     <g id="text_5">
      <!-- 200 -->
      <defs>
       <path d="M 19.1875 8.296875 
L 53.609375 8.296875 
L 53.609375 0 
L 7.328125 0 
L 7.328125 8.296875 
Q 12.9375 14.109375 22.625 23.890625 
Q 32.328125 33.6875 34.8125 36.53125 
Q 39.546875 41.84375 41.421875 45.53125 
Q 43.3125 49.21875 43.3125 52.78125 
Q 43.3125 58.59375 39.234375 62.25 
Q 35.15625 65.921875 28.609375 65.921875 
Q 23.96875 65.921875 18.8125 64.3125 
Q 13.671875 62.703125 7.8125 59.421875 
L 7.8125 69.390625 
Q 13.765625 71.78125 18.9375 73 
Q 24.125 74.21875 28.421875 74.21875 
Q 39.75 74.21875 46.484375 68.546875 
Q 53.21875 62.890625 53.21875 53.421875 
Q 53.21875 48.921875 51.53125 44.890625 
Q 49.859375 40.875 45.40625 35.40625 
Q 44.1875 33.984375 37.640625 27.21875 
Q 31.109375 20.453125 19.1875 8.296875 
z
" id="DejaVuSans-32"/>
      </defs>
      <g transform="translate(280.725341 322.182437)scale(0.1 -0.1)">
       <use xlink:href="#DejaVuSans-32"/>
       <use x="63.623047" xlink:href="#DejaVuSans-30"/>
       <use x="127.246094" xlink:href="#DejaVuSans-30"/>
      </g>
     </g>
    </g>
    <g id="xtick_6">
     <g id="line2d_6">
      <g>
       <use style="stroke:#000000;stroke-width:0.8;" x="344.378182" xlink:href="#m560ed044d3" y="307.584"/>
      </g>
     </g>
     <g id="text_6">
      <!-- 250 -->
      <g transform="translate(334.834432 322.182437)scale(0.1 -0.1)">
       <use xlink:href="#DejaVuSans-32"/>
       <use x="63.623047" xlink:href="#DejaVuSans-35"/>
       <use x="127.246094" xlink:href="#DejaVuSans-30"/>
      </g>
     </g>
    </g>
    <g id="xtick_7">
     <g id="line2d_7">
      <g>
       <use style="stroke:#000000;stroke-width:0.8;" x="398.487273" xlink:href="#m560ed044d3" y="307.584"/>
      </g>
     </g>
     <g id="text_7">
      <!-- 300 -->
      <defs>
       <path d="M 40.578125 39.3125 
Q 47.65625 37.796875 51.625 33 
Q 55.609375 28.21875 55.609375 21.1875 
Q 55.609375 10.40625 48.1875 4.484375 
Q 40.765625 -1.421875 27.09375 -1.421875 
Q 22.515625 -1.421875 17.65625 -0.515625 
Q 12.796875 0.390625 7.625 2.203125 
L 7.625 11.71875 
Q 11.71875 9.328125 16.59375 8.109375 
Q 21.484375 6.890625 26.8125 6.890625 
Q 36.078125 6.890625 40.9375 10.546875 
Q 45.796875 14.203125 45.796875 21.1875 
Q 45.796875 27.640625 41.28125 31.265625 
Q 36.765625 34.90625 28.71875 34.90625 
L 20.21875 34.90625 
L 20.21875 43.015625 
L 29.109375 43.015625 
Q 36.375 43.015625 40.234375 45.921875 
Q 44.09375 48.828125 44.09375 54.296875 
Q 44.09375 59.90625 40.109375 62.90625 
Q 36.140625 65.921875 28.71875 65.921875 
Q 24.65625 65.921875 20.015625 65.03125 
Q 15.375 64.15625 9.8125 62.3125 
L 9.8125 71.09375 
Q 15.4375 72.65625 20.34375 73.4375 
Q 25.25 74.21875 29.59375 74.21875 
Q 40.828125 74.21875 47.359375 69.109375 
Q 53.90625 64.015625 53.90625 55.328125 
Q 53.90625 49.265625 50.4375 45.09375 
Q 46.96875 40.921875 40.578125 39.3125 
z
" id="DejaVuSans-33"/>
      </defs>
      <g transform="translate(388.943523 322.182437)scale(0.1 -0.1)">
       <use xlink:href="#DejaVuSans-33"/>
       <use x="63.623047" xlink:href="#DejaVuSans-30"/>
       <use x="127.246094" xlink:href="#DejaVuSans-30"/>
      </g>
     </g>
    </g>
    <g id="text_8">
     <!-- Episode during training -->
     <defs>
      <path d="M 9.8125 72.90625 
L 55.90625 72.90625 
L 55.90625 64.59375 
L 19.671875 64.59375 
L 19.671875 43.015625 
L 54.390625 43.015625 
L 54.390625 34.71875 
L 19.671875 34.71875 
L 19.671875 8.296875 
L 56.78125 8.296875 
L 56.78125 0 
L 9.8125 0 
z
" id="DejaVuSans-45"/>
      <path d="M 18.109375 8.203125 
L 18.109375 -20.796875 
L 9.078125 -20.796875 
L 9.078125 54.6875 
L 18.109375 54.6875 
L 18.109375 46.390625 
Q 20.953125 51.265625 25.265625 53.625 
Q 29.59375 56 35.59375 56 
Q 45.5625 56 51.78125 48.09375 
Q 58.015625 40.1875 58.015625 27.296875 
Q 58.015625 14.40625 51.78125 6.484375 
Q 45.5625 -1.421875 35.59375 -1.421875 
Q 29.59375 -1.421875 25.265625 0.953125 
Q 20.953125 3.328125 18.109375 8.203125 
z
M 48.6875 27.296875 
Q 48.6875 37.203125 44.609375 42.84375 
Q 40.53125 48.484375 33.40625 48.484375 
Q 26.265625 48.484375 22.1875 42.84375 
Q 18.109375 37.203125 18.109375 27.296875 
Q 18.109375 17.390625 22.1875 11.75 
Q 26.265625 6.109375 33.40625 6.109375 
Q 40.53125 6.109375 44.609375 11.75 
Q 48.6875 17.390625 48.6875 27.296875 
z
" id="DejaVuSans-70"/>
      <path d="M 9.421875 54.6875 
L 18.40625 54.6875 
L 18.40625 0 
L 9.421875 0 
z
M 9.421875 75.984375 
L 18.40625 75.984375 
L 18.40625 64.59375 
L 9.421875 64.59375 
z
" id="DejaVuSans-69"/>
      <path d="M 44.28125 53.078125 
L 44.28125 44.578125 
Q 40.484375 46.53125 36.375 47.5 
Q 32.28125 48.484375 27.875 48.484375 
Q 21.1875 48.484375 17.84375 46.4375 
Q 14.5 44.390625 14.5 40.28125 
Q 14.5 37.15625 16.890625 35.375 
Q 19.28125 33.59375 26.515625 31.984375 
L 29.59375 31.296875 
Q 39.15625 29.25 43.1875 25.515625 
Q 47.21875 21.78125 47.21875 15.09375 
Q 47.21875 7.46875 41.1875 3.015625 
Q 35.15625 -1.421875 24.609375 -1.421875 
Q 20.21875 -1.421875 15.453125 -0.5625 
Q 10.6875 0.296875 5.421875 2 
L 5.421875 11.28125 
Q 10.40625 8.6875 15.234375 7.390625 
Q 20.0625 6.109375 24.8125 6.109375 
Q 31.15625 6.109375 34.5625 8.28125 
Q 37.984375 10.453125 37.984375 14.40625 
Q 37.984375 18.0625 35.515625 20.015625 
Q 33.0625 21.96875 24.703125 23.78125 
L 21.578125 24.515625 
Q 13.234375 26.265625 9.515625 29.90625 
Q 5.8125 33.546875 5.8125 39.890625 
Q 5.8125 47.609375 11.28125 51.796875 
Q 16.75 56 26.8125 56 
Q 31.78125 56 36.171875 55.265625 
Q 40.578125 54.546875 44.28125 53.078125 
z
" id="DejaVuSans-73"/>
      <path d="M 30.609375 48.390625 
Q 23.390625 48.390625 19.1875 42.75 
Q 14.984375 37.109375 14.984375 27.296875 
Q 14.984375 17.484375 19.15625 11.84375 
Q 23.34375 6.203125 30.609375 6.203125 
Q 37.796875 6.203125 41.984375 11.859375 
Q 46.1875 17.53125 46.1875 27.296875 
Q 46.1875 37.015625 41.984375 42.703125 
Q 37.796875 48.390625 30.609375 48.390625 
z
M 30.609375 56 
Q 42.328125 56 49.015625 48.375 
Q 55.71875 40.765625 55.71875 27.296875 
Q 55.71875 13.875 49.015625 6.21875 
Q 42.328125 -1.421875 30.609375 -1.421875 
Q 18.84375 -1.421875 12.171875 6.21875 
Q 5.515625 13.875 5.515625 27.296875 
Q 5.515625 40.765625 12.171875 48.375 
Q 18.84375 56 30.609375 56 
z
" id="DejaVuSans-6f"/>
      <path d="M 45.40625 46.390625 
L 45.40625 75.984375 
L 54.390625 75.984375 
L 54.390625 0 
L 45.40625 0 
L 45.40625 8.203125 
Q 42.578125 3.328125 38.25 0.953125 
Q 33.9375 -1.421875 27.875 -1.421875 
Q 17.96875 -1.421875 11.734375 6.484375 
Q 5.515625 14.40625 5.515625 27.296875 
Q 5.515625 40.1875 11.734375 48.09375 
Q 17.96875 56 27.875 56 
Q 33.9375 56 38.25 53.625 
Q 42.578125 51.265625 45.40625 46.390625 
z
M 14.796875 27.296875 
Q 14.796875 17.390625 18.875 11.75 
Q 22.953125 6.109375 30.078125 6.109375 
Q 37.203125 6.109375 41.296875 11.75 
Q 45.40625 17.390625 45.40625 27.296875 
Q 45.40625 37.203125 41.296875 42.84375 
Q 37.203125 48.484375 30.078125 48.484375 
Q 22.953125 48.484375 18.875 42.84375 
Q 14.796875 37.203125 14.796875 27.296875 
z
" id="DejaVuSans-64"/>
      <path d="M 56.203125 29.59375 
L 56.203125 25.203125 
L 14.890625 25.203125 
Q 15.484375 15.921875 20.484375 11.0625 
Q 25.484375 6.203125 34.421875 6.203125 
Q 39.59375 6.203125 44.453125 7.46875 
Q 49.3125 8.734375 54.109375 11.28125 
L 54.109375 2.78125 
Q 49.265625 0.734375 44.1875 -0.34375 
Q 39.109375 -1.421875 33.890625 -1.421875 
Q 20.796875 -1.421875 13.15625 6.1875 
Q 5.515625 13.8125 5.515625 26.8125 
Q 5.515625 40.234375 12.765625 48.109375 
Q 20.015625 56 32.328125 56 
Q 43.359375 56 49.78125 48.890625 
Q 56.203125 41.796875 56.203125 29.59375 
z
M 47.21875 32.234375 
Q 47.125 39.59375 43.09375 43.984375 
Q 39.0625 48.390625 32.421875 48.390625 
Q 24.90625 48.390625 20.390625 44.140625 
Q 15.875 39.890625 15.1875 32.171875 
z
" id="DejaVuSans-65"/>
      <path id="DejaVuSans-20"/>
      <path d="M 8.5 21.578125 
L 8.5 54.6875 
L 17.484375 54.6875 
L 17.484375 21.921875 
Q 17.484375 14.15625 20.5 10.265625 
Q 23.53125 6.390625 29.59375 6.390625 
Q 36.859375 6.390625 41.078125 11.03125 
Q 45.3125 15.671875 45.3125 23.6875 
L 45.3125 54.6875 
L 54.296875 54.6875 
L 54.296875 0 
L 45.3125 0 
L 45.3125 8.40625 
Q 42.046875 3.421875 37.71875 1 
Q 33.40625 -1.421875 27.6875 -1.421875 
Q 18.265625 -1.421875 13.375 4.4375 
Q 8.5 10.296875 8.5 21.578125 
z
M 31.109375 56 
z
" id="DejaVuSans-75"/>
      <path d="M 41.109375 46.296875 
Q 39.59375 47.171875 37.8125 47.578125 
Q 36.03125 48 33.890625 48 
Q 26.265625 48 22.1875 43.046875 
Q 18.109375 38.09375 18.109375 28.8125 
L 18.109375 0 
L 9.078125 0 
L 9.078125 54.6875 
L 18.109375 54.6875 
L 18.109375 46.1875 
Q 20.953125 51.171875 25.484375 53.578125 
Q 30.03125 56 36.53125 56 
Q 37.453125 56 38.578125 55.875 
Q 39.703125 55.765625 41.0625 55.515625 
z
" id="DejaVuSans-72"/>
      <path d="M 54.890625 33.015625 
L 54.890625 0 
L 45.90625 0 
L 45.90625 32.71875 
Q 45.90625 40.484375 42.875 44.328125 
Q 39.84375 48.1875 33.796875 48.1875 
Q 26.515625 48.1875 22.3125 43.546875 
Q 18.109375 38.921875 18.109375 30.90625 
L 18.109375 0 
L 9.078125 0 
L 9.078125 54.6875 
L 18.109375 54.6875 
L 18.109375 46.1875 
Q 21.34375 51.125 25.703125 53.5625 
Q 30.078125 56 35.796875 56 
Q 45.21875 56 50.046875 50.171875 
Q 54.890625 44.34375 54.890625 33.015625 
z
" id="DejaVuSans-6e"/>
      <path d="M 45.40625 27.984375 
Q 45.40625 37.75 41.375 43.109375 
Q 37.359375 48.484375 30.078125 48.484375 
Q 22.859375 48.484375 18.828125 43.109375 
Q 14.796875 37.75 14.796875 27.984375 
Q 14.796875 18.265625 18.828125 12.890625 
Q 22.859375 7.515625 30.078125 7.515625 
Q 37.359375 7.515625 41.375 12.890625 
Q 45.40625 18.265625 45.40625 27.984375 
z
M 54.390625 6.78125 
Q 54.390625 -7.171875 48.1875 -13.984375 
Q 42 -20.796875 29.203125 -20.796875 
Q 24.46875 -20.796875 20.265625 -20.09375 
Q 16.0625 -19.390625 12.109375 -17.921875 
L 12.109375 -9.1875 
Q 16.0625 -11.328125 19.921875 -12.34375 
Q 23.78125 -13.375 27.78125 -13.375 
Q 36.625 -13.375 41.015625 -8.765625 
Q 45.40625 -4.15625 45.40625 5.171875 
L 45.40625 9.625 
Q 42.625 4.78125 38.28125 2.390625 
Q 33.9375 0 27.875 0 
Q 17.828125 0 11.671875 7.65625 
Q 5.515625 15.328125 5.515625 27.984375 
Q 5.515625 40.671875 11.671875 48.328125 
Q 17.828125 56 27.875 56 
Q 33.9375 56 38.28125 53.609375 
Q 42.625 51.21875 45.40625 46.390625 
L 45.40625 54.6875 
L 54.390625 54.6875 
z
" id="DejaVuSans-67"/>
      <path d="M 18.3125 70.21875 
L 18.3125 54.6875 
L 36.8125 54.6875 
L 36.8125 47.703125 
L 18.3125 47.703125 
L 18.3125 18.015625 
Q 18.3125 11.328125 20.140625 9.421875 
Q 21.96875 7.515625 27.59375 7.515625 
L 36.8125 7.515625 
L 36.8125 0 
L 27.59375 0 
Q 17.1875 0 13.234375 3.875 
Q 9.28125 7.765625 9.28125 18.015625 
L 9.28125 47.703125 
L 2.6875 47.703125 
L 2.6875 54.6875 
L 9.28125 54.6875 
L 9.28125 70.21875 
z
" id="DejaVuSans-74"/>
      <path d="M 34.28125 27.484375 
Q 23.390625 27.484375 19.1875 25 
Q 14.984375 22.515625 14.984375 16.5 
Q 14.984375 11.71875 18.140625 8.90625 
Q 21.296875 6.109375 26.703125 6.109375 
Q 34.1875 6.109375 38.703125 11.40625 
Q 43.21875 16.703125 43.21875 25.484375 
L 43.21875 27.484375 
z
M 52.203125 31.203125 
L 52.203125 0 
L 43.21875 0 
L 43.21875 8.296875 
Q 40.140625 3.328125 35.546875 0.953125 
Q 30.953125 -1.421875 24.3125 -1.421875 
Q 15.921875 -1.421875 10.953125 3.296875 
Q 6 8.015625 6 15.921875 
Q 6 25.140625 12.171875 29.828125 
Q 18.359375 34.515625 30.609375 34.515625 
L 43.21875 34.515625 
L 43.21875 35.40625 
Q 43.21875 41.609375 39.140625 45 
Q 35.0625 48.390625 27.6875 48.390625 
Q 23 48.390625 18.546875 47.265625 
Q 14.109375 46.140625 10.015625 43.890625 
L 10.015625 52.203125 
Q 14.9375 54.109375 19.578125 55.046875 
Q 24.21875 56 28.609375 56 
Q 40.484375 56 46.34375 49.84375 
Q 52.203125 43.703125 52.203125 31.203125 
z
" id="DejaVuSans-61"/>
     </defs>
     <g transform="translate(177.844375 335.860562)scale(0.1 -0.1)">
      <use xlink:href="#DejaVuSans-45"/>
      <use x="63.183594" xlink:href="#DejaVuSans-70"/>
      <use x="126.660156" xlink:href="#DejaVuSans-69"/>
      <use x="154.443359" xlink:href="#DejaVuSans-73"/>
      <use x="206.542969" xlink:href="#DejaVuSans-6f"/>
      <use x="267.724609" xlink:href="#DejaVuSans-64"/>
      <use x="331.201172" xlink:href="#DejaVuSans-65"/>
      <use x="392.724609" xlink:href="#DejaVuSans-20"/>
      <use x="424.511719" xlink:href="#DejaVuSans-64"/>
      <use x="487.988281" xlink:href="#DejaVuSans-75"/>
      <use x="551.367188" xlink:href="#DejaVuSans-72"/>
      <use x="592.480469" xlink:href="#DejaVuSans-69"/>
      <use x="620.263672" xlink:href="#DejaVuSans-6e"/>
      <use x="683.642578" xlink:href="#DejaVuSans-67"/>
      <use x="747.119141" xlink:href="#DejaVuSans-20"/>
      <use x="778.90625" xlink:href="#DejaVuSans-74"/>
      <use x="818.115234" xlink:href="#DejaVuSans-72"/>
      <use x="859.228516" xlink:href="#DejaVuSans-61"/>
      <use x="920.507812" xlink:href="#DejaVuSans-69"/>
      <use x="948.291016" xlink:href="#DejaVuSans-6e"/>
      <use x="1011.669922" xlink:href="#DejaVuSans-69"/>
      <use x="1039.453125" xlink:href="#DejaVuSans-6e"/>
      <use x="1102.832031" xlink:href="#DejaVuSans-67"/>
     </g>
    </g>
   </g>
   <g id="matplotlib.axis_2">
    <g id="ytick_1">
     <g id="line2d_8">
      <defs>
       <path d="M 0 0 
L -3.5 0 
" id="m5a1102230a" style="stroke:#000000;stroke-width:0.8;"/>
      </defs>
      <g>
       <use style="stroke:#000000;stroke-width:0.8;" x="57.6" xlink:href="#m5a1102230a" y="307.584"/>
      </g>
     </g>
     <g id="text_9">
      <!-- 1000 -->
      <defs>
       <path d="M 10.59375 35.5 
L 73.1875 35.5 
L 73.1875 27.203125 
L 10.59375 27.203125 
z
" id="DejaVuSans-2212"/>
      </defs>
      <g transform="translate(16.770313 311.383219)scale(0.1 -0.1)">
       <use xlink:href="#DejaVuSans-2212"/>
       <use x="83.789062" xlink:href="#DejaVuSans-31"/>
       <use x="147.412109" xlink:href="#DejaVuSans-30"/>
       <use x="211.035156" xlink:href="#DejaVuSans-30"/>
       <use x="274.658203" xlink:href="#DejaVuSans-30"/>
      </g>
     </g>
    </g>
    <g id="ytick_2">
     <g id="line2d_9">
      <g>
       <use style="stroke:#000000;stroke-width:0.8;" x="57.6" xlink:href="#m5a1102230a" y="254.3616"/>
      </g>
     </g>
     <g id="text_10">
      <!-- 800 -->
      <defs>
       <path d="M 31.78125 34.625 
Q 24.75 34.625 20.71875 30.859375 
Q 16.703125 27.09375 16.703125 20.515625 
Q 16.703125 13.921875 20.71875 10.15625 
Q 24.75 6.390625 31.78125 6.390625 
Q 38.8125 6.390625 42.859375 10.171875 
Q 46.921875 13.96875 46.921875 20.515625 
Q 46.921875 27.09375 42.890625 30.859375 
Q 38.875 34.625 31.78125 34.625 
z
M 21.921875 38.8125 
Q 15.578125 40.375 12.03125 44.71875 
Q 8.5 49.078125 8.5 55.328125 
Q 8.5 64.0625 14.71875 69.140625 
Q 20.953125 74.21875 31.78125 74.21875 
Q 42.671875 74.21875 48.875 69.140625 
Q 55.078125 64.0625 55.078125 55.328125 
Q 55.078125 49.078125 51.53125 44.71875 
Q 48 40.375 41.703125 38.8125 
Q 48.828125 37.15625 52.796875 32.3125 
Q 56.78125 27.484375 56.78125 20.515625 
Q 56.78125 9.90625 50.3125 4.234375 
Q 43.84375 -1.421875 31.78125 -1.421875 
Q 19.734375 -1.421875 13.25 4.234375 
Q 6.78125 9.90625 6.78125 20.515625 
Q 6.78125 27.484375 10.78125 32.3125 
Q 14.796875 37.15625 21.921875 38.8125 
z
M 18.3125 54.390625 
Q 18.3125 48.734375 21.84375 45.5625 
Q 25.390625 42.390625 31.78125 42.390625 
Q 38.140625 42.390625 41.71875 45.5625 
Q 45.3125 48.734375 45.3125 54.390625 
Q 45.3125 60.0625 41.71875 63.234375 
Q 38.140625 66.40625 31.78125 66.40625 
Q 25.390625 66.40625 21.84375 63.234375 
Q 18.3125 60.0625 18.3125 54.390625 
z
" id="DejaVuSans-38"/>
      </defs>
      <g transform="translate(23.132812 258.160819)scale(0.1 -0.1)">
       <use xlink:href="#DejaVuSans-2212"/>
       <use x="83.789062" xlink:href="#DejaVuSans-38"/>
       <use x="147.412109" xlink:href="#DejaVuSans-30"/>
       <use x="211.035156" xlink:href="#DejaVuSans-30"/>
      </g>
     </g>
    </g>
    <g id="ytick_3">
     <g id="line2d_10">
      <g>
       <use style="stroke:#000000;stroke-width:0.8;" x="57.6" xlink:href="#m5a1102230a" y="201.1392"/>
      </g>
     </g>
     <g id="text_11">
      <!-- 600 -->
      <defs>
       <path d="M 33.015625 40.375 
Q 26.375 40.375 22.484375 35.828125 
Q 18.609375 31.296875 18.609375 23.390625 
Q 18.609375 15.53125 22.484375 10.953125 
Q 26.375 6.390625 33.015625 6.390625 
Q 39.65625 6.390625 43.53125 10.953125 
Q 47.40625 15.53125 47.40625 23.390625 
Q 47.40625 31.296875 43.53125 35.828125 
Q 39.65625 40.375 33.015625 40.375 
z
M 52.59375 71.296875 
L 52.59375 62.3125 
Q 48.875 64.0625 45.09375 64.984375 
Q 41.3125 65.921875 37.59375 65.921875 
Q 27.828125 65.921875 22.671875 59.328125 
Q 17.53125 52.734375 16.796875 39.40625 
Q 19.671875 43.65625 24.015625 45.921875 
Q 28.375 48.1875 33.59375 48.1875 
Q 44.578125 48.1875 50.953125 41.515625 
Q 57.328125 34.859375 57.328125 23.390625 
Q 57.328125 12.15625 50.6875 5.359375 
Q 44.046875 -1.421875 33.015625 -1.421875 
Q 20.359375 -1.421875 13.671875 8.265625 
Q 6.984375 17.96875 6.984375 36.375 
Q 6.984375 53.65625 15.1875 63.9375 
Q 23.390625 74.21875 37.203125 74.21875 
Q 40.921875 74.21875 44.703125 73.484375 
Q 48.484375 72.75 52.59375 71.296875 
z
" id="DejaVuSans-36"/>
      </defs>
      <g transform="translate(23.132812 204.938419)scale(0.1 -0.1)">
       <use xlink:href="#DejaVuSans-2212"/>
       <use x="83.789062" xlink:href="#DejaVuSans-36"/>
       <use x="147.412109" xlink:href="#DejaVuSans-30"/>
       <use x="211.035156" xlink:href="#DejaVuSans-30"/>
      </g>
     </g>
    </g>
    <g id="ytick_4">
     <g id="line2d_11">
      <g>
       <use style="stroke:#000000;stroke-width:0.8;" x="57.6" xlink:href="#m5a1102230a" y="147.9168"/>
      </g>
     </g>
     <g id="text_12">
      <!-- 400 -->
      <defs>
       <path d="M 37.796875 64.3125 
L 12.890625 25.390625 
L 37.796875 25.390625 
z
M 35.203125 72.90625 
L 47.609375 72.90625 
L 47.609375 25.390625 
L 58.015625 25.390625 
L 58.015625 17.1875 
L 47.609375 17.1875 
L 47.609375 0 
L 37.796875 0 
L 37.796875 17.1875 
L 4.890625 17.1875 
L 4.890625 26.703125 
z
" id="DejaVuSans-34"/>
      </defs>
      <g transform="translate(23.132812 151.716019)scale(0.1 -0.1)">
       <use xlink:href="#DejaVuSans-2212"/>
       <use x="83.789062" xlink:href="#DejaVuSans-34"/>
       <use x="147.412109" xlink:href="#DejaVuSans-30"/>
       <use x="211.035156" xlink:href="#DejaVuSans-30"/>
      </g>
     </g>
    </g>
    <g id="ytick_5">
     <g id="line2d_12">
      <g>
       <use style="stroke:#000000;stroke-width:0.8;" x="57.6" xlink:href="#m5a1102230a" y="94.6944"/>
      </g>
     </g>
     <g id="text_13">
      <!-- 200 -->
      <g transform="translate(23.132812 98.493619)scale(0.1 -0.1)">
       <use xlink:href="#DejaVuSans-2212"/>
       <use x="83.789062" xlink:href="#DejaVuSans-32"/>
       <use x="147.412109" xlink:href="#DejaVuSans-30"/>
       <use x="211.035156" xlink:href="#DejaVuSans-30"/>
      </g>
     </g>
    </g>
    <g id="ytick_6">
     <g id="line2d_13">
      <g>
       <use style="stroke:#000000;stroke-width:0.8;" x="57.6" xlink:href="#m5a1102230a" y="41.472"/>
      </g>
     </g>
     <g id="text_14">
      <!-- 0 -->
      <g transform="translate(44.2375 45.271219)scale(0.1 -0.1)">
       <use xlink:href="#DejaVuSans-30"/>
      </g>
     </g>
    </g>
    <g id="ytick_7">
     <g id="line2d_14">
      <g>
       <use style="stroke:#000000;stroke-width:0.8;" x="57.6" xlink:href="#m5a1102230a" y="59.301504"/>
      </g>
     </g>
     <g id="text_15">
      <!-- 67 -->
      <defs>
       <path d="M 8.203125 72.90625 
L 55.078125 72.90625 
L 55.078125 68.703125 
L 28.609375 0 
L 18.3125 0 
L 43.21875 64.59375 
L 8.203125 64.59375 
z
" id="DejaVuSans-37"/>
      </defs>
      <g transform="translate(29.495313 63.100723)scale(0.1 -0.1)">
       <use xlink:href="#DejaVuSans-2212"/>
       <use x="83.789062" xlink:href="#DejaVuSans-36"/>
       <use x="147.412109" xlink:href="#DejaVuSans-37"/>
      </g>
     </g>
    </g>
    <g id="text_16">
     <!-- Total Return in episode -->
     <defs>
      <path d="M -0.296875 72.90625 
L 61.375 72.90625 
L 61.375 64.59375 
L 35.5 64.59375 
L 35.5 0 
L 25.59375 0 
L 25.59375 64.59375 
L -0.296875 64.59375 
z
" id="DejaVuSans-54"/>
      <path d="M 9.421875 75.984375 
L 18.40625 75.984375 
L 18.40625 0 
L 9.421875 0 
z
" id="DejaVuSans-6c"/>
      <path d="M 44.390625 34.1875 
Q 47.5625 33.109375 50.5625 29.59375 
Q 53.5625 26.078125 56.59375 19.921875 
L 66.609375 0 
L 56 0 
L 46.6875 18.703125 
Q 43.0625 26.03125 39.671875 28.421875 
Q 36.28125 30.8125 30.421875 30.8125 
L 19.671875 30.8125 
L 19.671875 0 
L 9.8125 0 
L 9.8125 72.90625 
L 32.078125 72.90625 
Q 44.578125 72.90625 50.734375 67.671875 
Q 56.890625 62.453125 56.890625 51.90625 
Q 56.890625 45.015625 53.6875 40.46875 
Q 50.484375 35.9375 44.390625 34.1875 
z
M 19.671875 64.796875 
L 19.671875 38.921875 
L 32.078125 38.921875 
Q 39.203125 38.921875 42.84375 42.21875 
Q 46.484375 45.515625 46.484375 51.90625 
Q 46.484375 58.296875 42.84375 61.546875 
Q 39.203125 64.796875 32.078125 64.796875 
z
" id="DejaVuSans-52"/>
     </defs>
     <g transform="translate(10.690625 232.820969)rotate(-90)scale(0.1 -0.1)">
      <use xlink:href="#DejaVuSans-54"/>
      <use x="60.818359" xlink:href="#DejaVuSans-6f"/>
      <use x="122" xlink:href="#DejaVuSans-74"/>
      <use x="161.208984" xlink:href="#DejaVuSans-61"/>
      <use x="222.488281" xlink:href="#DejaVuSans-6c"/>
      <use x="250.271484" xlink:href="#DejaVuSans-20"/>
      <use x="282.058594" xlink:href="#DejaVuSans-52"/>
      <use x="351.478516" xlink:href="#DejaVuSans-65"/>
      <use x="413.001953" xlink:href="#DejaVuSans-74"/>
      <use x="452.210938" xlink:href="#DejaVuSans-75"/>
      <use x="515.589844" xlink:href="#DejaVuSans-72"/>
      <use x="556.6875" xlink:href="#DejaVuSans-6e"/>
      <use x="620.066406" xlink:href="#DejaVuSans-20"/>
      <use x="651.853516" xlink:href="#DejaVuSans-69"/>
      <use x="679.636719" xlink:href="#DejaVuSans-6e"/>
      <use x="743.015625" xlink:href="#DejaVuSans-20"/>
      <use x="774.802734" xlink:href="#DejaVuSans-65"/>
      <use x="836.326172" xlink:href="#DejaVuSans-70"/>
      <use x="899.802734" xlink:href="#DejaVuSans-69"/>
      <use x="927.585938" xlink:href="#DejaVuSans-73"/>
      <use x="979.685547" xlink:href="#DejaVuSans-6f"/>
      <use x="1040.867188" xlink:href="#DejaVuSans-64"/>
      <use x="1104.34375" xlink:href="#DejaVuSans-65"/>
     </g>
    </g>
   </g>
   <g id="LineCollection_1">
    <path clip-path="url(#pc928254848)" d="M 73.832727 59.301504 
L 398.487273 59.301504 
" style="fill:none;stroke:#000000;stroke-dasharray:1.85,0.8;stroke-dashoffset:0;stroke-width:0.5;"/>
   </g>
   <g id="line2d_15">
    <path clip-path="url(#pc928254848)" d="M 95.134217 346.6 
L 95.476364 337.181568 
L 96.558545 325.939814 
L 97.640727 313.169395 
L 99.805091 302.757024 
L 100.887273 303.391258 
L 101.969455 298.794912 
L 103.051636 247.33033 
L 104.133818 241.053043 
L 105.216 240.137914 
L 106.298182 288.330797 
L 107.380364 268.194989 
L 108.462545 259.00969 
L 109.544727 252.117389 
L 110.626909 250.999718 
L 111.709091 245.443891 
L 112.791273 241.585267 
L 113.873455 238.887187 
L 114.955636 232.504934 
L 116.037818 231.869222 
L 117.12 229.188883 
L 118.202182 227.312794 
L 119.284364 224.922221 
L 120.366545 218.650848 
L 121.448727 216.359328 
L 122.530909 203.720486 
L 123.613091 203.488378 
L 124.695273 203.408544 
L 125.777455 197.404762 
L 126.859636 195.984019 
L 127.941818 196.044634 
L 129.024 195.471014 
L 130.106182 192.252538 
L 131.188364 189.390355 
L 132.270545 188.908397 
L 133.352727 213.633158 
L 134.434909 214.67543 
L 135.517091 212.318861 
L 136.599273 211.449562 
L 137.681455 213.683424 
L 138.763636 157.864954 
L 139.845818 213.497146 
L 142.010182 241.904602 
L 143.092364 266.397254 
L 144.174545 265.502822 
L 145.256727 274.129286 
L 146.338909 304.062451 
L 147.421091 304.213248 
L 148.503273 302.795462 
L 149.585455 311.569766 
L 151.749818 319.798541 
L 152.832 319.615219 
L 153.914182 327.532051 
L 154.996364 326.333069 
L 156.078545 324.239654 
L 157.027946 346.6 
M 199.37704 346.6 
L 200.448 300.5616 
L 201.530182 301.62457 
L 203.694545 284.371642 
L 204.776727 283.228838 
L 205.858909 279.476659 
L 206.941091 264.952858 
L 208.023273 261.595411 
L 209.105455 247.945344 
L 210.187636 236.880998 
L 211.269818 229.181491 
L 212.352 226.850054 
L 213.434182 221.90185 
L 214.516364 196.764614 
L 215.598545 194.68007 
L 216.680727 193.006522 
L 217.762909 188.130758 
L 218.845091 187.499482 
L 219.927273 186.123091 
L 221.009455 185.373542 
L 222.091636 182.17872 
L 223.173818 183.736954 
L 224.256 177.260083 
L 225.338182 176.075885 
L 227.502545 167.864851 
L 228.584727 168.228538 
L 229.666909 163.989965 
L 230.749091 161.47225 
L 231.831273 161.473728 
L 232.913455 158.924966 
L 233.995636 154.582906 
L 236.16 148.743226 
L 237.242182 147.743827 
L 238.324364 145.823386 
L 239.406545 142.239744 
L 240.488727 141.584813 
L 241.570909 140.397658 
L 242.653091 138.320506 
L 243.735273 136.488768 
L 245.899636 130.59143 
L 246.981818 133.34569 
L 248.064 129.757613 
L 249.146182 128.121024 
L 250.228364 124.998643 
L 251.310545 125.801414 
L 252.392727 125.794022 
L 253.474909 123.323616 
L 254.557091 123.159514 
L 255.639273 119.810938 
L 256.721455 120.471782 
L 257.803636 119.389594 
L 258.885818 119.17079 
L 259.968 116.837875 
L 261.050182 116.605766 
L 262.132364 115.621152 
L 263.214545 114.413299 
L 264.296727 112.543123 
L 265.378909 112.418938 
L 266.461091 110.680339 
L 267.543273 109.828189 
L 269.707636 110.792698 
L 270.789818 108.417796 
L 271.872 107.907452 
L 272.954182 107.725313 
L 274.036364 107.422833 
L 275.118545 105.848337 
L 276.200727 104.580165 
L 277.282909 104.077213 
L 278.365091 105.421375 
L 279.447273 101.536435 
L 280.529455 101.725079 
L 281.611636 100.832125 
L 282.693818 101.265592 
L 283.776 99.092049 
L 284.858182 98.28159 
L 285.940364 97.163624 
L 287.022545 97.059249 
L 288.104727 96.498344 
L 289.186909 94.257089 
L 290.269091 94.423557 
L 291.351273 94.272465 
L 292.433455 93.581165 
L 293.515636 92.751487 
L 294.597818 93.160708 
L 295.68 93.430368 
L 296.762182 91.816251 
L 297.844364 90.57676 
L 301.090909 88.874087 
L 302.173091 86.182216 
L 303.255273 87.055064 
L 304.337455 86.024915 
L 305.419636 86.381505 
L 306.501818 87.24282 
L 307.584 86.958968 
L 308.666182 86.194339 
L 309.748364 85.149406 
L 310.830545 83.355811 
L 311.912727 87.008642 
L 312.994909 86.11628 
L 314.077091 85.947742 
L 315.159273 83.843683 
L 316.241455 83.623697 
L 316.241455 83.623697 
" style="fill:none;stroke:#1f77b4;stroke-linecap:square;stroke-width:1.5;"/>
   </g>
   <g id="line2d_16">
    <path clip-path="url(#pc928254848)" d="M 97.249966 346.6 
L 97.640727 244.757914 
L 98.722909 225.999974 
L 99.805091 212.706202 
L 100.887273 206.810342 
L 101.969455 207.78313 
L 103.051636 207.437184 
L 104.133818 206.795558 
L 105.216 189.835354 
L 106.298182 185.299622 
L 107.380364 167.922509 
L 108.462545 168.159053 
L 109.544727 169.752768 
L 110.626909 157.411085 
L 111.709091 162.54409 
L 112.791273 157.561882 
L 113.873455 176.142413 
L 114.955636 221.085773 
L 116.037818 224.069184 
L 117.12 224.04553 
L 118.202182 239.616038 
L 119.284364 237.824218 
L 120.366545 257.504678 
L 121.448727 263.113728 
L 122.530909 271.188749 
L 123.613091 275.804314 
L 124.695273 277.12896 
L 125.777455 275.550029 
L 126.859636 279.287424 
L 127.941818 287.309222 
L 129.024 285.668198 
L 129.286895 346.6 
M 161.712075 346.6 
L 162.571636 144.132096 
L 163.653818 132.896256 
L 164.736 132.429082 
L 165.818182 131.281843 
L 166.900364 131.104435 
L 167.982545 136.462157 
L 169.064727 136.104384 
L 170.146909 209.273357 
L 171.229091 215.651174 
L 172.311273 259.148659 
L 173.393455 251.301312 
L 174.475636 250.987891 
L 175.557818 250.866662 
L 176.64 333.089357 
L 177.722182 341.708429 
L 178.804364 345.277286 
L 178.962932 346.6 
M 219.814438 346.6 
L 219.927273 338.784154 
L 221.009455 303.67511 
L 222.091636 302.560397 
L 223.173818 300.398976 
L 224.256 302.616576 
L 225.338182 300.620736 
L 226.420364 296.540352 
L 227.502545 297.888653 
L 228.584727 251.975462 
L 229.666909 153.484454 
L 230.749091 111.595469 
L 231.831273 108.67415 
L 232.913455 106.820237 
L 233.995636 102.89065 
L 235.077818 101.94743 
L 236.16 98.836877 
L 237.242182 99.836275 
L 238.324364 98.493888 
L 239.406545 96.338381 
L 240.488727 96.332467 
L 241.570909 97.14263 
L 242.653091 94.830413 
L 243.735273 93.375667 
L 244.817455 93.15095 
L 245.899636 90.392256 
L 246.981818 90.575578 
L 248.064 87.465024 
L 249.146182 84.913306 
L 250.228364 82.973645 
L 252.392727 79.833523 
L 253.474909 78.009178 
L 254.557091 77.814029 
L 255.639273 76.07543 
L 256.721455 73.251686 
L 257.803636 72.077837 
L 258.885818 72.00983 
L 259.968 71.717107 
L 262.132364 71.468736 
L 263.214545 70.031731 
L 264.296727 68.996851 
L 266.461091 68.919974 
L 267.543273 66.89161 
L 268.625455 66.799949 
L 269.707636 68.136422 
L 271.872 67.964928 
L 272.954182 66.675763 
L 274.036364 65.676365 
L 278.365091 65.596531 
L 279.447273 64.795238 
L 280.529455 64.786368 
L 281.611636 64.641485 
L 283.776 64.656269 
L 288.104727 64.529126 
L 291.351273 64.467034 
L 292.433455 63.109862 
L 298.926545 62.970893 
L 301.090909 62.979763 
L 302.173091 60.339341 
L 307.584 60.297946 
L 319.488 60.207763 
L 322.734545 60.153062 
L 322.734545 60.153062 
" style="fill:none;stroke:#ff7f0e;stroke-linecap:square;stroke-width:1.5;"/>
   </g>
   <g id="line2d_17">
    <path clip-path="url(#pc928254848)" d="M 78.532113 346.6 
L 80.325818 308.90569 
L 81.408 305.901581 
L 82.490182 298.33513 
L 83.572364 293.589466 
L 84.654545 284.044915 
L 85.736727 282.705485 
L 86.818909 280.966886 
L 87.901091 282.888806 
L 88.983273 281.371968 
L 90.065455 277.318195 
L 91.147636 279.343603 
L 92.229818 278.923738 
L 93.312 275.458368 
L 94.394182 263.320704 
L 95.476364 264.417677 
L 96.558545 258.539558 
L 97.640727 256.342656 
L 98.722909 248.722982 
L 99.805091 250.266432 
L 100.887273 247.566874 
L 101.969455 242.676326 
L 103.051636 234.908813 
L 104.133818 236.263027 
L 105.216 235.239974 
L 106.298182 233.054899 
L 107.380364 233.205696 
L 108.462545 227.771098 
L 110.626909 230.544576 
L 111.709091 224.843866 
L 112.791273 224.737421 
L 114.955636 222.667661 
L 116.037818 221.257267 
L 117.12 218.07575 
L 118.202182 217.620403 
L 119.284364 217.717978 
L 120.366545 211.41408 
L 121.448727 209.314752 
L 122.530909 212.2272 
L 123.613091 206.754163 
L 124.695273 205.290547 
L 125.777455 201.473318 
L 126.859636 203.998426 
L 127.941818 199.169971 
L 129.024 197.271706 
L 130.106182 194.808691 
L 131.188364 193.492915 
L 132.270545 196.216128 
L 133.352727 193.572749 
L 134.434909 191.23392 
L 135.517091 192.880858 
L 136.599273 189.175987 
L 137.681455 188.158848 
L 138.763636 187.502438 
L 140.928 184.149427 
L 142.010182 181.62432 
L 143.092364 178.428019 
L 144.174545 181.062528 
L 145.256727 176.946662 
L 146.338909 175.93248 
L 147.421091 175.435738 
L 148.503273 175.131187 
L 149.585455 175.944307 
L 150.667636 174.250061 
L 151.749818 171.154291 
L 153.914182 168.82729 
L 154.996364 167.502643 
L 156.078545 164.62272 
L 157.160727 162.301632 
L 158.242909 164.25312 
L 159.325091 160.471373 
L 160.407273 162.3312 
L 161.489455 162.047347 
L 162.571636 159.73513 
L 163.653818 160.462502 
L 164.736 153.141466 
L 165.818182 151.148582 
L 166.900364 151.225459 
L 167.982545 151.716288 
L 169.064727 146.524147 
L 170.146909 145.436045 
L 171.229091 147.689126 
L 172.311273 145.175846 
L 173.393455 144.386381 
L 174.475636 140.507059 
L 175.557818 141.145728 
L 176.64 137.739494 
L 177.722182 138.747763 
L 178.804364 136.148736 
L 179.886545 136.60704 
L 182.050909 130.941811 
L 183.133091 131.249318 
L 184.215273 129.096768 
L 185.297455 128.443315 
L 186.379636 128.534976 
L 187.461818 128.999194 
L 188.544 128.242253 
L 189.626182 126.639667 
L 190.708364 126.009869 
L 191.790545 126.763853 
L 192.872727 122.911142 
L 193.954909 119.682317 
L 195.037091 121.403174 
L 196.119273 120.696499 
L 197.201455 118.745011 
L 198.283636 118.836672 
L 199.365818 120.350554 
L 200.448 116.72256 
L 201.530182 117.417408 
L 202.612364 116.148941 
L 203.694545 111.805402 
L 204.776727 112.447027 
L 205.858909 111.696 
L 206.941091 111.796531 
L 208.023273 109.392653 
L 209.105455 110.646336 
L 210.187636 109.788864 
L 211.269818 108.780595 
L 212.352 109.061491 
L 214.516364 106.944422 
L 215.598545 106.861632 
L 216.680727 105.998246 
L 217.762909 104.859878 
L 218.845091 104.088154 
L 219.927273 100.362586 
L 221.009455 101.146138 
L 222.091636 101.767066 
L 223.173818 100.270925 
L 224.256 99.070464 
L 225.338182 101.016038 
L 226.420364 100.877069 
L 227.502545 99.936806 
L 229.666909 99.262656 
L 230.749091 98.215949 
L 231.831273 96.344294 
L 232.913455 96.997747 
L 233.995636 96.486221 
L 235.077818 95.374464 
L 236.16 95.88599 
L 237.242182 96.725722 
L 238.324364 96.639974 
L 239.406545 95.371507 
L 240.488727 95.953997 
L 241.570909 93.984768 
L 242.653091 95.21184 
L 243.735273 96.184627 
L 244.817455 92.598029 
L 245.899636 93.319488 
L 246.981818 93.183475 
L 248.064 90.170496 
L 249.146182 90.883085 
L 250.228364 92.769523 
L 251.310545 91.243814 
L 252.392727 91.710989 
L 253.474909 90.770726 
L 254.557091 90.241459 
L 256.721455 89.942822 
L 257.803636 90.427738 
L 258.885818 90.312422 
L 259.968 89.809766 
L 261.050182 88.428941 
L 262.132364 88.47625 
L 263.214545 89.913254 
L 264.296727 88.674355 
L 265.378909 89.292326 
L 266.461091 88.355021 
L 267.543273 89.020301 
L 268.625455 88.851763 
L 269.707636 86.947584 
L 270.789818 86.873664 
L 271.872 87.394061 
L 272.954182 88.999603 
L 274.036364 87.89376 
L 275.118545 85.398221 
L 276.200727 83.831117 
L 277.282909 83.653709 
L 278.365091 82.34089 
L 279.447273 84.357427 
L 280.529455 84.239155 
L 281.611636 83.22793 
L 282.693818 82.379328 
L 283.776 82.243315 
L 284.858182 81.403584 
L 285.940364 81.128602 
L 287.022545 80.282957 
L 288.104727 79.830566 
L 289.186909 79.691597 
L 290.269091 77.39712 
L 292.433455 76.66679 
L 293.515636 76.619482 
L 294.597818 76.42729 
L 295.68 74.44919 
L 296.762182 74.443277 
L 297.844364 73.154112 
L 298.926545 73.083149 
L 300.008727 71.70528 
L 301.090909 70.714752 
L 302.173091 70.398374 
L 303.255273 70.354022 
L 304.337455 69.691699 
L 305.419636 67.110413 
L 307.584 66.98327 
L 308.666182 66.513139 
L 310.830545 66.477658 
L 311.912727 65.247629 
L 314.077091 65.259456 
L 315.159273 63.920026 
L 316.241455 64.328064 
L 318.405818 64.192051 
L 319.488 64.177267 
L 320.570182 63.443981 
L 321.652364 63.405542 
L 322.734545 62.902886 
L 323.816727 62.89993 
L 324.898909 62.31744 
L 327.063273 62.302656 
L 329.227636 62.352922 
L 330.309818 62.092723 
L 331.392 62.997504 
L 343.296 63.151258 
L 344.378182 62.128205 
L 347.624727 62.098637 
L 348.706909 61.64329 
L 362.775273 61.406746 
L 363.857455 60.519706 
L 364.939636 60.564058 
L 366.021818 61.066714 
L 366.021818 61.066714 
" style="fill:none;stroke:#2ca02c;stroke-linecap:square;stroke-width:1.5;"/>
   </g>
   <g id="patch_3">
    <path d="M 57.6 307.584 
L 57.6 41.472 
" style="fill:none;stroke:#000000;stroke-linecap:square;stroke-linejoin:miter;stroke-width:0.8;"/>
   </g>
   <g id="patch_4">
    <path d="M 414.72 307.584 
L 414.72 41.472 
" style="fill:none;stroke:#000000;stroke-linecap:square;stroke-linejoin:miter;stroke-width:0.8;"/>
   </g>
   <g id="patch_5">
    <path d="M 57.6 307.584 
L 414.72 307.584 
" style="fill:none;stroke:#000000;stroke-linecap:square;stroke-linejoin:miter;stroke-width:0.8;"/>
   </g>
   <g id="patch_6">
    <path d="M 57.6 41.472 
L 414.72 41.472 
" style="fill:none;stroke:#000000;stroke-linecap:square;stroke-linejoin:miter;stroke-width:0.8;"/>
   </g>
   <g id="text_17">
    <!-- Episodes' Returns during Training -->
    <defs>
     <path d="M 17.921875 72.90625 
L 17.921875 45.796875 
L 9.625 45.796875 
L 9.625 72.90625 
z
" id="DejaVuSans-27"/>
    </defs>
    <g transform="translate(134.794688 35.472)scale(0.12 -0.12)">
     <use xlink:href="#DejaVuSans-45"/>
     <use x="63.183594" xlink:href="#DejaVuSans-70"/>
     <use x="126.660156" xlink:href="#DejaVuSans-69"/>
     <use x="154.443359" xlink:href="#DejaVuSans-73"/>
     <use x="206.542969" xlink:href="#DejaVuSans-6f"/>
     <use x="267.724609" xlink:href="#DejaVuSans-64"/>
     <use x="331.201172" xlink:href="#DejaVuSans-65"/>
     <use x="392.724609" xlink:href="#DejaVuSans-73"/>
     <use x="444.824219" xlink:href="#DejaVuSans-27"/>
     <use x="472.314453" xlink:href="#DejaVuSans-20"/>
     <use x="504.101562" xlink:href="#DejaVuSans-52"/>
     <use x="573.521484" xlink:href="#DejaVuSans-65"/>
     <use x="635.044922" xlink:href="#DejaVuSans-74"/>
     <use x="674.253906" xlink:href="#DejaVuSans-75"/>
     <use x="737.632812" xlink:href="#DejaVuSans-72"/>
     <use x="778.730469" xlink:href="#DejaVuSans-6e"/>
     <use x="842.109375" xlink:href="#DejaVuSans-73"/>
     <use x="894.208984" xlink:href="#DejaVuSans-20"/>
     <use x="925.996094" xlink:href="#DejaVuSans-64"/>
     <use x="989.472656" xlink:href="#DejaVuSans-75"/>
     <use x="1052.851562" xlink:href="#DejaVuSans-72"/>
     <use x="1093.964844" xlink:href="#DejaVuSans-69"/>
     <use x="1121.748047" xlink:href="#DejaVuSans-6e"/>
     <use x="1185.126953" xlink:href="#DejaVuSans-67"/>
     <use x="1248.603516" xlink:href="#DejaVuSans-20"/>
     <use x="1280.390625" xlink:href="#DejaVuSans-54"/>
     <use x="1341.255859" xlink:href="#DejaVuSans-72"/>
     <use x="1382.369141" xlink:href="#DejaVuSans-61"/>
     <use x="1443.648438" xlink:href="#DejaVuSans-69"/>
     <use x="1471.431641" xlink:href="#DejaVuSans-6e"/>
     <use x="1534.810547" xlink:href="#DejaVuSans-69"/>
     <use x="1562.59375" xlink:href="#DejaVuSans-6e"/>
     <use x="1625.972656" xlink:href="#DejaVuSans-67"/>
    </g>
   </g>
   <g id="legend_1">
    <g id="patch_7">
     <path d="M 64.6 108.1845 
L 174.578125 108.1845 
Q 176.578125 108.1845 176.578125 106.1845 
L 176.578125 48.472 
Q 176.578125 46.472 174.578125 46.472 
L 64.6 46.472 
Q 62.6 46.472 62.6 48.472 
L 62.6 106.1845 
Q 62.6 108.1845 64.6 108.1845 
z
" style="fill:#ffffff;opacity:0.8;stroke:#cccccc;stroke-linejoin:miter;"/>
    </g>
    <g id="text_18">
     <!-- Demonstration Value -->
     <defs>
      <path d="M 19.671875 64.796875 
L 19.671875 8.109375 
L 31.59375 8.109375 
Q 46.6875 8.109375 53.6875 14.9375 
Q 60.6875 21.78125 60.6875 36.53125 
Q 60.6875 51.171875 53.6875 57.984375 
Q 46.6875 64.796875 31.59375 64.796875 
z
M 9.8125 72.90625 
L 30.078125 72.90625 
Q 51.265625 72.90625 61.171875 64.09375 
Q 71.09375 55.28125 71.09375 36.53125 
Q 71.09375 17.671875 61.125 8.828125 
Q 51.171875 0 30.078125 0 
L 9.8125 0 
z
" id="DejaVuSans-44"/>
      <path d="M 52 44.1875 
Q 55.375 50.25 60.0625 53.125 
Q 64.75 56 71.09375 56 
Q 79.640625 56 84.28125 50.015625 
Q 88.921875 44.046875 88.921875 33.015625 
L 88.921875 0 
L 79.890625 0 
L 79.890625 32.71875 
Q 79.890625 40.578125 77.09375 44.375 
Q 74.3125 48.1875 68.609375 48.1875 
Q 61.625 48.1875 57.5625 43.546875 
Q 53.515625 38.921875 53.515625 30.90625 
L 53.515625 0 
L 44.484375 0 
L 44.484375 32.71875 
Q 44.484375 40.625 41.703125 44.40625 
Q 38.921875 48.1875 33.109375 48.1875 
Q 26.21875 48.1875 22.15625 43.53125 
Q 18.109375 38.875 18.109375 30.90625 
L 18.109375 0 
L 9.078125 0 
L 9.078125 54.6875 
L 18.109375 54.6875 
L 18.109375 46.1875 
Q 21.1875 51.21875 25.484375 53.609375 
Q 29.78125 56 35.6875 56 
Q 41.65625 56 45.828125 52.96875 
Q 50 49.953125 52 44.1875 
z
" id="DejaVuSans-6d"/>
      <path d="M 28.609375 0 
L 0.78125 72.90625 
L 11.078125 72.90625 
L 34.1875 11.53125 
L 57.328125 72.90625 
L 67.578125 72.90625 
L 39.796875 0 
z
" id="DejaVuSans-56"/>
     </defs>
     <g transform="translate(66.6 58.070438)scale(0.1 -0.1)">
      <use xlink:href="#DejaVuSans-44"/>
      <use x="77.001953" xlink:href="#DejaVuSans-65"/>
      <use x="138.525391" xlink:href="#DejaVuSans-6d"/>
      <use x="235.9375" xlink:href="#DejaVuSans-6f"/>
      <use x="297.119141" xlink:href="#DejaVuSans-6e"/>
      <use x="360.498047" xlink:href="#DejaVuSans-73"/>
      <use x="412.597656" xlink:href="#DejaVuSans-74"/>
      <use x="451.806641" xlink:href="#DejaVuSans-72"/>
      <use x="492.919922" xlink:href="#DejaVuSans-61"/>
      <use x="554.199219" xlink:href="#DejaVuSans-74"/>
      <use x="593.408203" xlink:href="#DejaVuSans-69"/>
      <use x="621.191406" xlink:href="#DejaVuSans-6f"/>
      <use x="682.373047" xlink:href="#DejaVuSans-6e"/>
      <use x="745.751953" xlink:href="#DejaVuSans-20"/>
      <use x="777.539062" xlink:href="#DejaVuSans-56"/>
      <use x="845.837891" xlink:href="#DejaVuSans-61"/>
      <use x="907.117188" xlink:href="#DejaVuSans-6c"/>
      <use x="934.900391" xlink:href="#DejaVuSans-75"/>
      <use x="998.279297" xlink:href="#DejaVuSans-65"/>
     </g>
    </g>
    <g id="line2d_18">
     <path d="M 72.225 69.248563 
L 92.225 69.248563 
" style="fill:none;stroke:#1f77b4;stroke-linecap:square;stroke-width:1.5;"/>
    </g>
    <g id="line2d_19"/>
    <g id="text_19">
     <!-- -139.0 -->
     <defs>
      <path d="M 4.890625 31.390625 
L 31.203125 31.390625 
L 31.203125 23.390625 
L 4.890625 23.390625 
z
" id="DejaVuSans-2d"/>
      <path d="M 10.984375 1.515625 
L 10.984375 10.5 
Q 14.703125 8.734375 18.5 7.8125 
Q 22.3125 6.890625 25.984375 6.890625 
Q 35.75 6.890625 40.890625 13.453125 
Q 46.046875 20.015625 46.78125 33.40625 
Q 43.953125 29.203125 39.59375 26.953125 
Q 35.25 24.703125 29.984375 24.703125 
Q 19.046875 24.703125 12.671875 31.3125 
Q 6.296875 37.9375 6.296875 49.421875 
Q 6.296875 60.640625 12.9375 67.421875 
Q 19.578125 74.21875 30.609375 74.21875 
Q 43.265625 74.21875 49.921875 64.515625 
Q 56.59375 54.828125 56.59375 36.375 
Q 56.59375 19.140625 48.40625 8.859375 
Q 40.234375 -1.421875 26.421875 -1.421875 
Q 22.703125 -1.421875 18.890625 -0.6875 
Q 15.09375 0.046875 10.984375 1.515625 
z
M 30.609375 32.421875 
Q 37.25 32.421875 41.125 36.953125 
Q 45.015625 41.5 45.015625 49.421875 
Q 45.015625 57.28125 41.125 61.84375 
Q 37.25 66.40625 30.609375 66.40625 
Q 23.96875 66.40625 20.09375 61.84375 
Q 16.21875 57.28125 16.21875 49.421875 
Q 16.21875 41.5 20.09375 36.953125 
Q 23.96875 32.421875 30.609375 32.421875 
z
" id="DejaVuSans-39"/>
      <path d="M 10.6875 12.40625 
L 21 12.40625 
L 21 0 
L 10.6875 0 
z
" id="DejaVuSans-2e"/>
     </defs>
     <g transform="translate(100.225 72.748563)scale(0.1 -0.1)">
      <use xlink:href="#DejaVuSans-2d"/>
      <use x="36.083984" xlink:href="#DejaVuSans-31"/>
      <use x="99.707031" xlink:href="#DejaVuSans-33"/>
      <use x="163.330078" xlink:href="#DejaVuSans-39"/>
      <use x="226.953125" xlink:href="#DejaVuSans-2e"/>
      <use x="258.740234" xlink:href="#DejaVuSans-30"/>
     </g>
    </g>
    <g id="line2d_20">
     <path d="M 72.225 83.926688 
L 92.225 83.926688 
" style="fill:none;stroke:#ff7f0e;stroke-linecap:square;stroke-width:1.5;"/>
    </g>
    <g id="line2d_21"/>
    <g id="text_20">
     <!-- -67.0 -->
     <g transform="translate(100.225 87.426688)scale(0.1 -0.1)">
      <use xlink:href="#DejaVuSans-2d"/>
      <use x="36.083984" xlink:href="#DejaVuSans-36"/>
      <use x="99.707031" xlink:href="#DejaVuSans-37"/>
      <use x="163.330078" xlink:href="#DejaVuSans-2e"/>
      <use x="195.117188" xlink:href="#DejaVuSans-30"/>
     </g>
    </g>
    <g id="line2d_22">
     <path d="M 72.225 98.604813 
L 92.225 98.604813 
" style="fill:none;stroke:#2ca02c;stroke-linecap:square;stroke-width:1.5;"/>
    </g>
    <g id="line2d_23"/>
    <g id="text_21">
     <!-- From Scratch -->
     <defs>
      <path d="M 9.8125 72.90625 
L 51.703125 72.90625 
L 51.703125 64.59375 
L 19.671875 64.59375 
L 19.671875 43.109375 
L 48.578125 43.109375 
L 48.578125 34.8125 
L 19.671875 34.8125 
L 19.671875 0 
L 9.8125 0 
z
" id="DejaVuSans-46"/>
      <path d="M 53.515625 70.515625 
L 53.515625 60.890625 
Q 47.90625 63.578125 42.921875 64.890625 
Q 37.9375 66.21875 33.296875 66.21875 
Q 25.25 66.21875 20.875 63.09375 
Q 16.5 59.96875 16.5 54.203125 
Q 16.5 49.359375 19.40625 46.890625 
Q 22.3125 44.4375 30.421875 42.921875 
L 36.375 41.703125 
Q 47.40625 39.59375 52.65625 34.296875 
Q 57.90625 29 57.90625 20.125 
Q 57.90625 9.515625 50.796875 4.046875 
Q 43.703125 -1.421875 29.984375 -1.421875 
Q 24.8125 -1.421875 18.96875 -0.25 
Q 13.140625 0.921875 6.890625 3.21875 
L 6.890625 13.375 
Q 12.890625 10.015625 18.65625 8.296875 
Q 24.421875 6.59375 29.984375 6.59375 
Q 38.421875 6.59375 43.015625 9.90625 
Q 47.609375 13.234375 47.609375 19.390625 
Q 47.609375 24.75 44.3125 27.78125 
Q 41.015625 30.8125 33.5 32.328125 
L 27.484375 33.5 
Q 16.453125 35.6875 11.515625 40.375 
Q 6.59375 45.0625 6.59375 53.421875 
Q 6.59375 63.09375 13.40625 68.65625 
Q 20.21875 74.21875 32.171875 74.21875 
Q 37.3125 74.21875 42.625 73.28125 
Q 47.953125 72.359375 53.515625 70.515625 
z
" id="DejaVuSans-53"/>
      <path d="M 48.78125 52.59375 
L 48.78125 44.1875 
Q 44.96875 46.296875 41.140625 47.34375 
Q 37.3125 48.390625 33.40625 48.390625 
Q 24.65625 48.390625 19.8125 42.84375 
Q 14.984375 37.3125 14.984375 27.296875 
Q 14.984375 17.28125 19.8125 11.734375 
Q 24.65625 6.203125 33.40625 6.203125 
Q 37.3125 6.203125 41.140625 7.25 
Q 44.96875 8.296875 48.78125 10.40625 
L 48.78125 2.09375 
Q 45.015625 0.34375 40.984375 -0.53125 
Q 36.96875 -1.421875 32.421875 -1.421875 
Q 20.0625 -1.421875 12.78125 6.34375 
Q 5.515625 14.109375 5.515625 27.296875 
Q 5.515625 40.671875 12.859375 48.328125 
Q 20.21875 56 33.015625 56 
Q 37.15625 56 41.109375 55.140625 
Q 45.0625 54.296875 48.78125 52.59375 
z
" id="DejaVuSans-63"/>
      <path d="M 54.890625 33.015625 
L 54.890625 0 
L 45.90625 0 
L 45.90625 32.71875 
Q 45.90625 40.484375 42.875 44.328125 
Q 39.84375 48.1875 33.796875 48.1875 
Q 26.515625 48.1875 22.3125 43.546875 
Q 18.109375 38.921875 18.109375 30.90625 
L 18.109375 0 
L 9.078125 0 
L 9.078125 75.984375 
L 18.109375 75.984375 
L 18.109375 46.1875 
Q 21.34375 51.125 25.703125 53.5625 
Q 30.078125 56 35.796875 56 
Q 45.21875 56 50.046875 50.171875 
Q 54.890625 44.34375 54.890625 33.015625 
z
" id="DejaVuSans-68"/>
     </defs>
     <g transform="translate(100.225 102.104813)scale(0.1 -0.1)">
      <use xlink:href="#DejaVuSans-46"/>
      <use x="57.410156" xlink:href="#DejaVuSans-72"/>
      <use x="98.492188" xlink:href="#DejaVuSans-6f"/>
      <use x="159.673828" xlink:href="#DejaVuSans-6d"/>
      <use x="257.085938" xlink:href="#DejaVuSans-20"/>
      <use x="288.873047" xlink:href="#DejaVuSans-53"/>
      <use x="352.349609" xlink:href="#DejaVuSans-63"/>
      <use x="407.330078" xlink:href="#DejaVuSans-72"/>
      <use x="448.443359" xlink:href="#DejaVuSans-61"/>
      <use x="509.722656" xlink:href="#DejaVuSans-74"/>
      <use x="548.931641" xlink:href="#DejaVuSans-63"/>
      <use x="603.912109" xlink:href="#DejaVuSans-68"/>
     </g>
    </g>
   </g>
  </g>
 </g>
 <defs>
  <clipPath id="pc928254848">
   <rect height="266.112" width="357.12" x="57.6" y="41.472"/>
  </clipPath>
 </defs>
</svg>
