<?xml version="1.0" encoding="utf-8" standalone="no"?>
<!DOCTYPE svg PUBLIC "-//W3C//DTD SVG 1.1//EN"
  "http://www.w3.org/Graphics/SVG/1.1/DTD/svg11.dtd">
<!-- Created with matplotlib (http://matplotlib.org/) -->
<svg height="345.6pt" version="1.1" viewBox="0 0 460.8 345.6" width="460.8pt" xmlns="http://www.w3.org/2000/svg" xmlns:xlink="http://www.w3.org/1999/xlink">
 <defs>
  <style type="text/css">
*{stroke-linecap:butt;stroke-linejoin:round;}
  </style>
 </defs>
 <g id="figure_1">
  <g id="patch_1">
   <path d="M 0 345.6 
L 460.8 345.6 
L 460.8 0 
L 0 0 
z
" style="fill:#ffffff;"/>
  </g>
  <g id="axes_1">
   <g id="patch_2">
    <path d="M 57.6 307.584 
L 414.72 307.584 
L 414.72 41.472 
L 57.6 41.472 
z
" style="fill:#ffffff;"/>
   </g>
   <g id="matplotlib.axis_1">
    <g id="xtick_1">
     <g id="line2d_1">
      <defs>
       <path d="M 0 0 
L 0 3.5 
" id="m8a25ee17cd" style="stroke:#000000;stroke-width:0.8;"/>
      </defs>
      <g>
       <use style="stroke:#000000;stroke-width:0.8;" x="73.832727" xlink:href="#m8a25ee17cd" y="307.584"/>
      </g>
     </g>
     <g id="text_1">
      <!-- 0 -->
      <defs>
       <path d="M 31.78125 66.40625 
Q 24.171875 66.40625 20.328125 58.90625 
Q 16.5 51.421875 16.5 36.375 
Q 16.5 21.390625 20.328125 13.890625 
Q 24.171875 6.390625 31.78125 6.390625 
Q 39.453125 6.390625 43.28125 13.890625 
Q 47.125 21.390625 47.125 36.375 
Q 47.125 51.421875 43.28125 58.90625 
Q 39.453125 66.40625 31.78125 66.40625 
z
M 31.78125 74.21875 
Q 44.046875 74.21875 50.515625 64.515625 
Q 56.984375 54.828125 56.984375 36.375 
Q 56.984375 17.96875 50.515625 8.265625 
Q 44.046875 -1.421875 31.78125 -1.421875 
Q 19.53125 -1.421875 13.0625 8.265625 
Q 6.59375 17.96875 6.59375 36.375 
Q 6.59375 54.828125 13.0625 64.515625 
Q 19.53125 74.21875 31.78125 74.21875 
z
" id="DejaVuSans-30"/>
      </defs>
      <g transform="translate(70.651477 322.182437)scale(0.1 -0.1)">
       <use xlink:href="#DejaVuSans-30"/>
      </g>
     </g>
    </g>
    <g id="xtick_2">
     <g id="line2d_2">
      <g>
       <use style="stroke:#000000;stroke-width:0.8;" x="132.807213" xlink:href="#m8a25ee17cd" y="307.584"/>
      </g>
     </g>
     <g id="text_2">
      <!-- 200 -->
      <defs>
       <path d="M 19.1875 8.296875 
L 53.609375 8.296875 
L 53.609375 0 
L 7.328125 0 
L 7.328125 8.296875 
Q 12.9375 14.109375 22.625 23.890625 
Q 32.328125 33.6875 34.8125 36.53125 
Q 39.546875 41.84375 41.421875 45.53125 
Q 43.3125 49.21875 43.3125 52.78125 
Q 43.3125 58.59375 39.234375 62.25 
Q 35.15625 65.921875 28.609375 65.921875 
Q 23.96875 65.921875 18.8125 64.3125 
Q 13.671875 62.703125 7.8125 59.421875 
L 7.8125 69.390625 
Q 13.765625 71.78125 18.9375 73 
Q 24.125 74.21875 28.421875 74.21875 
Q 39.75 74.21875 46.484375 68.546875 
Q 53.21875 62.890625 53.21875 53.421875 
Q 53.21875 48.921875 51.53125 44.890625 
Q 49.859375 40.875 45.40625 35.40625 
Q 44.1875 33.984375 37.640625 27.21875 
Q 31.109375 20.453125 19.1875 8.296875 
z
" id="DejaVuSans-32"/>
      </defs>
      <g transform="translate(123.263463 322.182437)scale(0.1 -0.1)">
       <use xlink:href="#DejaVuSans-32"/>
       <use x="63.623047" xlink:href="#DejaVuSans-30"/>
       <use x="127.246094" xlink:href="#DejaVuSans-30"/>
      </g>
     </g>
    </g>
    <g id="xtick_3">
     <g id="line2d_3">
      <g>
       <use style="stroke:#000000;stroke-width:0.8;" x="191.781699" xlink:href="#m8a25ee17cd" y="307.584"/>
      </g>
     </g>
     <g id="text_3">
      <!-- 400 -->
      <defs>
       <path d="M 37.796875 64.3125 
L 12.890625 25.390625 
L 37.796875 25.390625 
z
M 35.203125 72.90625 
L 47.609375 72.90625 
L 47.609375 25.390625 
L 58.015625 25.390625 
L 58.015625 17.1875 
L 47.609375 17.1875 
L 47.609375 0 
L 37.796875 0 
L 37.796875 17.1875 
L 4.890625 17.1875 
L 4.890625 26.703125 
z
" id="DejaVuSans-34"/>
      </defs>
      <g transform="translate(182.237949 322.182437)scale(0.1 -0.1)">
       <use xlink:href="#DejaVuSans-34"/>
       <use x="63.623047" xlink:href="#DejaVuSans-30"/>
       <use x="127.246094" xlink:href="#DejaVuSans-30"/>
      </g>
     </g>
    </g>
    <g id="xtick_4">
     <g id="line2d_4">
      <g>
       <use style="stroke:#000000;stroke-width:0.8;" x="250.756185" xlink:href="#m8a25ee17cd" y="307.584"/>
      </g>
     </g>
     <g id="text_4">
      <!-- 600 -->
      <defs>
       <path d="M 33.015625 40.375 
Q 26.375 40.375 22.484375 35.828125 
Q 18.609375 31.296875 18.609375 23.390625 
Q 18.609375 15.53125 22.484375 10.953125 
Q 26.375 6.390625 33.015625 6.390625 
Q 39.65625 6.390625 43.53125 10.953125 
Q 47.40625 15.53125 47.40625 23.390625 
Q 47.40625 31.296875 43.53125 35.828125 
Q 39.65625 40.375 33.015625 40.375 
z
M 52.59375 71.296875 
L 52.59375 62.3125 
Q 48.875 64.0625 45.09375 64.984375 
Q 41.3125 65.921875 37.59375 65.921875 
Q 27.828125 65.921875 22.671875 59.328125 
Q 17.53125 52.734375 16.796875 39.40625 
Q 19.671875 43.65625 24.015625 45.921875 
Q 28.375 48.1875 33.59375 48.1875 
Q 44.578125 48.1875 50.953125 41.515625 
Q 57.328125 34.859375 57.328125 23.390625 
Q 57.328125 12.15625 50.6875 5.359375 
Q 44.046875 -1.421875 33.015625 -1.421875 
Q 20.359375 -1.421875 13.671875 8.265625 
Q 6.984375 17.96875 6.984375 36.375 
Q 6.984375 53.65625 15.1875 63.9375 
Q 23.390625 74.21875 37.203125 74.21875 
Q 40.921875 74.21875 44.703125 73.484375 
Q 48.484375 72.75 52.59375 71.296875 
z
" id="DejaVuSans-36"/>
      </defs>
      <g transform="translate(241.212435 322.182437)scale(0.1 -0.1)">
       <use xlink:href="#DejaVuSans-36"/>
       <use x="63.623047" xlink:href="#DejaVuSans-30"/>
       <use x="127.246094" xlink:href="#DejaVuSans-30"/>
      </g>
     </g>
    </g>
    <g id="xtick_5">
     <g id="line2d_5">
      <g>
       <use style="stroke:#000000;stroke-width:0.8;" x="309.730671" xlink:href="#m8a25ee17cd" y="307.584"/>
      </g>
     </g>
     <g id="text_5">
      <!-- 800 -->
      <defs>
       <path d="M 31.78125 34.625 
Q 24.75 34.625 20.71875 30.859375 
Q 16.703125 27.09375 16.703125 20.515625 
Q 16.703125 13.921875 20.71875 10.15625 
Q 24.75 6.390625 31.78125 6.390625 
Q 38.8125 6.390625 42.859375 10.171875 
Q 46.921875 13.96875 46.921875 20.515625 
Q 46.921875 27.09375 42.890625 30.859375 
Q 38.875 34.625 31.78125 34.625 
z
M 21.921875 38.8125 
Q 15.578125 40.375 12.03125 44.71875 
Q 8.5 49.078125 8.5 55.328125 
Q 8.5 64.0625 14.71875 69.140625 
Q 20.953125 74.21875 31.78125 74.21875 
Q 42.671875 74.21875 48.875 69.140625 
Q 55.078125 64.0625 55.078125 55.328125 
Q 55.078125 49.078125 51.53125 44.71875 
Q 48 40.375 41.703125 38.8125 
Q 48.828125 37.15625 52.796875 32.3125 
Q 56.78125 27.484375 56.78125 20.515625 
Q 56.78125 9.90625 50.3125 4.234375 
Q 43.84375 -1.421875 31.78125 -1.421875 
Q 19.734375 -1.421875 13.25 4.234375 
Q 6.78125 9.90625 6.78125 20.515625 
Q 6.78125 27.484375 10.78125 32.3125 
Q 14.796875 37.15625 21.921875 38.8125 
z
M 18.3125 54.390625 
Q 18.3125 48.734375 21.84375 45.5625 
Q 25.390625 42.390625 31.78125 42.390625 
Q 38.140625 42.390625 41.71875 45.5625 
Q 45.3125 48.734375 45.3125 54.390625 
Q 45.3125 60.0625 41.71875 63.234375 
Q 38.140625 66.40625 31.78125 66.40625 
Q 25.390625 66.40625 21.84375 63.234375 
Q 18.3125 60.0625 18.3125 54.390625 
z
" id="DejaVuSans-38"/>
      </defs>
      <g transform="translate(300.186921 322.182437)scale(0.1 -0.1)">
       <use xlink:href="#DejaVuSans-38"/>
       <use x="63.623047" xlink:href="#DejaVuSans-30"/>
       <use x="127.246094" xlink:href="#DejaVuSans-30"/>
      </g>
     </g>
    </g>
    <g id="xtick_6">
     <g id="line2d_6">
      <g>
       <use style="stroke:#000000;stroke-width:0.8;" x="368.705157" xlink:href="#m8a25ee17cd" y="307.584"/>
      </g>
     </g>
     <g id="text_6">
      <!-- 1000 -->
      <defs>
       <path d="M 12.40625 8.296875 
L 28.515625 8.296875 
L 28.515625 63.921875 
L 10.984375 60.40625 
L 10.984375 69.390625 
L 28.421875 72.90625 
L 38.28125 72.90625 
L 38.28125 8.296875 
L 54.390625 8.296875 
L 54.390625 0 
L 12.40625 0 
z
" id="DejaVuSans-31"/>
      </defs>
      <g transform="translate(355.980157 322.182437)scale(0.1 -0.1)">
       <use xlink:href="#DejaVuSans-31"/>
       <use x="63.623047" xlink:href="#DejaVuSans-30"/>
       <use x="127.246094" xlink:href="#DejaVuSans-30"/>
       <use x="190.869141" xlink:href="#DejaVuSans-30"/>
      </g>
     </g>
    </g>
   </g>
   <g id="matplotlib.axis_2">
    <g id="ytick_1">
     <g id="line2d_7">
      <defs>
       <path d="M 0 0 
L -3.5 0 
" id="mf3ca04d3b5" style="stroke:#000000;stroke-width:0.8;"/>
      </defs>
      <g>
       <use style="stroke:#000000;stroke-width:0.8;" x="57.6" xlink:href="#mf3ca04d3b5" y="307.584"/>
      </g>
     </g>
     <g id="text_7">
      <!-- −300 -->
      <defs>
       <path d="M 10.59375 35.5 
L 73.1875 35.5 
L 73.1875 27.203125 
L 10.59375 27.203125 
z
" id="DejaVuSans-2212"/>
       <path d="M 40.578125 39.3125 
Q 47.65625 37.796875 51.625 33 
Q 55.609375 28.21875 55.609375 21.1875 
Q 55.609375 10.40625 48.1875 4.484375 
Q 40.765625 -1.421875 27.09375 -1.421875 
Q 22.515625 -1.421875 17.65625 -0.515625 
Q 12.796875 0.390625 7.625 2.203125 
L 7.625 11.71875 
Q 11.71875 9.328125 16.59375 8.109375 
Q 21.484375 6.890625 26.8125 6.890625 
Q 36.078125 6.890625 40.9375 10.546875 
Q 45.796875 14.203125 45.796875 21.1875 
Q 45.796875 27.640625 41.28125 31.265625 
Q 36.765625 34.90625 28.71875 34.90625 
L 20.21875 34.90625 
L 20.21875 43.015625 
L 29.109375 43.015625 
Q 36.375 43.015625 40.234375 45.921875 
Q 44.09375 48.828125 44.09375 54.296875 
Q 44.09375 59.90625 40.109375 62.90625 
Q 36.140625 65.921875 28.71875 65.921875 
Q 24.65625 65.921875 20.015625 65.03125 
Q 15.375 64.15625 9.8125 62.3125 
L 9.8125 71.09375 
Q 15.4375 72.65625 20.34375 73.4375 
Q 25.25 74.21875 29.59375 74.21875 
Q 40.828125 74.21875 47.359375 69.109375 
Q 53.90625 64.015625 53.90625 55.328125 
Q 53.90625 49.265625 50.4375 45.09375 
Q 46.96875 40.921875 40.578125 39.3125 
z
" id="DejaVuSans-33"/>
      </defs>
      <g transform="translate(23.132812 311.383219)scale(0.1 -0.1)">
       <use xlink:href="#DejaVuSans-2212"/>
       <use x="83.789062" xlink:href="#DejaVuSans-33"/>
       <use x="147.412109" xlink:href="#DejaVuSans-30"/>
       <use x="211.035156" xlink:href="#DejaVuSans-30"/>
      </g>
     </g>
    </g>
    <g id="ytick_2">
     <g id="line2d_8">
      <g>
       <use style="stroke:#000000;stroke-width:0.8;" x="57.6" xlink:href="#mf3ca04d3b5" y="254.3616"/>
      </g>
     </g>
     <g id="text_8">
      <!-- −250 -->
      <defs>
       <path d="M 10.796875 72.90625 
L 49.515625 72.90625 
L 49.515625 64.59375 
L 19.828125 64.59375 
L 19.828125 46.734375 
Q 21.96875 47.46875 24.109375 47.828125 
Q 26.265625 48.1875 28.421875 48.1875 
Q 40.625 48.1875 47.75 41.5 
Q 54.890625 34.8125 54.890625 23.390625 
Q 54.890625 11.625 47.5625 5.09375 
Q 40.234375 -1.421875 26.90625 -1.421875 
Q 22.3125 -1.421875 17.546875 -0.640625 
Q 12.796875 0.140625 7.71875 1.703125 
L 7.71875 11.625 
Q 12.109375 9.234375 16.796875 8.0625 
Q 21.484375 6.890625 26.703125 6.890625 
Q 35.15625 6.890625 40.078125 11.328125 
Q 45.015625 15.765625 45.015625 23.390625 
Q 45.015625 31 40.078125 35.4375 
Q 35.15625 39.890625 26.703125 39.890625 
Q 22.75 39.890625 18.8125 39.015625 
Q 14.890625 38.140625 10.796875 36.28125 
z
" id="DejaVuSans-35"/>
      </defs>
      <g transform="translate(23.132812 258.160819)scale(0.1 -0.1)">
       <use xlink:href="#DejaVuSans-2212"/>
       <use x="83.789062" xlink:href="#DejaVuSans-32"/>
       <use x="147.412109" xlink:href="#DejaVuSans-35"/>
       <use x="211.035156" xlink:href="#DejaVuSans-30"/>
      </g>
     </g>
    </g>
    <g id="ytick_3">
     <g id="line2d_9">
      <g>
       <use style="stroke:#000000;stroke-width:0.8;" x="57.6" xlink:href="#mf3ca04d3b5" y="201.1392"/>
      </g>
     </g>
     <g id="text_9">
      <!-- −200 -->
      <g transform="translate(23.132812 204.938419)scale(0.1 -0.1)">
       <use xlink:href="#DejaVuSans-2212"/>
       <use x="83.789062" xlink:href="#DejaVuSans-32"/>
       <use x="147.412109" xlink:href="#DejaVuSans-30"/>
       <use x="211.035156" xlink:href="#DejaVuSans-30"/>
      </g>
     </g>
    </g>
    <g id="ytick_4">
     <g id="line2d_10">
      <g>
       <use style="stroke:#000000;stroke-width:0.8;" x="57.6" xlink:href="#mf3ca04d3b5" y="147.9168"/>
      </g>
     </g>
     <g id="text_10">
      <!-- −150 -->
      <g transform="translate(23.132812 151.716019)scale(0.1 -0.1)">
       <use xlink:href="#DejaVuSans-2212"/>
       <use x="83.789062" xlink:href="#DejaVuSans-31"/>
       <use x="147.412109" xlink:href="#DejaVuSans-35"/>
       <use x="211.035156" xlink:href="#DejaVuSans-30"/>
      </g>
     </g>
    </g>
    <g id="ytick_5">
     <g id="line2d_11">
      <g>
       <use style="stroke:#000000;stroke-width:0.8;" x="57.6" xlink:href="#mf3ca04d3b5" y="94.6944"/>
      </g>
     </g>
     <g id="text_11">
      <!-- −100 -->
      <g transform="translate(23.132812 98.493619)scale(0.1 -0.1)">
       <use xlink:href="#DejaVuSans-2212"/>
       <use x="83.789062" xlink:href="#DejaVuSans-31"/>
       <use x="147.412109" xlink:href="#DejaVuSans-30"/>
       <use x="211.035156" xlink:href="#DejaVuSans-30"/>
      </g>
     </g>
    </g>
    <g id="ytick_6">
     <g id="line2d_12">
      <g>
       <use style="stroke:#000000;stroke-width:0.8;" x="57.6" xlink:href="#mf3ca04d3b5" y="41.472"/>
      </g>
     </g>
     <g id="text_12">
      <!-- −50 -->
      <g transform="translate(29.495313 45.271219)scale(0.1 -0.1)">
       <use xlink:href="#DejaVuSans-2212"/>
       <use x="83.789062" xlink:href="#DejaVuSans-35"/>
       <use x="147.412109" xlink:href="#DejaVuSans-30"/>
      </g>
     </g>
    </g>
    <g id="ytick_7">
     <g id="line2d_13">
      <g>
       <use style="stroke:#000000;stroke-width:0.8;" x="57.6" xlink:href="#mf3ca04d3b5" y="59.567616"/>
      </g>
     </g>
     <g id="text_13">
      <!-- −67 -->
      <defs>
       <path d="M 8.203125 72.90625 
L 55.078125 72.90625 
L 55.078125 68.703125 
L 28.609375 0 
L 18.3125 0 
L 43.21875 64.59375 
L 8.203125 64.59375 
z
" id="DejaVuSans-37"/>
      </defs>
      <g transform="translate(29.495313 63.366835)scale(0.1 -0.1)">
       <use xlink:href="#DejaVuSans-2212"/>
       <use x="83.789062" xlink:href="#DejaVuSans-36"/>
       <use x="147.412109" xlink:href="#DejaVuSans-37"/>
      </g>
     </g>
    </g>
   </g>
   <g id="LineCollection_1">
    <path clip-path="url(#p4f17a698ba)" d="M 73.832727 59.567616 
L 398.487273 59.567616 
" style="fill:none;stroke:#000000;stroke-dasharray:0.74,0.32;stroke-dashoffset:0;stroke-width:0.2;"/>
   </g>
   <g id="line2d_14">
    <path clip-path="url(#p4f17a698ba)" d="M 74.389537 346.6 
L 74.717345 324.300091 
L 75.012217 318.447224 
L 75.307089 304.290066 
L 75.601962 295.726049 
L 75.896834 291.977063 
L 76.191707 285.171515 
L 76.486579 271.385849 
L 76.781452 266.615525 
L 77.076324 263.802189 
L 77.371196 258.737546 
L 77.666069 256.427694 
L 77.960941 239.429523 
L 78.255814 238.567853 
L 78.550686 234.124315 
L 78.845559 232.456857 
L 79.140431 226.817411 
L 79.435303 225.519317 
L 79.730176 219.528071 
L 80.319921 216.68227 
L 81.204538 203.048287 
L 81.794283 192.11481 
L 82.089155 190.050845 
L 82.384028 186.003282 
L 82.973773 182.91106 
L 83.268645 181.483103 
L 83.563517 181.175478 
L 83.85839 180.318597 
L 84.153262 178.801759 
L 84.448135 174.143202 
L 84.743007 171.843994 
L 85.03788 170.469792 
L 85.332752 169.651231 
L 85.627624 171.925957 
L 86.217369 166.082137 
L 87.101987 163.287429 
L 87.396859 164.100667 
L 87.691731 160.076522 
L 87.986604 159.728447 
L 88.576349 157.021556 
L 88.871221 156.799086 
L 89.166094 153.529634 
L 89.460966 153.428512 
L 89.755838 151.749877 
L 90.050711 151.819599 
L 90.345583 149.86953 
L 90.640456 149.759892 
L 90.935328 148.593789 
L 91.230201 143.86764 
L 91.525073 142.026145 
L 91.819946 139.051545 
L 92.114818 138.454922 
L 92.40969 134.623441 
L 92.704563 132.364682 
L 93.294308 130.659969 
L 93.58918 130.259737 
L 93.884053 129.328877 
L 94.178925 129.367197 
L 94.76867 124.456366 
L 95.063542 124.455302 
L 95.358415 124.339809 
L 95.653287 119.417801 
L 95.94816 118.781262 
L 96.537904 118.832355 
L 96.832777 113.667121 
L 97.127649 113.421766 
L 97.422522 112.050225 
L 97.717394 109.560481 
L 98.602011 109.382186 
L 99.191756 108.72755 
L 99.781501 108.649846 
L 100.076374 103.793302 
L 100.371246 102.756529 
L 100.666118 102.15139 
L 100.960991 101.947549 
L 101.255863 100.058153 
L 101.550736 99.660582 
L 102.140481 98.256575 
L 102.435353 96.158548 
L 102.730225 96.096278 
L 103.025098 95.050458 
L 103.31997 95.429934 
L 103.614843 94.165902 
L 103.909715 92.315891 
L 104.204588 92.304182 
L 104.49946 92.089696 
L 104.794332 92.025297 
L 105.089205 92.793828 
L 105.67895 92.715059 
L 105.973822 92.702818 
L 106.268695 92.477155 
L 106.563567 91.263684 
L 106.858439 91.716607 
L 107.153312 91.003959 
L 107.448184 90.921996 
L 107.743057 89.11137 
L 108.037929 91.086986 
L 108.627674 88.015521 
L 108.922546 89.191736 
L 109.217419 88.448751 
L 109.807164 88.052777 
L 110.102036 85.176106 
L 110.396909 85.169719 
L 110.691781 85.031341 
L 110.986653 84.745537 
L 111.281526 84.677412 
L 111.576398 84.294211 
L 111.871271 84.438444 
L 112.461016 82.869979 
L 113.345633 82.841772 
L 113.640505 80.840609 
L 114.23025 80.832094 
L 114.525123 79.555821 
L 114.819995 79.497276 
L 115.114867 76.521079 
L 115.40974 76.516289 
L 115.704612 76.221437 
L 116.58923 76.208664 
L 116.884102 74.927068 
L 117.473847 74.863202 
L 117.768719 74.809979 
L 118.063592 78.181086 
L 118.358464 77.966067 
L 118.653337 77.960213 
L 118.948209 77.431182 
L 120.127699 77.341236 
L 121.012316 77.269386 
L 121.307189 76.391749 
L 121.602061 76.390152 
L 121.896933 76.817528 
L 122.191806 76.720131 
L 122.486678 76.948987 
L 122.781551 76.367267 
L 123.076423 76.28424 
L 123.371296 76.555674 
L 123.96104 76.353429 
L 124.550785 76.284772 
L 124.845658 74.873314 
L 129.563617 74.303834 
L 130.153361 74.286271 
L 130.448234 77.113445 
L 131.037979 77.116638 
L 131.332851 76.467857 
L 131.627724 76.476905 
L 131.922596 76.26987 
L 132.512341 76.271466 
L 132.731874 346.6 
M 135.379598 346.6 
L 135.461065 345.236187 
L 135.755938 336.431605 
L 136.345682 327.885152 
L 137.2303 304.053758 
L 139.294407 273.321016 
L 139.589279 271.857932 
L 140.768769 260.116538 
L 141.063641 256.780558 
L 141.358514 254.996011 
L 141.653386 255.419129 
L 142.832876 239.808999 
L 143.422621 228.417277 
L 143.717493 222.889066 
L 144.012366 220.467447 
L 145.486728 199.822478 
L 145.7816 199.019352 
L 146.076473 196.258174 
L 146.371345 191.775783 
L 146.96109 188.466414 
L 147.255962 182.842936 
L 147.550835 180.703927 
L 147.845707 174.621139 
L 148.14058 176.93791 
L 148.435452 175.654718 
L 148.730324 174.992099 
L 149.025197 174.747809 
L 150.204687 166.590943 
L 150.794432 164.96766 
L 151.089304 165.858603 
L 151.384176 164.127279 
L 151.679049 164.159744 
L 151.973921 165.64731 
L 152.268794 163.543429 
L 152.563666 160.14784 
L 152.858539 155.29236 
L 153.153411 154.838905 
L 153.448283 156.472833 
L 153.743156 156.020975 
L 154.038028 156.235461 
L 154.332901 154.965575 
L 154.922646 150.748232 
L 155.217518 145.252487 
L 155.807263 142.407217 
L 156.102135 138.213292 
L 156.397008 138.122282 
L 156.69188 139.478388 
L 156.986753 139.337881 
L 157.281625 139.978679 
L 157.87137 139.297432 
L 158.461115 138.267579 
L 158.755987 135.881619 
L 159.05086 134.656971 
L 159.640604 129.605633 
L 160.525222 125.651209 
L 160.820094 124.30894 
L 161.114967 124.105098 
L 161.409839 120.146948 
L 161.999584 119.803664 
L 162.294456 118.989893 
L 162.589329 120.45138 
L 162.884201 120.398158 
L 163.179074 117.339467 
L 163.473946 115.87798 
L 163.768818 115.740134 
L 164.063691 118.804679 
L 164.358563 117.136157 
L 164.653436 117.031309 
L 164.948308 117.074951 
L 165.538053 113.550564 
L 165.832925 112.774049 
L 166.127798 112.531355 
L 166.42267 111.010259 
L 166.717543 110.610559 
L 167.012415 108.939375 
L 167.307288 108.687633 
L 167.60216 108.683376 
L 167.897032 107.839268 
L 168.486777 107.388475 
L 168.78165 106.599719 
L 169.076522 106.411311 
L 169.371395 103.736354 
L 169.666267 103.744869 
L 169.961139 101.920405 
L 170.256012 101.920937 
L 170.550884 101.744239 
L 170.845757 101.920937 
L 171.435502 98.414646 
L 172.025246 98.09265 
L 172.320119 97.4609 
L 172.614991 97.421516 
L 172.909864 96.997333 
L 173.204736 97.01809 
L 173.499609 95.976528 
L 173.794481 96.221351 
L 174.384226 96.222947 
L 174.679098 95.994091 
L 174.973971 95.580553 
L 175.268843 95.572037 
L 175.563716 96.664161 
L 175.858588 96.856826 
L 176.15346 96.274573 
L 176.448333 95.274524 
L 176.743205 95.231414 
L 177.038078 94.779556 
L 177.33295 95.751397 
L 177.627823 92.755508 
L 177.922695 92.573487 
L 178.217568 92.566036 
L 178.51244 91.862968 
L 178.807312 91.703833 
L 179.986802 91.655933 
L 180.281675 92.451076 
L 180.576547 91.0641 
L 180.871419 91.117855 
L 181.166292 90.73625 
L 181.461164 88.088436 
L 181.756037 88.240652 
L 182.345782 88.158689 
L 182.640654 87.908012 
L 182.935526 86.221394 
L 183.230399 86.218733 
L 183.525271 84.151043 
L 184.115016 84.023309 
L 184.409889 84.033421 
L 184.704761 84.551275 
L 184.999633 84.669429 
L 185.294506 84.656123 
L 185.589378 83.767841 
L 186.179123 80.133284 
L 186.473996 79.980535 
L 186.768868 78.655298 
L 187.358613 78.566948 
L 187.948358 78.584512 
L 188.538103 78.687763 
L 189.42272 78.603672 
L 190.60221 78.003323 
L 191.191954 77.921361 
L 191.486827 77.920828 
L 191.781699 270.535355 
L 192.076572 256.003511 
L 192.961189 227.529527 
L 193.256061 216.188898 
L 195.615041 172.530031 
L 195.909913 169.342542 
L 196.204786 168.939648 
L 196.499658 168.275965 
L 197.384275 159.427741 
L 197.679148 152.624321 
L 198.268893 146.762938 
L 198.563765 146.041775 
L 199.743255 134.522319 
L 200.038127 133.853845 
L 200.627872 126.66616 
L 200.922745 123.883161 
L 201.512489 116.139834 
L 201.807362 113.73152 
L 202.102234 113.002373 
L 202.986852 105.498547 
L 203.281724 104.614523 
L 203.576596 104.595895 
L 203.871469 103.201468 
L 204.166341 100.908115 
L 204.461214 100.761754 
L 204.756086 100.473288 
L 205.050959 99.395002 
L 205.345831 99.381165 
L 205.640703 97.741915 
L 205.935576 96.804136 
L 206.230448 96.731221 
L 206.525321 96.350149 
L 206.820193 96.187288 
L 208.589428 91.420158 
L 208.8843 90.832583 
L 209.474045 88.590323 
L 209.768918 88.401383 
L 210.358662 86.91914 
L 210.653535 86.936703 
L 210.948407 86.389577 
L 211.24328 86.32571 
L 211.538152 85.834467 
L 211.833025 85.835532 
L 212.127897 84.029163 
L 212.422769 83.483101 
L 212.717642 84.178186 
L 213.012514 80.691054 
L 213.307387 78.602607 
L 213.602259 78.218874 
L 214.486876 78.175231 
L 214.781749 76.889911 
L 215.371494 76.893104 
L 215.666366 76.258693 
L 215.961239 76.257096 
L 216.256111 73.368184 
L 216.550983 73.00095 
L 217.435601 72.789657 
L 217.730473 73.435777 
L 218.025346 71.934905 
L 218.320218 71.517109 
L 218.909963 71.425034 
L 219.499708 71.391504 
L 219.79458 70.762948 
L 220.384325 70.719305 
L 220.679197 70.532495 
L 221.563815 70.381343 
L 221.858687 69.305186 
L 222.743304 69.213644 
L 223.038177 68.413179 
L 223.333049 68.412647 
L 223.627922 68.224772 
L 224.807411 68.216256 
L 225.102284 67.998044 
L 225.692029 68.031574 
L 225.986901 67.435483 
L 226.281774 67.248673 
L 228.051008 67.211949 
L 228.345881 66.68079 
L 228.640753 66.920291 
L 230.115115 66.82928 
L 230.999732 66.692499 
L 231.589477 66.691434 
L 232.179222 66.589247 
L 233.653584 66.650985 
L 233.948457 66.09215 
L 234.243329 65.884583 
L 235.717691 65.982512 
L 236.012564 65.396001 
L 238.666416 65.308716 
L 239.845905 64.970222 
L 241.61514 65.091569 
L 241.910012 64.883469 
L 242.204885 64.175611 
L 243.384375 64.313457 
L 244.268992 64.084069 
L 244.563864 64.034572 
L 245.153609 64.140485 
L 245.743354 64.240543 
L 246.922844 64.325166 
L 247.217716 63.738123 
L 250.461313 63.688094 
L 250.756185 190.756574 
L 251.051058 177.869834 
L 251.640803 165.01077 
L 251.935675 157.724092 
L 252.230547 154.279006 
L 252.52542 148.328209 
L 253.115165 140.324625 
L 253.410037 136.00882 
L 253.999782 131.658421 
L 254.884399 124.314794 
L 255.179272 123.714978 
L 256.063889 117.666785 
L 256.358761 117.330419 
L 256.948506 114.80129 
L 257.538251 110.073012 
L 257.833124 109.473196 
L 258.127996 107.280965 
L 258.422868 106.839752 
L 258.717741 105.724742 
L 259.012613 103.724112 
L 259.307486 103.761368 
L 259.602358 102.87628 
L 260.486975 99.315701 
L 260.781848 98.641373 
L 261.07672 97.657291 
L 261.371593 96.27617 
L 262.845955 92.712398 
L 263.730572 89.326389 
L 264.025445 89.25241 
L 264.910062 85.425719 
L 265.204934 84.905204 
L 265.499807 84.899882 
L 265.794679 83.885463 
L 266.384424 83.780615 
L 266.974169 82.864657 
L 267.563914 82.821547 
L 267.858786 82.369689 
L 268.153659 82.331369 
L 268.448531 81.941249 
L 268.743404 81.253083 
L 269.333148 78.758017 
L 269.922893 78.648379 
L 270.512638 77.84472 
L 270.807511 77.749985 
L 271.397255 76.841478 
L 271.987 76.871815 
L 272.871618 75.598735 
L 273.461362 74.163859 
L 273.756235 73.428858 
L 274.34598 73.378297 
L 274.640852 72.949856 
L 275.230597 72.901956 
L 275.525469 72.334073 
L 275.820342 72.3213 
L 276.115214 71.793866 
L 279.653683 71.704452 
L 279.948556 71.37128 
L 280.243428 71.378199 
L 280.538301 71.087072 
L 281.128046 71.092394 
L 281.422918 70.766673 
L 282.012663 70.741659 
L 282.307535 70.308429 
L 282.602408 70.721967 
L 282.89728 70.715048 
L 283.487025 69.711805 
L 283.781897 69.714999 
L 285.25626 67.199176 
L 285.551132 66.29067 
L 285.846004 65.856375 
L 288.499856 65.769622 
L 288.794729 64.616825 
L 290.858836 64.587021 
L 291.153708 64.469931 
L 291.448581 64.497607 
L 291.743453 64.845681 
L 292.922943 64.911677 
L 293.217815 64.513574 
L 294.397305 64.436401 
L 297.640902 64.405532 
L 297.935774 64.130372 
L 298.525519 64.152726 
L 298.820391 64.349116 
L 299.999881 64.353906 
L 300.884498 64.34752 
L 301.179371 64.231495 
L 302.358861 64.262364 
L 303.53835 64.290572 
L 306.781947 64.326231 
L 307.076819 64.232027 
L 307.961437 64.277798 
L 309.435799 64.313457 
L 309.730671 149.14198 
L 310.615289 137.074865 
L 311.499906 127.586375 
L 312.384523 120.801052 
L 312.679396 119.623772 
L 312.974268 117.658269 
L 313.26914 114.92317 
L 313.564013 113.840094 
L 314.153758 109.9671 
L 314.743503 105.985532 
L 315.038375 105.24308 
L 315.62812 102.569186 
L 315.922992 101.578717 
L 316.217865 101.413196 
L 316.80761 100.155018 
L 317.102482 98.678097 
L 317.397354 97.872842 
L 318.576844 92.613936 
L 318.871717 91.945995 
L 319.461461 91.602711 
L 320.051206 89.842114 
L 320.346079 88.698364 
L 320.935824 88.313034 
L 321.525568 87.532262 
L 322.115313 85.722168 
L 322.410186 85.458717 
L 322.705058 84.632173 
L 322.999931 84.177654 
L 323.294803 83.404865 
L 323.589676 82.979618 
L 323.884548 81.719311 
L 324.17942 81.486197 
L 324.474293 80.937474 
L 324.769165 80.947054 
L 325.35891 79.828319 
L 325.653783 79.168361 
L 325.948655 79.040095 
L 326.5384 78.589834 
L 326.833272 78.560029 
L 327.128145 77.840463 
L 327.423017 77.547739 
L 327.71789 77.553594 
L 328.012762 76.901087 
L 328.307634 76.535449 
L 328.897379 75.173488 
L 329.192252 75.427891 
L 329.487124 74.848299 
L 330.371741 74.023352 
L 330.666614 74.18089 
L 330.961486 74.148957 
L 332.435848 72.40752 
L 332.730721 72.244127 
L 333.025593 72.38836 
L 333.615338 72.363878 
L 334.205083 71.997708 
L 334.499955 71.593217 
L 335.0897 71.597475 
L 335.384573 71.278673 
L 335.679445 70.645326 
L 335.974318 70.63415 
L 337.153807 70.174308 
L 337.44868 70.154084 
L 337.743552 69.993884 
L 338.038425 69.980579 
L 338.333297 69.352554 
L 338.628169 69.448887 
L 338.923042 69.30838 
L 339.217914 68.829378 
L 339.512787 68.855989 
L 340.102532 68.183258 
L 340.397404 68.050202 
L 340.692276 68.209869 
L 341.282021 67.72661 
L 341.576894 67.371084 
L 341.871766 67.366294 
L 342.166639 67.065055 
L 343.641001 67.05654 
L 343.935873 66.732415 
L 344.82049 66.708465 
L 345.115363 66.567958 
L 345.410235 66.560507 
L 345.705108 66.371035 
L 346.589725 66.36731 
L 347.474342 65.98677 
L 348.35896 66.003801 
L 348.653832 65.499252 
L 349.243577 65.492334 
L 349.538449 65.251236 
L 350.128194 65.246446 
L 350.717939 64.767977 
L 351.602556 64.765316 
L 351.897429 64.586488 
L 358.384622 64.50559 
L 358.679495 64.247462 
L 363.102581 63.881292 
L 363.397454 63.728011 
L 366.346178 63.743446 
L 369.884647 63.589101 
L 370.474392 63.445932 
L 371.064137 63.55557 
L 372.833371 63.690755 
L 373.128244 63.824344 
L 386.102631 64.249591 
L 386.397503 64.405 
L 393.179569 64.566796 
L 398.1924 64.645033 
L 398.1924 64.645033 
" style="fill:none;stroke:#1f77b4;stroke-linecap:square;stroke-opacity:0.5;stroke-width:1.5;"/>
   </g>
   <g id="line2d_15">
    <path clip-path="url(#p4f17a698ba)" d="M 87.08733 346.6 
L 87.101987 346.157467 
L 87.396859 345.432578 
L 87.691731 341.297729 
L 87.986604 340.246587 
L 88.871221 324.845621 
L 89.460966 318.866617 
L 89.755838 316.512058 
L 90.640456 302.316579 
L 90.935328 300.989212 
L 91.230201 298.414313 
L 91.525073 297.206164 
L 91.819946 293.345411 
L 92.114818 286.987463 
L 92.40969 284.237994 
L 92.999435 276.124239 
L 93.884053 272.612093 
L 94.178925 267.744372 
L 94.473797 260.719016 
L 94.76867 258.576814 
L 95.063542 252.628146 
L 95.653287 246.848726 
L 95.94816 245.558083 
L 96.243032 241.902236 
L 96.537904 239.966005 
L 96.832777 238.834497 
L 97.127649 236.044579 
L 97.717394 232.926278 
L 98.307139 227.192629 
L 100.076374 212.48728 
L 100.371246 207.514711 
L 100.666118 204.837092 
L 100.960991 205.266065 
L 102.140481 203.025934 
L 102.435353 202.69223 
L 102.730225 201.593187 
L 103.025098 201.519208 
L 103.614843 196.862248 
L 103.909715 196.686082 
L 104.204588 194.3427 
L 104.49946 194.101602 
L 104.794332 192.170161 
L 105.384077 190.381889 
L 105.67895 189.943868 
L 106.268695 185.218783 
L 106.563567 181.375594 
L 106.858439 181.066904 
L 107.448184 179.015181 
L 107.743057 178.499988 
L 108.037929 177.691539 
L 108.332802 177.404138 
L 108.627674 174.402927 
L 108.922546 172.999453 
L 109.217419 172.769 
L 109.512291 170.393152 
L 110.102036 168.832139 
L 110.396909 166.734112 
L 110.691781 166.433937 
L 111.576398 164.807993 
L 111.871271 164.573282 
L 112.461016 162.808428 
L 112.755888 160.656114 
L 113.05076 160.308039 
L 113.345633 160.212239 
L 113.935378 158.349455 
L 115.114867 158.121131 
L 115.40974 157.542071 
L 115.704612 156.296667 
L 115.999485 156.184368 
L 116.294357 155.852792 
L 116.58923 155.985316 
L 116.884102 154.971961 
L 117.473847 154.915013 
L 117.768719 153.761152 
L 118.063592 153.585518 
L 118.358464 153.584453 
L 118.653337 152.973992 
L 118.948209 153.225734 
L 119.537954 152.441236 
L 119.832826 152.503506 
L 120.127699 152.403448 
L 120.422571 151.978734 
L 120.717444 152.03302 
L 121.012316 151.346984 
L 121.307189 151.730717 
L 121.602061 151.718476 
L 121.896933 151.145271 
L 122.191806 150.89619 
L 123.076423 150.883417 
L 123.371296 150.065921 
L 123.666168 150.099983 
L 123.96104 149.686977 
L 124.255913 149.498038 
L 124.550785 149.493247 
L 124.845658 149.253214 
L 125.14053 149.528906 
L 125.435403 148.719394 
L 126.32002 148.77102 
L 126.614892 148.342047 
L 126.909765 148.338854 
L 127.204637 147.914139 
L 127.794382 147.915736 
L 128.678999 147.928509 
L 128.973872 147.720409 
L 129.268744 147.334015 
L 129.563617 146.072644 
L 130.153361 146.072112 
L 130.448234 144.594126 
L 130.743106 144.461602 
L 131.037979 144.072546 
L 131.332851 144.077868 
L 131.627724 144.433394 
L 132.512341 144.341319 
L 132.807213 225.87431 
L 133.396958 215.955252 
L 135.166193 194.871198 
L 135.755938 191.398969 
L 136.345682 187.6255 
L 136.640555 186.446624 
L 137.2303 183.026021 
L 139.294407 174.039418 
L 139.589279 173.416184 
L 140.179024 170.679488 
L 141.358514 166.676099 
L 141.948259 165.549913 
L 142.243131 165.055477 
L 143.127748 162.858989 
L 144.012366 161.005785 
L 144.307238 160.686983 
L 144.60211 163.031429 
L 144.896983 164.372634 
L 145.486728 163.449757 
L 145.7816 162.974481 
L 146.076473 162.720611 
L 146.666217 161.5742 
L 148.14058 159.465529 
L 148.435452 159.233479 
L 148.730324 159.188772 
L 149.320069 158.620889 
L 149.614942 158.085472 
L 149.909814 157.882694 
L 150.204687 157.29299 
L 151.089304 154.565342 
L 151.679049 154.333825 
L 151.973921 153.707397 
L 152.268794 154.057601 
L 152.563666 153.881434 
L 153.153411 153.381676 
L 153.448283 153.323131 
L 154.038028 152.87766 
L 154.332901 152.678076 
L 154.627773 153.738798 
L 155.217518 153.417335 
L 156.102135 153.189543 
L 156.397008 152.910126 
L 156.986753 152.750458 
L 157.281625 150.783891 
L 157.576497 150.763666 
L 157.87137 152.223557 
L 158.166242 152.159158 
L 158.461115 152.421544 
L 158.755987 152.198542 
L 159.935477 152.060164 
L 160.230349 154.149143 
L 161.704711 153.913368 
L 161.999584 153.579131 
L 162.294456 153.522183 
L 162.589329 153.219348 
L 163.179074 153.013909 
L 163.473946 152.723847 
L 164.358563 152.567373 
L 164.653436 152.210783 
L 164.948308 152.210251 
L 165.243181 151.608838 
L 165.538053 151.780214 
L 165.832925 151.661528 
L 166.127798 152.049519 
L 166.717543 151.919657 
L 168.191905 151.722734 
L 169.076522 151.586484 
L 169.371395 151.90848 
L 170.550884 151.786601 
L 172.320119 151.523682 
L 173.794481 151.454493 
L 174.384226 146.761342 
L 174.679098 146.628286 
L 175.563716 146.566548 
L 175.858588 146.461167 
L 176.15346 146.47607 
L 176.448333 147.883802 
L 178.217568 147.775761 
L 178.51244 148.310114 
L 181.461164 148.294147 
L 181.756037 147.818339 
L 182.050909 149.405963 
L 183.820144 149.31921 
L 184.115016 148.131286 
L 187.06374 148.11532 
L 187.358613 146.57666 
L 187.653485 146.553774 
L 187.948358 146.205168 
L 188.24323 146.201442 
L 188.538103 146.386124 
L 189.42272 146.232311 
L 189.717592 145.586723 
L 191.486827 145.571289 
L 191.781699 104.09454 
L 192.076572 103.971597 
L 193.845806 104.033335 
L 194.140679 103.921567 
L 194.435551 104.093476 
L 195.320168 103.949775 
L 196.204786 103.999272 
L 196.499658 103.902407 
L 197.384275 104.011513 
L 198.563765 103.894424 
L 199.448382 104.009384 
L 200.038127 103.978515 
L 200.333 104.239837 
L 200.922745 104.189808 
L 202.102234 104.186083 
L 202.986852 104.119555 
L 205.050959 104.152553 
L 205.935576 104.009917 
L 206.820193 104.220145 
L 207.115066 104.109975 
L 207.704811 104.219081 
L 212.127897 104.578332 
L 212.422769 104.359588 
L 213.012514 104.347347 
L 213.307387 104.296253 
L 213.602259 103.894956 
L 214.486876 103.827364 
L 214.781749 103.997676 
L 215.371494 103.990757 
L 217.140728 104.05622 
L 218.025346 104.002998 
L 218.61509 104.155214 
L 219.204835 104.00832 
L 220.384325 104.040786 
L 223.922794 103.804478 
L 224.217667 104.593766 
L 224.807411 104.661891 
L 226.281774 104.740128 
L 228.051008 104.852959 
L 229.52537 104.780577 
L 229.820243 104.550656 
L 230.409988 104.610798 
L 230.999732 104.668278 
L 231.589477 104.740128 
L 232.179222 104.602814 
L 232.474095 104.960469 
L 232.768967 104.910972 
L 233.358712 105.053608 
L 234.243329 104.965791 
L 234.538202 104.914165 
L 235.127946 105.009433 
L 235.717691 105.119604 
L 237.192054 104.911504 
L 239.256161 104.965259 
L 239.551033 104.864668 
L 239.845905 104.918423 
L 240.140778 104.858282 
L 240.43565 104.937051 
L 241.61514 104.806656 
L 242.79463 104.903521 
L 243.384375 105.008901 
L 243.974119 104.916826 
L 245.448482 104.686373 
L 247.512589 104.918955 
L 248.102333 104.674132 
L 249.281823 104.621974 
L 249.576696 104.811978 
L 250.461313 104.852959 
L 250.721655 346.6 
M 251.962972 346.6 
L 252.230547 343.388837 
L 253.410037 318.070942 
L 253.70491 308.144432 
L 254.294654 302.091448 
L 254.589527 296.612202 
L 254.884399 296.748984 
L 255.179272 294.640845 
L 255.474144 289.699145 
L 255.769017 287.962498 
L 256.063889 284.702094 
L 256.358761 279.860984 
L 256.948506 274.021422 
L 257.243379 268.737502 
L 258.127996 258.669953 
L 258.422868 253.752204 
L 258.717741 246.273392 
L 259.012613 244.194525 
L 259.307486 241.040033 
L 259.602358 240.975102 
L 259.897231 235.323948 
L 260.192103 234.428747 
L 260.486975 231.45255 
L 260.781848 231.216775 
L 261.07672 230.124119 
L 261.371593 226.128181 
L 261.666465 224.829022 
L 261.961338 224.082312 
L 262.25621 222.018348 
L 263.140827 209.476489 
L 263.4357 207.986262 
L 263.730572 207.887268 
L 264.025445 208.286436 
L 264.320317 204.223438 
L 264.615189 203.537401 
L 264.910062 203.292046 
L 265.499807 201.61075 
L 265.794679 199.145489 
L 266.089552 199.527626 
L 266.384424 197.823977 
L 266.679297 193.019058 
L 266.974169 193.139341 
L 267.269041 192.146743 
L 267.563914 190.412225 
L 268.153659 188.605857 
L 268.448531 186.521668 
L 268.743404 182.534778 
L 269.628021 178.391414 
L 269.922893 178.073676 
L 270.217766 176.201844 
L 270.807511 174.472649 
L 271.102383 168.854492 
L 271.397255 169.113153 
L 271.692128 168.137586 
L 272.281873 167.46113 
L 272.576745 166.760723 
L 272.871618 166.560074 
L 273.16649 164.418937 
L 273.461362 163.460402 
L 273.756235 160.993544 
L 274.051107 160.308039 
L 274.34598 155.381242 
L 274.935725 152.798891 
L 275.230597 151.22404 
L 275.525469 147.662397 
L 275.820342 147.458555 
L 276.115214 144.806483 
L 277.294704 141.417281 
L 277.589576 138.08609 
L 278.179321 135.498417 
L 278.474194 135.544189 
L 279.063939 132.817073 
L 279.358811 132.955983 
L 279.653683 132.267286 
L 280.538301 131.66055 
L 280.833173 133.108199 
L 281.128046 131.27522 
L 281.422918 132.200225 
L 281.71779 130.634422 
L 282.012663 130.609408 
L 282.307535 127.333569 
L 282.89728 127.255332 
L 283.192153 126.91737 
L 283.487025 127.808313 
L 283.781897 126.982833 
L 284.07677 126.817844 
L 284.371642 125.915724 
L 284.666515 123.381806 
L 285.25626 121.046939 
L 285.846004 120.95859 
L 286.140877 120.710041 
L 286.435749 120.653626 
L 286.730622 120.280004 
L 287.025494 121.72925 
L 287.320367 120.031988 
L 287.615239 119.928204 
L 287.910111 120.400287 
L 288.204984 120.373144 
L 288.794729 117.576839 
L 289.089601 115.032808 
L 289.384474 114.967344 
L 289.679346 113.924185 
L 289.974218 114.869415 
L 290.269091 114.720925 
L 290.563963 113.916734 
L 290.858836 114.161557 
L 291.153708 114.185507 
L 291.448581 113.705974 
L 291.743453 112.365301 
L 292.038325 111.664894 
L 292.333198 110.661652 
L 292.62807 110.595656 
L 292.922943 109.680231 
L 293.217815 106.964824 
L 293.512688 105.358572 
L 294.102432 106.700841 
L 294.397305 104.410681 
L 294.692177 103.591056 
L 294.98705 103.822042 
L 295.281922 103.259481 
L 295.576795 101.624489 
L 295.871667 101.514851 
L 296.16654 100.418469 
L 296.461412 98.207078 
L 297.051157 98.574313 
L 297.346029 99.211917 
L 297.640902 98.895244 
L 297.935774 98.901098 
L 298.230647 101.12473 
L 298.525519 100.609538 
L 298.820391 100.582926 
L 299.115264 99.813863 
L 299.410136 99.632374 
L 299.705009 98.765914 
L 299.999881 98.50193 
L 300.294754 95.969609 
L 300.589626 95.913725 
L 300.884498 94.401145 
L 301.179371 93.931723 
L 301.474243 93.692222 
L 302.063988 93.601744 
L 302.358861 93.640596 
L 302.653733 92.815117 
L 302.948605 92.806069 
L 303.243478 94.466608 
L 303.833223 94.361228 
L 304.128095 92.99288 
L 304.422968 92.960946 
L 305.012712 93.079632 
L 305.307585 91.646885 
L 305.602457 91.337131 
L 306.192202 89.050164 
L 306.487075 89.046439 
L 306.781947 88.366257 
L 307.076819 88.439171 
L 308.256309 88.09908 
L 308.551182 88.090565 
L 308.846054 87.889384 
L 309.140926 86.795664 
L 309.435799 86.1703 
L 309.730671 280.286231 
L 310.025544 269.132413 
L 310.320416 262.813317 
L 310.910161 244.593693 
L 312.089651 218.803715 
L 312.679396 206.245889 
L 313.564013 196.79572 
L 313.858885 196.539188 
L 314.44863 188.134839 
L 315.333247 179.050307 
L 315.62812 177.31366 
L 316.217865 172.542272 
L 316.512737 171.955761 
L 317.692227 162.771704 
L 318.281972 156.291877 
L 318.871717 153.647788 
L 319.166589 150.624756 
L 320.051206 147.544243 
L 320.346079 145.149235 
L 320.640951 143.679233 
L 320.935824 140.020193 
L 321.525568 138.514531 
L 322.115313 135.605394 
L 322.410186 135.556962 
L 322.705058 133.796365 
L 322.999931 132.780882 
L 323.294803 132.217789 
L 323.589676 131.16026 
L 323.884548 129.630116 
L 324.17942 129.38955 
L 324.474293 129.383164 
L 324.769165 127.883356 
L 325.35891 126.660838 
L 325.653783 125.059908 
L 325.948655 124.571859 
L 327.71789 117.478909 
L 328.012762 116.913688 
L 328.307634 116.074903 
L 328.602507 116.719426 
L 328.897379 115.904591 
L 329.487124 113.137558 
L 329.781997 113.049209 
L 330.076869 112.389784 
L 330.371741 112.014033 
L 330.961486 108.755758 
L 331.256359 108.724357 
L 331.551231 108.279418 
L 332.435848 105.351653 
L 332.730721 104.899263 
L 333.320466 105.00624 
L 333.910211 103.41489 
L 334.499955 103.255755 
L 335.0897 101.595216 
L 335.679445 99.976723 
L 335.974318 100.025156 
L 336.26919 99.236932 
L 336.564062 98.870762 
L 336.858935 98.728658 
L 337.44868 97.582247 
L 337.743552 97.25014 
L 338.038425 96.153758 
L 338.628169 95.233011 
L 338.923042 94.798184 
L 339.217914 93.728946 
L 339.512787 93.628888 
L 339.807659 93.092938 
L 340.102532 93.460705 
L 340.692276 91.988573 
L 341.576894 90.841098 
L 341.871766 90.76978 
L 342.166639 90.266829 
L 342.756383 88.871337 
L 343.051256 88.561051 
L 343.935873 86.97662 
L 344.230746 86.62482 
L 344.525618 86.516778 
L 344.82049 85.891415 
L 345.115363 85.631158 
L 345.410235 84.867416 
L 345.705108 84.743408 
L 345.99998 84.055242 
L 346.294853 83.842353 
L 346.589725 83.925912 
L 346.884597 84.446427 
L 347.17947 83.804033 
L 348.653832 82.123801 
L 348.948704 82.100383 
L 349.243577 81.336642 
L 349.538449 80.973133 
L 349.833322 81.19986 
L 350.128194 81.007728 
L 350.423067 80.974198 
L 350.717939 80.05345 
L 351.012811 79.889525 
L 351.602556 79.883671 
L 351.897429 79.69686 
L 352.192301 78.938973 
L 352.782046 78.540869 
L 353.076919 79.00763 
L 353.666663 78.651572 
L 353.961536 77.765951 
L 354.256408 77.897411 
L 355.141026 77.036804 
L 355.435898 76.729179 
L 355.73077 76.240597 
L 356.025643 76.224098 
L 356.615388 75.744564 
L 356.91026 76.261354 
L 357.205133 76.262418 
L 357.794877 76.146394 
L 358.08975 75.687084 
L 358.974367 75.61896 
L 359.26924 75.195309 
L 360.153857 74.650844 
L 360.448729 74.609331 
L 360.743602 74.069656 
L 361.333347 73.857298 
L 361.628219 74.375684 
L 362.217964 74.358121 
L 363.397454 73.349024 
L 363.692326 73.343702 
L 363.987198 73.049382 
L 364.282071 73.042463 
L 364.576943 73.466646 
L 365.166688 73.422471 
L 365.461561 72.980193 
L 365.756433 73.002014 
L 366.051305 72.73058 
L 366.64105 72.736967 
L 367.525668 72.274464 
L 368.705157 72.105217 
L 369.294902 73.764691 
L 370.179519 75.275143 
L 370.769264 74.820091 
L 371.948754 74.897796 
L 372.243626 74.700341 
L 372.538499 74.720033 
L 372.833371 74.391651 
L 373.128244 74.411343 
L 374.307733 73.962679 
L 375.192351 74.07551 
L 375.487223 73.867943 
L 375.782096 73.878055 
L 376.076968 73.724774 
L 376.37184 73.167536 
L 377.256458 72.790189 
L 378.73082 72.901424 
L 379.320565 72.212194 
L 379.615437 72.224435 
L 379.91031 72.019529 
L 380.205182 72.026448 
L 381.089799 71.626215 
L 381.974417 71.676776 
L 382.269289 71.797591 
L 382.564162 71.427696 
L 382.859034 71.568203 
L 383.743651 71.503804 
L 384.038524 71.339346 
L 385.512886 71.35212 
L 385.807758 71.522431 
L 386.102631 71.528286 
L 386.397503 70.993401 
L 387.28212 71.053542 
L 387.576993 70.767206 
L 388.46161 71.076428 
L 389.051355 71.101442 
L 389.6411 70.971047 
L 389.935972 70.971047 
L 390.230845 70.782108 
L 390.525717 70.783172 
L 390.82059 70.597958 
L 391.115462 69.933211 
L 391.705207 70.363248 
L 393.769314 70.287672 
L 394.064186 69.865086 
L 394.359059 70.10778 
L 394.653931 70.114699 
L 394.948804 70.304171 
L 397.012911 70.338765 
L 397.307783 70.407422 
L 397.602655 70.247755 
L 397.897528 70.254674 
L 398.1924 70.490449 
L 398.1924 70.490449 
" style="fill:none;stroke:#ff7f0e;stroke-linecap:square;stroke-opacity:0.5;stroke-width:1.5;"/>
   </g>
   <g id="line2d_16">
    <path clip-path="url(#p4f17a698ba)" d="M 107.281076 346.6 
L 107.448184 345.433642 
L 107.743057 340.927834 
L 108.037929 338.209766 
L 108.332802 339.057066 
L 109.512291 333.029629 
L 109.807164 332.163169 
L 110.102036 333.000357 
L 110.396909 328.219389 
L 110.691781 326.73342 
L 110.986653 325.881861 
L 111.281526 323.780109 
L 111.576398 323.452791 
L 111.871271 320.196112 
L 112.166143 319.563298 
L 112.755888 315.722769 
L 113.05076 313.078681 
L 113.345633 312.275555 
L 113.640505 310.554342 
L 113.935378 308.026278 
L 114.23025 307.5361 
L 114.525123 305.177815 
L 114.819995 304.323064 
L 115.40974 296.182165 
L 116.294357 293.30922 
L 116.58923 291.310719 
L 116.884102 290.637988 
L 117.473847 287.130632 
L 117.768719 286.959256 
L 118.063592 286.972029 
L 118.653337 282.604067 
L 118.948209 281.298521 
L 119.243081 283.245929 
L 119.537954 279.008893 
L 119.832826 278.695946 
L 120.127699 276.52873 
L 120.422571 276.345645 
L 120.717444 275.477587 
L 121.012316 275.152398 
L 121.307189 275.007101 
L 121.602061 273.781389 
L 121.896933 271.616302 
L 122.191806 271.03671 
L 122.781551 270.703538 
L 123.076423 269.962682 
L 123.371296 268.035499 
L 123.666168 267.755549 
L 123.96104 263.880426 
L 124.255913 264.629798 
L 124.550785 264.217324 
L 125.730275 258.30538 
L 126.025147 256.637922 
L 126.614892 255.776784 
L 127.204637 254.033218 
L 127.49951 254.898082 
L 127.794382 254.441966 
L 128.089254 252.214608 
L 128.678999 251.804264 
L 128.973872 251.580197 
L 129.268744 250.722252 
L 129.858489 250.170868 
L 130.153361 251.368904 
L 130.448234 251.573278 
L 130.743106 251.240638 
L 131.037979 251.374227 
L 131.332851 250.806344 
L 131.922596 250.283167 
L 132.512341 248.849356 
L 132.616372 346.6 
M 141.049777 346.6 
L 141.358514 343.720413 
L 141.653386 341.551068 
L 142.243131 335.77697 
L 142.538003 333.580481 
L 142.832876 330.47389 
L 143.127748 329.142798 
L 144.012366 321.124843 
L 144.307238 320.567072 
L 144.60211 318.862359 
L 144.896983 317.888921 
L 145.191855 316.091068 
L 145.486728 312.606598 
L 145.7816 312.029667 
L 146.076473 309.609112 
L 146.371345 308.949687 
L 146.666217 306.673897 
L 146.96109 306.23907 
L 147.255962 303.417218 
L 147.550835 301.923798 
L 147.845707 301.215408 
L 148.14058 299.674087 
L 148.435452 299.49526 
L 148.730324 297.337091 
L 149.320069 295.388087 
L 149.614942 295.130491 
L 149.909814 293.69934 
L 150.204687 291.613022 
L 150.499559 290.634794 
L 150.794432 288.352618 
L 151.089304 287.424419 
L 151.384176 285.141711 
L 151.679049 284.376905 
L 151.973921 283.265089 
L 152.268794 280.944592 
L 152.563666 280.167013 
L 152.858539 277.050841 
L 153.153411 276.76344 
L 153.448283 275.830984 
L 153.743156 275.54518 
L 154.038028 275.00444 
L 154.332901 275.252456 
L 154.627773 273.481747 
L 154.922646 273.64035 
L 155.217518 273.388608 
L 155.51239 271.328901 
L 155.807263 270.593368 
L 156.102135 270.197925 
L 156.397008 269.329868 
L 156.69188 269.087706 
L 156.986753 268.510243 
L 157.281625 267.567142 
L 157.576497 265.945455 
L 158.166242 264.666521 
L 158.461115 264.636184 
L 158.755987 263.175762 
L 159.05086 262.626506 
L 159.345732 260.513577 
L 159.640604 260.284721 
L 159.935477 260.467274 
L 160.230349 258.969595 
L 160.525222 258.493787 
L 160.820094 258.766818 
L 161.114967 258.813122 
L 161.409839 258.040865 
L 161.704711 256.862521 
L 161.999584 256.272816 
L 162.294456 254.960884 
L 162.589329 255.038057 
L 162.884201 254.990689 
L 163.179074 253.929966 
L 163.473946 253.69632 
L 163.768818 253.609035 
L 164.063691 252.523298 
L 164.358563 250.626452 
L 164.948308 249.262894 
L 165.243181 249.189979 
L 165.832925 248.049423 
L 166.127798 246.888643 
L 166.42267 246.618273 
L 166.717543 246.176527 
L 168.191905 241.749488 
L 168.486777 241.607916 
L 168.78165 240.465764 
L 169.076522 240.595094 
L 169.666267 240.239568 
L 169.961139 239.876592 
L 170.256012 239.284226 
L 170.550884 239.303919 
L 170.845757 238.781807 
L 171.140629 238.497067 
L 171.730374 237.384719 
L 172.320119 235.554933 
L 172.614991 235.685328 
L 172.909864 235.204729 
L 173.204736 234.248323 
L 173.499609 234.129637 
L 174.089353 231.632442 
L 174.384226 231.242854 
L 174.679098 231.41902 
L 175.268843 230.104959 
L 175.563716 230.075154 
L 176.15346 228.504029 
L 176.448333 227.897294 
L 177.038078 227.579024 
L 177.627823 224.983367 
L 177.922695 224.570362 
L 178.217568 224.370245 
L 178.51244 223.549024 
L 179.102185 222.990721 
L 179.69193 221.571812 
L 179.986802 220.476495 
L 180.281675 220.053909 
L 180.576547 219.370001 
L 180.871419 219.297086 
L 181.756037 218.207091 
L 182.050909 218.008572 
L 182.345782 217.967058 
L 182.640654 217.599292 
L 183.820144 215.161174 
L 184.115016 215.223976 
L 184.409889 214.57892 
L 184.704761 214.309083 
L 184.999633 214.285133 
L 185.294506 214.030198 
L 185.589378 213.371304 
L 186.473996 213.35108 
L 187.06374 212.688993 
L 187.358613 212.596918 
L 187.948358 211.390366 
L 188.24323 211.381319 
L 188.832975 211.770374 
L 189.127847 211.789002 
L 189.42272 211.507456 
L 189.717592 211.021003 
L 190.012465 211.198234 
L 190.307337 210.634076 
L 190.60221 209.654252 
L 190.897082 209.358335 
L 191.486827 209.360464 
L 191.781699 146.839046 
L 192.666317 146.575596 
L 192.961189 146.61977 
L 193.550934 146.421783 
L 194.140679 146.427105 
L 194.435551 146.399429 
L 195.320168 145.963538 
L 196.499658 146.018357 
L 197.089403 145.82995 
L 198.268893 145.970457 
L 198.858638 145.841659 
L 199.15351 145.932137 
L 199.743255 145.86348 
L 200.038127 145.843255 
L 200.333 145.620786 
L 202.986852 145.359996 
L 203.576596 145.411089 
L 204.166341 145.178508 
L 204.461214 145.35148 
L 205.050959 145.340304 
L 205.345831 145.261534 
L 205.640703 145.040129 
L 206.230448 145.110383 
L 206.820193 145.061418 
L 208.8843 145.068869 
L 209.179173 144.909734 
L 210.06379 145.130075 
L 210.653535 145.002341 
L 212.717642 144.750599 
L 213.897132 145.115173 
L 214.192004 145.106125 
L 214.486876 144.949651 
L 215.666366 145.061418 
L 215.961239 145.253019 
L 216.550983 145.26526 
L 217.140728 144.945926 
L 218.025346 145.200861 
L 219.499708 145.38501 
L 220.384325 145.272179 
L 221.268942 145.281227 
L 221.563815 145.134865 
L 224.217667 145.110383 
L 224.807411 145.386607 
L 225.397156 145.394058 
L 226.576646 145.093352 
L 226.871518 145.122624 
L 227.461263 145.053967 
L 229.230498 145.200861 
L 229.820243 145.317418 
L 230.409988 145.303048 
L 230.70486 145.186491 
L 231.294605 145.280162 
L 231.589477 145.36585 
L 231.88435 145.702748 
L 232.179222 145.693168 
L 232.768967 145.465908 
L 233.063839 145.560644 
L 233.358712 145.46378 
L 233.653584 145.520195 
L 234.538202 145.252487 
L 234.833074 145.359996 
L 235.422819 145.226408 
L 236.307436 145.210973 
L 236.897181 145.26047 
L 238.076671 145.390865 
L 238.371543 145.214167 
L 238.961288 145.290275 
L 239.551033 145.190749 
L 239.845905 145.24131 
L 240.43565 145.136994 
L 240.730523 145.196603 
L 241.320268 145.067805 
L 241.61514 144.993826 
L 241.910012 145.233859 
L 242.79463 144.703231 
L 243.679247 144.673959 
L 244.858737 144.893768 
L 246.333099 144.895364 
L 246.627971 145.093352 
L 248.102333 144.753261 
L 248.986951 144.868221 
L 249.281823 144.762841 
L 249.576696 144.838416 
L 250.461313 144.716005 
L 250.756185 94.38092 
L 251.34593 93.639 
L 251.640803 93.332439 
L 251.935675 93.202576 
L 252.230547 92.682061 
L 253.115165 91.974735 
L 254.884399 90.071502 
L 255.179272 90.001781 
L 255.769017 89.542472 
L 256.063889 89.366838 
L 256.358761 88.943187 
L 256.653634 88.81226 
L 257.243379 88.237991 
L 257.538251 88.284826 
L 259.602358 86.633868 
L 260.192103 86.380529 
L 260.486975 86.450782 
L 261.371593 85.795082 
L 261.961338 85.774858 
L 262.551082 85.427848 
L 263.140827 85.192605 
L 263.730572 85.092015 
L 264.025445 84.853578 
L 264.615189 84.684863 
L 267.858786 83.461812 
L 268.743404 83.47086 
L 269.333148 83.500665 
L 271.397255 82.939169 
L 275.230597 81.984891 
L 278.179321 81.674604 
L 278.769066 81.70228 
L 280.833173 81.192942 
L 281.422918 81.246696 
L 284.371642 81.277033 
L 284.666515 81.138655 
L 285.846004 81.090222 
L 286.435749 80.921507 
L 287.910111 80.844335 
L 288.499856 80.893832 
L 290.269091 80.677749 
L 294.102432 80.676152 
L 294.692177 80.608027 
L 297.346029 80.731503 
L 299.115264 80.600576 
L 299.999881 80.701699 
L 302.358861 80.826239 
L 303.243478 80.746406 
L 304.128095 80.794306 
L 305.89733 80.853915 
L 306.487075 80.818788 
L 307.666564 80.735229 
L 308.256309 80.777275 
L 308.846054 80.924701 
L 309.435799 80.935345 
L 309.730671 86.828662 
L 310.025544 86.532213 
L 310.320416 87.054324 
L 310.615289 87.145867 
L 310.910161 87.114998 
L 311.205033 87.208669 
L 311.499906 87.495006 
L 312.384523 87.22783 
L 312.679396 87.054324 
L 312.974268 87.253908 
L 313.26914 87.118724 
L 313.564013 86.803647 
L 313.858885 87.085193 
L 314.44863 86.80205 
L 314.743503 86.955863 
L 315.333247 86.780761 
L 316.217865 86.622691 
L 317.102482 86.202766 
L 317.397354 85.95954 
L 317.692227 85.96912 
L 318.576844 85.589112 
L 318.871717 85.864272 
L 319.461461 85.803066 
L 319.756334 85.616787 
L 320.051206 85.082967 
L 320.346079 84.036614 
L 320.935824 83.790195 
L 321.230696 84.05471 
L 321.525568 83.908881 
L 322.115313 84.268664 
L 322.705058 83.94933 
L 322.999931 83.878544 
L 323.294803 83.086062 
L 323.884548 82.826869 
L 324.17942 82.358512 
L 324.474293 81.552725 
L 325.064038 81.401041 
L 325.35891 81.059886 
L 325.653783 80.91725 
L 325.948655 80.602705 
L 326.243527 80.521807 
L 326.5384 80.162556 
L 326.833272 79.611704 
L 327.128145 79.617559 
L 327.423017 80.054514 
L 327.71789 80.035887 
L 329.192252 77.863348 
L 329.487124 77.799481 
L 329.781997 77.45939 
L 330.076869 77.738808 
L 330.371741 77.295465 
L 330.666614 77.281095 
L 331.256359 76.673295 
L 331.551231 76.289562 
L 331.846104 76.444971 
L 332.435848 76.072947 
L 333.025593 76.043142 
L 333.320466 76.180456 
L 333.615338 76.103283 
L 333.910211 75.437471 
L 334.499955 74.95368 
L 334.794828 74.771127 
L 335.0897 74.763143 
L 335.384573 74.93931 
L 335.679445 74.637006 
L 336.26919 74.52311 
L 336.564062 74.102121 
L 338.038425 74.241032 
L 338.333297 74.413472 
L 338.628169 73.918504 
L 338.923042 73.867943 
L 339.217914 73.650795 
L 339.512787 73.84825 
L 339.807659 73.264933 
L 340.102532 73.024368 
L 340.397404 72.984451 
L 340.692276 72.755594 
L 340.987149 72.222838 
L 341.282021 72.413374 
L 342.461511 72.380377 
L 342.756383 72.895569 
L 343.051256 72.830638 
L 343.346128 72.499063 
L 343.935873 72.471919 
L 344.525618 71.930647 
L 344.82049 72.081799 
L 345.705108 72.077009 
L 345.99998 72.260094 
L 346.294853 71.987595 
L 347.17947 71.956194 
L 347.474342 71.497417 
L 348.064087 71.497417 
L 348.35896 70.970515 
L 348.653832 70.964661 
L 348.948704 71.26111 
L 349.833322 71.199372 
L 350.423067 71.165309 
L 350.717939 70.847571 
L 351.012811 70.832137 
L 351.602556 70.15568 
L 351.897429 70.396246 
L 353.371791 70.390391 
L 353.961536 69.87094 
L 354.551281 69.859231 
L 354.846153 69.76077 
L 355.435898 69.761302 
L 355.73077 69.428662 
L 356.025643 69.425469 
L 356.320515 69.64581 
L 356.615388 69.682001 
L 356.91026 69.122633 
L 357.500005 69.155099 
L 357.794877 69.444097 
L 358.08975 69.457402 
L 358.384622 69.299864 
L 358.679495 69.325411 
L 358.974367 69.516479 
L 359.26924 69.228546 
L 359.858984 69.136471 
L 360.448729 69.122101 
L 360.743602 68.871424 
L 361.038474 68.838958 
L 361.333347 68.645761 
L 361.628219 68.62394 
L 361.923091 68.392954 
L 362.512836 68.422759 
L 362.807709 68.262027 
L 364.576943 68.250851 
L 364.871816 67.987932 
L 365.166688 67.995383 
L 365.756433 67.570668 
L 366.64105 67.541396 
L 366.935923 67.320523 
L 367.525668 67.79846 
L 368.115412 67.367891 
L 368.410285 67.368955 
L 368.705157 67.641454 
L 369.294902 69.280172 
L 369.589775 69.668163 
L 369.884647 70.53143 
L 370.769264 71.084943 
L 371.653882 71.097717 
L 371.948754 70.813509 
L 372.243626 70.290865 
L 373.717989 70.389327 
L 374.012861 70.397842 
L 374.307733 70.226998 
L 374.897478 70.233385 
L 375.487223 69.820379 
L 378.141075 70.050832 
L 378.435947 69.761302 
L 378.73082 69.69371 
L 379.025692 69.956096 
L 379.320565 70.405293 
L 379.615437 70.127472 
L 381.089799 70.207306 
L 381.384672 69.988562 
L 385.512886 70.278624 
L 385.807758 70.087556 
L 386.397503 70.245626 
L 386.987248 70.237111 
L 387.28212 69.958225 
L 388.166738 69.928953 
L 388.46161 69.680404 
L 388.756483 69.690516 
L 389.051355 69.482417 
L 390.82059 69.574492 
L 392.589824 69.581943 
L 392.884697 69.800155 
L 396.423166 69.928953 
L 397.012911 69.455806 
L 397.897528 69.48561 
L 398.1924 69.21045 
L 398.1924 69.21045 
" style="fill:none;stroke:#2ca02c;stroke-linecap:square;stroke-opacity:0.5;stroke-width:1.5;"/>
   </g>
   <g id="patch_3">
    <path d="M 57.6 307.584 
L 57.6 41.472 
" style="fill:none;stroke:#000000;stroke-linecap:square;stroke-linejoin:miter;stroke-width:0.8;"/>
   </g>
   <g id="patch_4">
    <path d="M 414.72 307.584 
L 414.72 41.472 
" style="fill:none;stroke:#000000;stroke-linecap:square;stroke-linejoin:miter;stroke-width:0.8;"/>
   </g>
   <g id="patch_5">
    <path d="M 57.6 307.584 
L 414.72 307.584 
" style="fill:none;stroke:#000000;stroke-linecap:square;stroke-linejoin:miter;stroke-width:0.8;"/>
   </g>
   <g id="patch_6">
    <path d="M 57.6 41.472 
L 414.72 41.472 
" style="fill:none;stroke:#000000;stroke-linecap:square;stroke-linejoin:miter;stroke-width:0.8;"/>
   </g>
   <g id="text_14">
    <!-- Episode durations -->
    <defs>
     <path d="M 9.8125 72.90625 
L 55.90625 72.90625 
L 55.90625 64.59375 
L 19.671875 64.59375 
L 19.671875 43.015625 
L 54.390625 43.015625 
L 54.390625 34.71875 
L 19.671875 34.71875 
L 19.671875 8.296875 
L 56.78125 8.296875 
L 56.78125 0 
L 9.8125 0 
z
" id="DejaVuSans-45"/>
     <path d="M 18.109375 8.203125 
L 18.109375 -20.796875 
L 9.078125 -20.796875 
L 9.078125 54.6875 
L 18.109375 54.6875 
L 18.109375 46.390625 
Q 20.953125 51.265625 25.265625 53.625 
Q 29.59375 56 35.59375 56 
Q 45.5625 56 51.78125 48.09375 
Q 58.015625 40.1875 58.015625 27.296875 
Q 58.015625 14.40625 51.78125 6.484375 
Q 45.5625 -1.421875 35.59375 -1.421875 
Q 29.59375 -1.421875 25.265625 0.953125 
Q 20.953125 3.328125 18.109375 8.203125 
z
M 48.6875 27.296875 
Q 48.6875 37.203125 44.609375 42.84375 
Q 40.53125 48.484375 33.40625 48.484375 
Q 26.265625 48.484375 22.1875 42.84375 
Q 18.109375 37.203125 18.109375 27.296875 
Q 18.109375 17.390625 22.1875 11.75 
Q 26.265625 6.109375 33.40625 6.109375 
Q 40.53125 6.109375 44.609375 11.75 
Q 48.6875 17.390625 48.6875 27.296875 
z
" id="DejaVuSans-70"/>
     <path d="M 9.421875 54.6875 
L 18.40625 54.6875 
L 18.40625 0 
L 9.421875 0 
z
M 9.421875 75.984375 
L 18.40625 75.984375 
L 18.40625 64.59375 
L 9.421875 64.59375 
z
" id="DejaVuSans-69"/>
     <path d="M 44.28125 53.078125 
L 44.28125 44.578125 
Q 40.484375 46.53125 36.375 47.5 
Q 32.28125 48.484375 27.875 48.484375 
Q 21.1875 48.484375 17.84375 46.4375 
Q 14.5 44.390625 14.5 40.28125 
Q 14.5 37.15625 16.890625 35.375 
Q 19.28125 33.59375 26.515625 31.984375 
L 29.59375 31.296875 
Q 39.15625 29.25 43.1875 25.515625 
Q 47.21875 21.78125 47.21875 15.09375 
Q 47.21875 7.46875 41.1875 3.015625 
Q 35.15625 -1.421875 24.609375 -1.421875 
Q 20.21875 -1.421875 15.453125 -0.5625 
Q 10.6875 0.296875 5.421875 2 
L 5.421875 11.28125 
Q 10.40625 8.6875 15.234375 7.390625 
Q 20.0625 6.109375 24.8125 6.109375 
Q 31.15625 6.109375 34.5625 8.28125 
Q 37.984375 10.453125 37.984375 14.40625 
Q 37.984375 18.0625 35.515625 20.015625 
Q 33.0625 21.96875 24.703125 23.78125 
L 21.578125 24.515625 
Q 13.234375 26.265625 9.515625 29.90625 
Q 5.8125 33.546875 5.8125 39.890625 
Q 5.8125 47.609375 11.28125 51.796875 
Q 16.75 56 26.8125 56 
Q 31.78125 56 36.171875 55.265625 
Q 40.578125 54.546875 44.28125 53.078125 
z
" id="DejaVuSans-73"/>
     <path d="M 30.609375 48.390625 
Q 23.390625 48.390625 19.1875 42.75 
Q 14.984375 37.109375 14.984375 27.296875 
Q 14.984375 17.484375 19.15625 11.84375 
Q 23.34375 6.203125 30.609375 6.203125 
Q 37.796875 6.203125 41.984375 11.859375 
Q 46.1875 17.53125 46.1875 27.296875 
Q 46.1875 37.015625 41.984375 42.703125 
Q 37.796875 48.390625 30.609375 48.390625 
z
M 30.609375 56 
Q 42.328125 56 49.015625 48.375 
Q 55.71875 40.765625 55.71875 27.296875 
Q 55.71875 13.875 49.015625 6.21875 
Q 42.328125 -1.421875 30.609375 -1.421875 
Q 18.84375 -1.421875 12.171875 6.21875 
Q 5.515625 13.875 5.515625 27.296875 
Q 5.515625 40.765625 12.171875 48.375 
Q 18.84375 56 30.609375 56 
z
" id="DejaVuSans-6f"/>
     <path d="M 45.40625 46.390625 
L 45.40625 75.984375 
L 54.390625 75.984375 
L 54.390625 0 
L 45.40625 0 
L 45.40625 8.203125 
Q 42.578125 3.328125 38.25 0.953125 
Q 33.9375 -1.421875 27.875 -1.421875 
Q 17.96875 -1.421875 11.734375 6.484375 
Q 5.515625 14.40625 5.515625 27.296875 
Q 5.515625 40.1875 11.734375 48.09375 
Q 17.96875 56 27.875 56 
Q 33.9375 56 38.25 53.625 
Q 42.578125 51.265625 45.40625 46.390625 
z
M 14.796875 27.296875 
Q 14.796875 17.390625 18.875 11.75 
Q 22.953125 6.109375 30.078125 6.109375 
Q 37.203125 6.109375 41.296875 11.75 
Q 45.40625 17.390625 45.40625 27.296875 
Q 45.40625 37.203125 41.296875 42.84375 
Q 37.203125 48.484375 30.078125 48.484375 
Q 22.953125 48.484375 18.875 42.84375 
Q 14.796875 37.203125 14.796875 27.296875 
z
" id="DejaVuSans-64"/>
     <path d="M 56.203125 29.59375 
L 56.203125 25.203125 
L 14.890625 25.203125 
Q 15.484375 15.921875 20.484375 11.0625 
Q 25.484375 6.203125 34.421875 6.203125 
Q 39.59375 6.203125 44.453125 7.46875 
Q 49.3125 8.734375 54.109375 11.28125 
L 54.109375 2.78125 
Q 49.265625 0.734375 44.1875 -0.34375 
Q 39.109375 -1.421875 33.890625 -1.421875 
Q 20.796875 -1.421875 13.15625 6.1875 
Q 5.515625 13.8125 5.515625 26.8125 
Q 5.515625 40.234375 12.765625 48.109375 
Q 20.015625 56 32.328125 56 
Q 43.359375 56 49.78125 48.890625 
Q 56.203125 41.796875 56.203125 29.59375 
z
M 47.21875 32.234375 
Q 47.125 39.59375 43.09375 43.984375 
Q 39.0625 48.390625 32.421875 48.390625 
Q 24.90625 48.390625 20.390625 44.140625 
Q 15.875 39.890625 15.1875 32.171875 
z
" id="DejaVuSans-65"/>
     <path id="DejaVuSans-20"/>
     <path d="M 8.5 21.578125 
L 8.5 54.6875 
L 17.484375 54.6875 
L 17.484375 21.921875 
Q 17.484375 14.15625 20.5 10.265625 
Q 23.53125 6.390625 29.59375 6.390625 
Q 36.859375 6.390625 41.078125 11.03125 
Q 45.3125 15.671875 45.3125 23.6875 
L 45.3125 54.6875 
L 54.296875 54.6875 
L 54.296875 0 
L 45.3125 0 
L 45.3125 8.40625 
Q 42.046875 3.421875 37.71875 1 
Q 33.40625 -1.421875 27.6875 -1.421875 
Q 18.265625 -1.421875 13.375 4.4375 
Q 8.5 10.296875 8.5 21.578125 
z
M 31.109375 56 
z
" id="DejaVuSans-75"/>
     <path d="M 41.109375 46.296875 
Q 39.59375 47.171875 37.8125 47.578125 
Q 36.03125 48 33.890625 48 
Q 26.265625 48 22.1875 43.046875 
Q 18.109375 38.09375 18.109375 28.8125 
L 18.109375 0 
L 9.078125 0 
L 9.078125 54.6875 
L 18.109375 54.6875 
L 18.109375 46.1875 
Q 20.953125 51.171875 25.484375 53.578125 
Q 30.03125 56 36.53125 56 
Q 37.453125 56 38.578125 55.875 
Q 39.703125 55.765625 41.0625 55.515625 
z
" id="DejaVuSans-72"/>
     <path d="M 34.28125 27.484375 
Q 23.390625 27.484375 19.1875 25 
Q 14.984375 22.515625 14.984375 16.5 
Q 14.984375 11.71875 18.140625 8.90625 
Q 21.296875 6.109375 26.703125 6.109375 
Q 34.1875 6.109375 38.703125 11.40625 
Q 43.21875 16.703125 43.21875 25.484375 
L 43.21875 27.484375 
z
M 52.203125 31.203125 
L 52.203125 0 
L 43.21875 0 
L 43.21875 8.296875 
Q 40.140625 3.328125 35.546875 0.953125 
Q 30.953125 -1.421875 24.3125 -1.421875 
Q 15.921875 -1.421875 10.953125 3.296875 
Q 6 8.015625 6 15.921875 
Q 6 25.140625 12.171875 29.828125 
Q 18.359375 34.515625 30.609375 34.515625 
L 43.21875 34.515625 
L 43.21875 35.40625 
Q 43.21875 41.609375 39.140625 45 
Q 35.0625 48.390625 27.6875 48.390625 
Q 23 48.390625 18.546875 47.265625 
Q 14.109375 46.140625 10.015625 43.890625 
L 10.015625 52.203125 
Q 14.9375 54.109375 19.578125 55.046875 
Q 24.21875 56 28.609375 56 
Q 40.484375 56 46.34375 49.84375 
Q 52.203125 43.703125 52.203125 31.203125 
z
" id="DejaVuSans-61"/>
     <path d="M 18.3125 70.21875 
L 18.3125 54.6875 
L 36.8125 54.6875 
L 36.8125 47.703125 
L 18.3125 47.703125 
L 18.3125 18.015625 
Q 18.3125 11.328125 20.140625 9.421875 
Q 21.96875 7.515625 27.59375 7.515625 
L 36.8125 7.515625 
L 36.8125 0 
L 27.59375 0 
Q 17.1875 0 13.234375 3.875 
Q 9.28125 7.765625 9.28125 18.015625 
L 9.28125 47.703125 
L 2.6875 47.703125 
L 2.6875 54.6875 
L 9.28125 54.6875 
L 9.28125 70.21875 
z
" id="DejaVuSans-74"/>
     <path d="M 54.890625 33.015625 
L 54.890625 0 
L 45.90625 0 
L 45.90625 32.71875 
Q 45.90625 40.484375 42.875 44.328125 
Q 39.84375 48.1875 33.796875 48.1875 
Q 26.515625 48.1875 22.3125 43.546875 
Q 18.109375 38.921875 18.109375 30.90625 
L 18.109375 0 
L 9.078125 0 
L 9.078125 54.6875 
L 18.109375 54.6875 
L 18.109375 46.1875 
Q 21.34375 51.125 25.703125 53.5625 
Q 30.078125 56 35.796875 56 
Q 45.21875 56 50.046875 50.171875 
Q 54.890625 44.34375 54.890625 33.015625 
z
" id="DejaVuSans-6e"/>
    </defs>
    <g transform="translate(182.314687 35.472)scale(0.12 -0.12)">
     <use xlink:href="#DejaVuSans-45"/>
     <use x="63.183594" xlink:href="#DejaVuSans-70"/>
     <use x="126.660156" xlink:href="#DejaVuSans-69"/>
     <use x="154.443359" xlink:href="#DejaVuSans-73"/>
     <use x="206.542969" xlink:href="#DejaVuSans-6f"/>
     <use x="267.724609" xlink:href="#DejaVuSans-64"/>
     <use x="331.201172" xlink:href="#DejaVuSans-65"/>
     <use x="392.724609" xlink:href="#DejaVuSans-20"/>
     <use x="424.511719" xlink:href="#DejaVuSans-64"/>
     <use x="487.988281" xlink:href="#DejaVuSans-75"/>
     <use x="551.367188" xlink:href="#DejaVuSans-72"/>
     <use x="592.480469" xlink:href="#DejaVuSans-61"/>
     <use x="653.759766" xlink:href="#DejaVuSans-74"/>
     <use x="692.96875" xlink:href="#DejaVuSans-69"/>
     <use x="720.751953" xlink:href="#DejaVuSans-6f"/>
     <use x="781.933594" xlink:href="#DejaVuSans-6e"/>
     <use x="845.3125" xlink:href="#DejaVuSans-73"/>
    </g>
   </g>
   <g id="legend_1">
    <g id="patch_7">
     <path d="M 286.071563 302.584 
L 407.72 302.584 
Q 409.72 302.584 409.72 300.584 
L 409.72 242.8715 
Q 409.72 240.8715 407.72 240.8715 
L 286.071563 240.8715 
Q 284.071563 240.8715 284.071563 242.8715 
L 284.071563 300.584 
Q 284.071563 302.584 286.071563 302.584 
z
" style="fill:#ffffff;opacity:0.8;stroke:#cccccc;stroke-linejoin:miter;"/>
    </g>
    <g id="line2d_17">
     <path d="M 288.071563 248.969937 
L 308.071563 248.969937 
" style="fill:none;stroke:#1f77b4;stroke-linecap:square;stroke-opacity:0.5;stroke-width:1.5;"/>
    </g>
    <g id="line2d_18"/>
    <g id="text_15">
     <!-- optimal demo -->
     <defs>
      <path d="M 52 44.1875 
Q 55.375 50.25 60.0625 53.125 
Q 64.75 56 71.09375 56 
Q 79.640625 56 84.28125 50.015625 
Q 88.921875 44.046875 88.921875 33.015625 
L 88.921875 0 
L 79.890625 0 
L 79.890625 32.71875 
Q 79.890625 40.578125 77.09375 44.375 
Q 74.3125 48.1875 68.609375 48.1875 
Q 61.625 48.1875 57.5625 43.546875 
Q 53.515625 38.921875 53.515625 30.90625 
L 53.515625 0 
L 44.484375 0 
L 44.484375 32.71875 
Q 44.484375 40.625 41.703125 44.40625 
Q 38.921875 48.1875 33.109375 48.1875 
Q 26.21875 48.1875 22.15625 43.53125 
Q 18.109375 38.875 18.109375 30.90625 
L 18.109375 0 
L 9.078125 0 
L 9.078125 54.6875 
L 18.109375 54.6875 
L 18.109375 46.1875 
Q 21.1875 51.21875 25.484375 53.609375 
Q 29.78125 56 35.6875 56 
Q 41.65625 56 45.828125 52.96875 
Q 50 49.953125 52 44.1875 
z
" id="DejaVuSans-6d"/>
      <path d="M 9.421875 75.984375 
L 18.40625 75.984375 
L 18.40625 0 
L 9.421875 0 
z
" id="DejaVuSans-6c"/>
     </defs>
     <g transform="translate(316.071563 252.469937)scale(0.1 -0.1)">
      <use xlink:href="#DejaVuSans-6f"/>
      <use x="61.181641" xlink:href="#DejaVuSans-70"/>
      <use x="124.658203" xlink:href="#DejaVuSans-74"/>
      <use x="163.867188" xlink:href="#DejaVuSans-69"/>
      <use x="191.650391" xlink:href="#DejaVuSans-6d"/>
      <use x="289.0625" xlink:href="#DejaVuSans-61"/>
      <use x="350.341797" xlink:href="#DejaVuSans-6c"/>
      <use x="378.125" xlink:href="#DejaVuSans-20"/>
      <use x="409.912109" xlink:href="#DejaVuSans-64"/>
      <use x="473.388672" xlink:href="#DejaVuSans-65"/>
      <use x="534.912109" xlink:href="#DejaVuSans-6d"/>
      <use x="632.324219" xlink:href="#DejaVuSans-6f"/>
     </g>
    </g>
    <g id="line2d_19">
     <path d="M 288.071563 263.648062 
L 308.071563 263.648062 
" style="fill:none;stroke:#ff7f0e;stroke-linecap:square;stroke-opacity:0.5;stroke-width:1.5;"/>
    </g>
    <g id="line2d_20"/>
    <g id="text_16">
     <!-- suboptimal demo -->
     <defs>
      <path d="M 48.6875 27.296875 
Q 48.6875 37.203125 44.609375 42.84375 
Q 40.53125 48.484375 33.40625 48.484375 
Q 26.265625 48.484375 22.1875 42.84375 
Q 18.109375 37.203125 18.109375 27.296875 
Q 18.109375 17.390625 22.1875 11.75 
Q 26.265625 6.109375 33.40625 6.109375 
Q 40.53125 6.109375 44.609375 11.75 
Q 48.6875 17.390625 48.6875 27.296875 
z
M 18.109375 46.390625 
Q 20.953125 51.265625 25.265625 53.625 
Q 29.59375 56 35.59375 56 
Q 45.5625 56 51.78125 48.09375 
Q 58.015625 40.1875 58.015625 27.296875 
Q 58.015625 14.40625 51.78125 6.484375 
Q 45.5625 -1.421875 35.59375 -1.421875 
Q 29.59375 -1.421875 25.265625 0.953125 
Q 20.953125 3.328125 18.109375 8.203125 
L 18.109375 0 
L 9.078125 0 
L 9.078125 75.984375 
L 18.109375 75.984375 
z
" id="DejaVuSans-62"/>
     </defs>
     <g transform="translate(316.071563 267.148062)scale(0.1 -0.1)">
      <use xlink:href="#DejaVuSans-73"/>
      <use x="52.099609" xlink:href="#DejaVuSans-75"/>
      <use x="115.478516" xlink:href="#DejaVuSans-62"/>
      <use x="178.955078" xlink:href="#DejaVuSans-6f"/>
      <use x="240.136719" xlink:href="#DejaVuSans-70"/>
      <use x="303.613281" xlink:href="#DejaVuSans-74"/>
      <use x="342.822266" xlink:href="#DejaVuSans-69"/>
      <use x="370.605469" xlink:href="#DejaVuSans-6d"/>
      <use x="468.017578" xlink:href="#DejaVuSans-61"/>
      <use x="529.296875" xlink:href="#DejaVuSans-6c"/>
      <use x="557.080078" xlink:href="#DejaVuSans-20"/>
      <use x="588.867188" xlink:href="#DejaVuSans-64"/>
      <use x="652.34375" xlink:href="#DejaVuSans-65"/>
      <use x="713.867188" xlink:href="#DejaVuSans-6d"/>
      <use x="811.279297" xlink:href="#DejaVuSans-6f"/>
     </g>
    </g>
    <g id="line2d_21">
     <path d="M 288.071563 278.326187 
L 308.071563 278.326187 
" style="fill:none;stroke:#2ca02c;stroke-linecap:square;stroke-opacity:0.5;stroke-width:1.5;"/>
    </g>
    <g id="line2d_22"/>
    <g id="text_17">
     <!-- bad demo -->
     <g transform="translate(316.071563 281.826187)scale(0.1 -0.1)">
      <use xlink:href="#DejaVuSans-62"/>
      <use x="63.476562" xlink:href="#DejaVuSans-61"/>
      <use x="124.755859" xlink:href="#DejaVuSans-64"/>
      <use x="188.232422" xlink:href="#DejaVuSans-20"/>
      <use x="220.019531" xlink:href="#DejaVuSans-64"/>
      <use x="283.496094" xlink:href="#DejaVuSans-65"/>
      <use x="345.019531" xlink:href="#DejaVuSans-6d"/>
      <use x="442.431641" xlink:href="#DejaVuSans-6f"/>
     </g>
    </g>
    <g id="line2d_23">
     <path d="M 288.071563 293.004312 
L 308.071563 293.004312 
" style="fill:none;stroke:#000000;stroke-dasharray:0.74,0.32;stroke-dashoffset:0;stroke-width:0.2;"/>
    </g>
    <g id="text_18">
     <!-- optimal trajectory -->
     <defs>
      <path d="M 9.421875 54.6875 
L 18.40625 54.6875 
L 18.40625 -0.984375 
Q 18.40625 -11.421875 14.421875 -16.109375 
Q 10.453125 -20.796875 1.609375 -20.796875 
L -1.8125 -20.796875 
L -1.8125 -13.1875 
L 0.59375 -13.1875 
Q 5.71875 -13.1875 7.5625 -10.8125 
Q 9.421875 -8.453125 9.421875 -0.984375 
z
M 9.421875 75.984375 
L 18.40625 75.984375 
L 18.40625 64.59375 
L 9.421875 64.59375 
z
" id="DejaVuSans-6a"/>
      <path d="M 48.78125 52.59375 
L 48.78125 44.1875 
Q 44.96875 46.296875 41.140625 47.34375 
Q 37.3125 48.390625 33.40625 48.390625 
Q 24.65625 48.390625 19.8125 42.84375 
Q 14.984375 37.3125 14.984375 27.296875 
Q 14.984375 17.28125 19.8125 11.734375 
Q 24.65625 6.203125 33.40625 6.203125 
Q 37.3125 6.203125 41.140625 7.25 
Q 44.96875 8.296875 48.78125 10.40625 
L 48.78125 2.09375 
Q 45.015625 0.34375 40.984375 -0.53125 
Q 36.96875 -1.421875 32.421875 -1.421875 
Q 20.0625 -1.421875 12.78125 6.34375 
Q 5.515625 14.109375 5.515625 27.296875 
Q 5.515625 40.671875 12.859375 48.328125 
Q 20.21875 56 33.015625 56 
Q 37.15625 56 41.109375 55.140625 
Q 45.0625 54.296875 48.78125 52.59375 
z
" id="DejaVuSans-63"/>
      <path d="M 32.171875 -5.078125 
Q 28.375 -14.84375 24.75 -17.8125 
Q 21.140625 -20.796875 15.09375 -20.796875 
L 7.90625 -20.796875 
L 7.90625 -13.28125 
L 13.1875 -13.28125 
Q 16.890625 -13.28125 18.9375 -11.515625 
Q 21 -9.765625 23.484375 -3.21875 
L 25.09375 0.875 
L 2.984375 54.6875 
L 12.5 54.6875 
L 29.59375 11.921875 
L 46.6875 54.6875 
L 56.203125 54.6875 
z
" id="DejaVuSans-79"/>
     </defs>
     <g transform="translate(316.071563 296.504312)scale(0.1 -0.1)">
      <use xlink:href="#DejaVuSans-6f"/>
      <use x="61.181641" xlink:href="#DejaVuSans-70"/>
      <use x="124.658203" xlink:href="#DejaVuSans-74"/>
      <use x="163.867188" xlink:href="#DejaVuSans-69"/>
      <use x="191.650391" xlink:href="#DejaVuSans-6d"/>
      <use x="289.0625" xlink:href="#DejaVuSans-61"/>
      <use x="350.341797" xlink:href="#DejaVuSans-6c"/>
      <use x="378.125" xlink:href="#DejaVuSans-20"/>
      <use x="409.912109" xlink:href="#DejaVuSans-74"/>
      <use x="449.121094" xlink:href="#DejaVuSans-72"/>
      <use x="490.234375" xlink:href="#DejaVuSans-61"/>
      <use x="551.513672" xlink:href="#DejaVuSans-6a"/>
      <use x="579.296875" xlink:href="#DejaVuSans-65"/>
      <use x="640.820312" xlink:href="#DejaVuSans-63"/>
      <use x="695.800781" xlink:href="#DejaVuSans-74"/>
      <use x="735.009766" xlink:href="#DejaVuSans-6f"/>
      <use x="796.191406" xlink:href="#DejaVuSans-72"/>
      <use x="837.304688" xlink:href="#DejaVuSans-79"/>
     </g>
    </g>
   </g>
  </g>
 </g>
 <defs>
  <clipPath id="p4f17a698ba">
   <rect height="266.112" width="357.12" x="57.6" y="41.472"/>
  </clipPath>
 </defs>
</svg>
