<?xml version="1.0" encoding="utf-8" standalone="no"?>
<!DOCTYPE svg PUBLIC "-//W3C//DTD SVG 1.1//EN"
  "http://www.w3.org/Graphics/SVG/1.1/DTD/svg11.dtd">
<!-- Created with matplotlib (http://matplotlib.org/) -->
<svg height="345.6pt" version="1.1" viewBox="0 0 460.8 345.6" width="460.8pt" xmlns="http://www.w3.org/2000/svg" xmlns:xlink="http://www.w3.org/1999/xlink">
 <defs>
  <style type="text/css">
*{stroke-linecap:butt;stroke-linejoin:round;}
  </style>
 </defs>
 <g id="figure_1">
  <g id="patch_1">
   <path d="M 0 345.6 
L 460.8 345.6 
L 460.8 0 
L 0 0 
z
" style="fill:#ffffff;"/>
  </g>
  <g id="axes_1">
   <g id="patch_2">
    <path d="M 57.6 307.584 
L 414.72 307.584 
L 414.72 41.472 
L 57.6 41.472 
z
" style="fill:#ffffff;"/>
   </g>
   <g id="matplotlib.axis_1">
    <g id="xtick_1">
     <g id="line2d_1">
      <defs>
       <path d="M 0 0 
L 0 3.5 
" id="m9ea2b2f8b9" style="stroke:#000000;stroke-width:0.8;"/>
      </defs>
      <g>
       <use style="stroke:#000000;stroke-width:0.8;" x="73.832727" xlink:href="#m9ea2b2f8b9" y="307.584"/>
      </g>
     </g>
     <g id="text_1">
      <!-- 0 -->
      <defs>
       <path d="M 31.78125 66.40625 
Q 24.171875 66.40625 20.328125 58.90625 
Q 16.5 51.421875 16.5 36.375 
Q 16.5 21.390625 20.328125 13.890625 
Q 24.171875 6.390625 31.78125 6.390625 
Q 39.453125 6.390625 43.28125 13.890625 
Q 47.125 21.390625 47.125 36.375 
Q 47.125 51.421875 43.28125 58.90625 
Q 39.453125 66.40625 31.78125 66.40625 
z
M 31.78125 74.21875 
Q 44.046875 74.21875 50.515625 64.515625 
Q 56.984375 54.828125 56.984375 36.375 
Q 56.984375 17.96875 50.515625 8.265625 
Q 44.046875 -1.421875 31.78125 -1.421875 
Q 19.53125 -1.421875 13.0625 8.265625 
Q 6.59375 17.96875 6.59375 36.375 
Q 6.59375 54.828125 13.0625 64.515625 
Q 19.53125 74.21875 31.78125 74.21875 
z
" id="DejaVuSans-30"/>
      </defs>
      <g transform="translate(70.651477 322.182437)scale(0.1 -0.1)">
       <use xlink:href="#DejaVuSans-30"/>
      </g>
     </g>
    </g>
    <g id="xtick_2">
     <g id="line2d_2">
      <g>
       <use style="stroke:#000000;stroke-width:0.8;" x="132.807213" xlink:href="#m9ea2b2f8b9" y="307.584"/>
      </g>
     </g>
     <g id="text_2">
      <!-- 200 -->
      <defs>
       <path d="M 19.1875 8.296875 
L 53.609375 8.296875 
L 53.609375 0 
L 7.328125 0 
L 7.328125 8.296875 
Q 12.9375 14.109375 22.625 23.890625 
Q 32.328125 33.6875 34.8125 36.53125 
Q 39.546875 41.84375 41.421875 45.53125 
Q 43.3125 49.21875 43.3125 52.78125 
Q 43.3125 58.59375 39.234375 62.25 
Q 35.15625 65.921875 28.609375 65.921875 
Q 23.96875 65.921875 18.8125 64.3125 
Q 13.671875 62.703125 7.8125 59.421875 
L 7.8125 69.390625 
Q 13.765625 71.78125 18.9375 73 
Q 24.125 74.21875 28.421875 74.21875 
Q 39.75 74.21875 46.484375 68.546875 
Q 53.21875 62.890625 53.21875 53.421875 
Q 53.21875 48.921875 51.53125 44.890625 
Q 49.859375 40.875 45.40625 35.40625 
Q 44.1875 33.984375 37.640625 27.21875 
Q 31.109375 20.453125 19.1875 8.296875 
z
" id="DejaVuSans-32"/>
      </defs>
      <g transform="translate(123.263463 322.182437)scale(0.1 -0.1)">
       <use xlink:href="#DejaVuSans-32"/>
       <use x="63.623047" xlink:href="#DejaVuSans-30"/>
       <use x="127.246094" xlink:href="#DejaVuSans-30"/>
      </g>
     </g>
    </g>
    <g id="xtick_3">
     <g id="line2d_3">
      <g>
       <use style="stroke:#000000;stroke-width:0.8;" x="191.781699" xlink:href="#m9ea2b2f8b9" y="307.584"/>
      </g>
     </g>
     <g id="text_3">
      <!-- 400 -->
      <defs>
       <path d="M 37.796875 64.3125 
L 12.890625 25.390625 
L 37.796875 25.390625 
z
M 35.203125 72.90625 
L 47.609375 72.90625 
L 47.609375 25.390625 
L 58.015625 25.390625 
L 58.015625 17.1875 
L 47.609375 17.1875 
L 47.609375 0 
L 37.796875 0 
L 37.796875 17.1875 
L 4.890625 17.1875 
L 4.890625 26.703125 
z
" id="DejaVuSans-34"/>
      </defs>
      <g transform="translate(182.237949 322.182437)scale(0.1 -0.1)">
       <use xlink:href="#DejaVuSans-34"/>
       <use x="63.623047" xlink:href="#DejaVuSans-30"/>
       <use x="127.246094" xlink:href="#DejaVuSans-30"/>
      </g>
     </g>
    </g>
    <g id="xtick_4">
     <g id="line2d_4">
      <g>
       <use style="stroke:#000000;stroke-width:0.8;" x="250.756185" xlink:href="#m9ea2b2f8b9" y="307.584"/>
      </g>
     </g>
     <g id="text_4">
      <!-- 600 -->
      <defs>
       <path d="M 33.015625 40.375 
Q 26.375 40.375 22.484375 35.828125 
Q 18.609375 31.296875 18.609375 23.390625 
Q 18.609375 15.53125 22.484375 10.953125 
Q 26.375 6.390625 33.015625 6.390625 
Q 39.65625 6.390625 43.53125 10.953125 
Q 47.40625 15.53125 47.40625 23.390625 
Q 47.40625 31.296875 43.53125 35.828125 
Q 39.65625 40.375 33.015625 40.375 
z
M 52.59375 71.296875 
L 52.59375 62.3125 
Q 48.875 64.0625 45.09375 64.984375 
Q 41.3125 65.921875 37.59375 65.921875 
Q 27.828125 65.921875 22.671875 59.328125 
Q 17.53125 52.734375 16.796875 39.40625 
Q 19.671875 43.65625 24.015625 45.921875 
Q 28.375 48.1875 33.59375 48.1875 
Q 44.578125 48.1875 50.953125 41.515625 
Q 57.328125 34.859375 57.328125 23.390625 
Q 57.328125 12.15625 50.6875 5.359375 
Q 44.046875 -1.421875 33.015625 -1.421875 
Q 20.359375 -1.421875 13.671875 8.265625 
Q 6.984375 17.96875 6.984375 36.375 
Q 6.984375 53.65625 15.1875 63.9375 
Q 23.390625 74.21875 37.203125 74.21875 
Q 40.921875 74.21875 44.703125 73.484375 
Q 48.484375 72.75 52.59375 71.296875 
z
" id="DejaVuSans-36"/>
      </defs>
      <g transform="translate(241.212435 322.182437)scale(0.1 -0.1)">
       <use xlink:href="#DejaVuSans-36"/>
       <use x="63.623047" xlink:href="#DejaVuSans-30"/>
       <use x="127.246094" xlink:href="#DejaVuSans-30"/>
      </g>
     </g>
    </g>
    <g id="xtick_5">
     <g id="line2d_5">
      <g>
       <use style="stroke:#000000;stroke-width:0.8;" x="309.730671" xlink:href="#m9ea2b2f8b9" y="307.584"/>
      </g>
     </g>
     <g id="text_5">
      <!-- 800 -->
      <defs>
       <path d="M 31.78125 34.625 
Q 24.75 34.625 20.71875 30.859375 
Q 16.703125 27.09375 16.703125 20.515625 
Q 16.703125 13.921875 20.71875 10.15625 
Q 24.75 6.390625 31.78125 6.390625 
Q 38.8125 6.390625 42.859375 10.171875 
Q 46.921875 13.96875 46.921875 20.515625 
Q 46.921875 27.09375 42.890625 30.859375 
Q 38.875 34.625 31.78125 34.625 
z
M 21.921875 38.8125 
Q 15.578125 40.375 12.03125 44.71875 
Q 8.5 49.078125 8.5 55.328125 
Q 8.5 64.0625 14.71875 69.140625 
Q 20.953125 74.21875 31.78125 74.21875 
Q 42.671875 74.21875 48.875 69.140625 
Q 55.078125 64.0625 55.078125 55.328125 
Q 55.078125 49.078125 51.53125 44.71875 
Q 48 40.375 41.703125 38.8125 
Q 48.828125 37.15625 52.796875 32.3125 
Q 56.78125 27.484375 56.78125 20.515625 
Q 56.78125 9.90625 50.3125 4.234375 
Q 43.84375 -1.421875 31.78125 -1.421875 
Q 19.734375 -1.421875 13.25 4.234375 
Q 6.78125 9.90625 6.78125 20.515625 
Q 6.78125 27.484375 10.78125 32.3125 
Q 14.796875 37.15625 21.921875 38.8125 
z
M 18.3125 54.390625 
Q 18.3125 48.734375 21.84375 45.5625 
Q 25.390625 42.390625 31.78125 42.390625 
Q 38.140625 42.390625 41.71875 45.5625 
Q 45.3125 48.734375 45.3125 54.390625 
Q 45.3125 60.0625 41.71875 63.234375 
Q 38.140625 66.40625 31.78125 66.40625 
Q 25.390625 66.40625 21.84375 63.234375 
Q 18.3125 60.0625 18.3125 54.390625 
z
" id="DejaVuSans-38"/>
      </defs>
      <g transform="translate(300.186921 322.182437)scale(0.1 -0.1)">
       <use xlink:href="#DejaVuSans-38"/>
       <use x="63.623047" xlink:href="#DejaVuSans-30"/>
       <use x="127.246094" xlink:href="#DejaVuSans-30"/>
      </g>
     </g>
    </g>
    <g id="xtick_6">
     <g id="line2d_6">
      <g>
       <use style="stroke:#000000;stroke-width:0.8;" x="368.705157" xlink:href="#m9ea2b2f8b9" y="307.584"/>
      </g>
     </g>
     <g id="text_6">
      <!-- 1000 -->
      <defs>
       <path d="M 12.40625 8.296875 
L 28.515625 8.296875 
L 28.515625 63.921875 
L 10.984375 60.40625 
L 10.984375 69.390625 
L 28.421875 72.90625 
L 38.28125 72.90625 
L 38.28125 8.296875 
L 54.390625 8.296875 
L 54.390625 0 
L 12.40625 0 
z
" id="DejaVuSans-31"/>
      </defs>
      <g transform="translate(355.980157 322.182437)scale(0.1 -0.1)">
       <use xlink:href="#DejaVuSans-31"/>
       <use x="63.623047" xlink:href="#DejaVuSans-30"/>
       <use x="127.246094" xlink:href="#DejaVuSans-30"/>
       <use x="190.869141" xlink:href="#DejaVuSans-30"/>
      </g>
     </g>
    </g>
   </g>
   <g id="matplotlib.axis_2">
    <g id="ytick_1">
     <g id="line2d_7">
      <defs>
       <path d="M 0 0 
L -3.5 0 
" id="mfaf49af27c" style="stroke:#000000;stroke-width:0.8;"/>
      </defs>
      <g>
       <use style="stroke:#000000;stroke-width:0.8;" x="57.6" xlink:href="#mfaf49af27c" y="307.584"/>
      </g>
     </g>
     <g id="text_7">
      <!-- −300 -->
      <defs>
       <path d="M 10.59375 35.5 
L 73.1875 35.5 
L 73.1875 27.203125 
L 10.59375 27.203125 
z
" id="DejaVuSans-2212"/>
       <path d="M 40.578125 39.3125 
Q 47.65625 37.796875 51.625 33 
Q 55.609375 28.21875 55.609375 21.1875 
Q 55.609375 10.40625 48.1875 4.484375 
Q 40.765625 -1.421875 27.09375 -1.421875 
Q 22.515625 -1.421875 17.65625 -0.515625 
Q 12.796875 0.390625 7.625 2.203125 
L 7.625 11.71875 
Q 11.71875 9.328125 16.59375 8.109375 
Q 21.484375 6.890625 26.8125 6.890625 
Q 36.078125 6.890625 40.9375 10.546875 
Q 45.796875 14.203125 45.796875 21.1875 
Q 45.796875 27.640625 41.28125 31.265625 
Q 36.765625 34.90625 28.71875 34.90625 
L 20.21875 34.90625 
L 20.21875 43.015625 
L 29.109375 43.015625 
Q 36.375 43.015625 40.234375 45.921875 
Q 44.09375 48.828125 44.09375 54.296875 
Q 44.09375 59.90625 40.109375 62.90625 
Q 36.140625 65.921875 28.71875 65.921875 
Q 24.65625 65.921875 20.015625 65.03125 
Q 15.375 64.15625 9.8125 62.3125 
L 9.8125 71.09375 
Q 15.4375 72.65625 20.34375 73.4375 
Q 25.25 74.21875 29.59375 74.21875 
Q 40.828125 74.21875 47.359375 69.109375 
Q 53.90625 64.015625 53.90625 55.328125 
Q 53.90625 49.265625 50.4375 45.09375 
Q 46.96875 40.921875 40.578125 39.3125 
z
" id="DejaVuSans-33"/>
      </defs>
      <g transform="translate(23.132812 311.383219)scale(0.1 -0.1)">
       <use xlink:href="#DejaVuSans-2212"/>
       <use x="83.789062" xlink:href="#DejaVuSans-33"/>
       <use x="147.412109" xlink:href="#DejaVuSans-30"/>
       <use x="211.035156" xlink:href="#DejaVuSans-30"/>
      </g>
     </g>
    </g>
    <g id="ytick_2">
     <g id="line2d_8">
      <g>
       <use style="stroke:#000000;stroke-width:0.8;" x="57.6" xlink:href="#mfaf49af27c" y="254.3616"/>
      </g>
     </g>
     <g id="text_8">
      <!-- −250 -->
      <defs>
       <path d="M 10.796875 72.90625 
L 49.515625 72.90625 
L 49.515625 64.59375 
L 19.828125 64.59375 
L 19.828125 46.734375 
Q 21.96875 47.46875 24.109375 47.828125 
Q 26.265625 48.1875 28.421875 48.1875 
Q 40.625 48.1875 47.75 41.5 
Q 54.890625 34.8125 54.890625 23.390625 
Q 54.890625 11.625 47.5625 5.09375 
Q 40.234375 -1.421875 26.90625 -1.421875 
Q 22.3125 -1.421875 17.546875 -0.640625 
Q 12.796875 0.140625 7.71875 1.703125 
L 7.71875 11.625 
Q 12.109375 9.234375 16.796875 8.0625 
Q 21.484375 6.890625 26.703125 6.890625 
Q 35.15625 6.890625 40.078125 11.328125 
Q 45.015625 15.765625 45.015625 23.390625 
Q 45.015625 31 40.078125 35.4375 
Q 35.15625 39.890625 26.703125 39.890625 
Q 22.75 39.890625 18.8125 39.015625 
Q 14.890625 38.140625 10.796875 36.28125 
z
" id="DejaVuSans-35"/>
      </defs>
      <g transform="translate(23.132812 258.160819)scale(0.1 -0.1)">
       <use xlink:href="#DejaVuSans-2212"/>
       <use x="83.789062" xlink:href="#DejaVuSans-32"/>
       <use x="147.412109" xlink:href="#DejaVuSans-35"/>
       <use x="211.035156" xlink:href="#DejaVuSans-30"/>
      </g>
     </g>
    </g>
    <g id="ytick_3">
     <g id="line2d_9">
      <g>
       <use style="stroke:#000000;stroke-width:0.8;" x="57.6" xlink:href="#mfaf49af27c" y="201.1392"/>
      </g>
     </g>
     <g id="text_9">
      <!-- −200 -->
      <g transform="translate(23.132812 204.938419)scale(0.1 -0.1)">
       <use xlink:href="#DejaVuSans-2212"/>
       <use x="83.789062" xlink:href="#DejaVuSans-32"/>
       <use x="147.412109" xlink:href="#DejaVuSans-30"/>
       <use x="211.035156" xlink:href="#DejaVuSans-30"/>
      </g>
     </g>
    </g>
    <g id="ytick_4">
     <g id="line2d_10">
      <g>
       <use style="stroke:#000000;stroke-width:0.8;" x="57.6" xlink:href="#mfaf49af27c" y="147.9168"/>
      </g>
     </g>
     <g id="text_10">
      <!-- −150 -->
      <g transform="translate(23.132812 151.716019)scale(0.1 -0.1)">
       <use xlink:href="#DejaVuSans-2212"/>
       <use x="83.789062" xlink:href="#DejaVuSans-31"/>
       <use x="147.412109" xlink:href="#DejaVuSans-35"/>
       <use x="211.035156" xlink:href="#DejaVuSans-30"/>
      </g>
     </g>
    </g>
    <g id="ytick_5">
     <g id="line2d_11">
      <g>
       <use style="stroke:#000000;stroke-width:0.8;" x="57.6" xlink:href="#mfaf49af27c" y="94.6944"/>
      </g>
     </g>
     <g id="text_11">
      <!-- −100 -->
      <g transform="translate(23.132812 98.493619)scale(0.1 -0.1)">
       <use xlink:href="#DejaVuSans-2212"/>
       <use x="83.789062" xlink:href="#DejaVuSans-31"/>
       <use x="147.412109" xlink:href="#DejaVuSans-30"/>
       <use x="211.035156" xlink:href="#DejaVuSans-30"/>
      </g>
     </g>
    </g>
    <g id="ytick_6">
     <g id="line2d_12">
      <g>
       <use style="stroke:#000000;stroke-width:0.8;" x="57.6" xlink:href="#mfaf49af27c" y="41.472"/>
      </g>
     </g>
     <g id="text_12">
      <!-- −50 -->
      <g transform="translate(29.495313 45.271219)scale(0.1 -0.1)">
       <use xlink:href="#DejaVuSans-2212"/>
       <use x="83.789062" xlink:href="#DejaVuSans-35"/>
       <use x="147.412109" xlink:href="#DejaVuSans-30"/>
      </g>
     </g>
    </g>
    <g id="ytick_7">
     <g id="line2d_13">
      <g>
       <use style="stroke:#000000;stroke-width:0.8;" x="57.6" xlink:href="#mfaf49af27c" y="59.567616"/>
      </g>
     </g>
     <g id="text_13">
      <!-- −67 -->
      <defs>
       <path d="M 8.203125 72.90625 
L 55.078125 72.90625 
L 55.078125 68.703125 
L 28.609375 0 
L 18.3125 0 
L 43.21875 64.59375 
L 8.203125 64.59375 
z
" id="DejaVuSans-37"/>
      </defs>
      <g transform="translate(29.495313 63.366835)scale(0.1 -0.1)">
       <use xlink:href="#DejaVuSans-2212"/>
       <use x="83.789062" xlink:href="#DejaVuSans-36"/>
       <use x="147.412109" xlink:href="#DejaVuSans-37"/>
      </g>
     </g>
    </g>
   </g>
   <g id="LineCollection_1">
    <path clip-path="url(#p88b9195b97)" d="M 73.832727 59.567616 
L 398.487273 59.567616 
" style="fill:none;stroke:#000000;stroke-dasharray:0.74,0.32;stroke-dashoffset:0;stroke-width:0.2;"/>
   </g>
   <g id="line2d_14">
    <path clip-path="url(#p88b9195b97)" d="M 74.274574 346.6 
L 74.422472 324.882877 
L 74.717345 317.559474 
L 75.307089 278.657093 
L 76.486579 249.383177 
L 76.781452 239.878188 
L 77.076324 238.573175 
L 77.371196 232.226936 
L 77.666069 233.590494 
L 77.960941 228.655181 
L 78.255814 226.465611 
L 78.550686 225.243625 
L 78.845559 225.240964 
L 79.140431 221.399903 
L 79.435303 220.63563 
L 79.730176 216.487476 
L 80.025048 215.935027 
L 80.319921 214.546455 
L 80.614793 209.975715 
L 80.909666 209.528115 
L 81.49941 198.49245 
L 81.794283 196.220386 
L 82.384028 184.359774 
L 82.6789 178.55321 
L 82.973773 178.546823 
L 83.563517 177.667589 
L 83.85839 174.041015 
L 84.448135 173.412991 
L 85.03788 166.947001 
L 85.332752 166.182195 
L 85.627624 163.815395 
L 85.922497 162.457692 
L 86.217369 163.116053 
L 86.807114 159.838618 
L 87.101987 157.386662 
L 87.691731 155.185383 
L 87.986604 155.405192 
L 88.281476 155.274265 
L 88.576349 153.664819 
L 88.871221 150.012698 
L 89.166094 150.098386 
L 89.460966 148.955701 
L 89.755838 148.338321 
L 90.050711 143.783016 
L 90.345583 143.239615 
L 90.640456 141.956956 
L 91.230201 135.756546 
L 91.525073 135.216339 
L 91.819946 134.999191 
L 92.704563 130.417275 
L 93.294308 129.251704 
L 93.58918 126.601229 
L 93.884053 127.146758 
L 94.178925 126.92216 
L 94.473797 126.507025 
L 94.76867 125.776282 
L 95.063542 122.936334 
L 95.358415 122.753782 
L 95.653287 120.543455 
L 95.94816 120.179946 
L 96.243032 117.324564 
L 97.127649 116.476199 
L 97.422522 116.57679 
L 97.717394 116.022212 
L 98.012267 115.937589 
L 98.307139 115.393656 
L 99.191756 115.11477 
L 99.486629 112.7336 
L 99.781501 112.719762 
L 100.076374 112.449925 
L 100.371246 111.43178 
L 100.666118 111.032612 
L 100.960991 111.021436 
L 101.255863 110.648347 
L 101.550736 108.037256 
L 101.845608 107.768483 
L 102.140481 108.185746 
L 102.435353 104.715646 
L 102.730225 104.70234 
L 103.025098 103.307381 
L 103.31997 103.150907 
L 103.614843 101.569137 
L 103.909715 101.230643 
L 104.204588 104.206307 
L 104.49946 102.253577 
L 104.794332 101.666002 
L 105.089205 100.736739 
L 105.384077 100.660099 
L 105.67895 99.237996 
L 105.973822 99.237996 
L 106.268695 98.976674 
L 106.563567 98.960708 
L 107.153312 95.113793 
L 108.037929 94.531007 
L 108.332802 92.61234 
L 108.627674 93.454318 
L 108.922546 92.349421 
L 109.217419 92.553263 
L 109.512291 92.490993 
L 110.102036 89.377482 
L 110.396909 89.440285 
L 110.691781 90.378063 
L 111.576398 90.146546 
L 111.871271 89.492975 
L 112.166143 86.929252 
L 112.461016 85.483731 
L 113.05076 84.171799 
L 113.345633 84.496456 
L 113.935378 84.279309 
L 114.525123 84.220232 
L 115.40974 84.248972 
L 115.704612 81.437765 
L 115.999485 79.751147 
L 116.294357 80.04387 
L 116.884102 79.99597 
L 117.178974 79.772436 
L 117.473847 78.845834 
L 118.063592 78.1582 
L 118.358464 78.155539 
L 118.948209 77.397652 
L 121.602061 77.309303 
L 121.896933 76.993162 
L 122.486678 76.921312 
L 123.076423 76.85159 
L 123.371296 76.275192 
L 123.96104 76.268805 
L 124.255913 76.715341 
L 124.550785 75.869637 
L 124.845658 75.762128 
L 125.14053 75.49229 
L 126.32002 75.412457 
L 126.614892 75.146877 
L 126.909765 72.906746 
L 127.204637 72.756127 
L 127.49951 73.875926 
L 128.384127 73.874862 
L 128.678999 72.543769 
L 129.268744 72.472451 
L 130.153361 72.389424 
L 130.448234 74.869056 
L 131.332851 74.861605 
L 131.627724 74.238371 
L 132.512341 74.244757 
L 132.685513 346.6 
M 133.905148 346.6 
L 133.986703 339.18001 
L 134.576448 323.252142 
L 134.87132 319.901792 
L 135.755938 297.80332 
L 136.05081 298.437731 
L 136.345682 294.773901 
L 136.640555 288.595844 
L 136.935427 274.025148 
L 137.2303 270.345351 
L 137.525172 268.813078 
L 137.820045 268.218052 
L 138.114917 264.047012 
L 138.409789 261.529061 
L 138.704662 261.184179 
L 138.999534 255.07957 
L 139.294407 251.981494 
L 139.589279 251.763282 
L 140.473896 237.162781 
L 141.358514 229.565816 
L 141.653386 228.500836 
L 141.948259 221.386598 
L 142.243131 219.531265 
L 142.538003 218.611049 
L 143.127748 212.936477 
L 143.422621 212.990232 
L 143.717493 212.118449 
L 144.012366 207.753148 
L 144.307238 205.183038 
L 144.60211 204.272403 
L 144.896983 202.28082 
L 145.191855 199.247676 
L 145.7816 191.2079 
L 146.076473 190.077456 
L 146.371345 189.567586 
L 146.666217 182.746603 
L 146.96109 179.330257 
L 147.255962 178.605368 
L 147.845707 176.06187 
L 148.14058 172.035595 
L 148.435452 169.550109 
L 149.614942 155.817665 
L 149.909814 155.506314 
L 150.204687 154.100711 
L 150.499559 151.78394 
L 150.794432 151.812147 
L 151.089304 151.255441 
L 151.679049 145.261534 
L 151.973921 147.732118 
L 152.268794 146.465957 
L 152.563666 144.003357 
L 152.858539 143.172555 
L 153.153411 141.907459 
L 153.448283 139.221324 
L 153.743156 140.976599 
L 154.332901 139.644975 
L 154.627773 139.161715 
L 154.922646 138.071188 
L 155.217518 138.094074 
L 155.51239 138.382539 
L 155.807263 138.063737 
L 156.102135 136.198824 
L 156.397008 133.432856 
L 156.69188 132.160841 
L 157.281625 131.582313 
L 157.576497 129.015397 
L 157.87137 128.304878 
L 158.461115 118.001553 
L 158.755987 116.742844 
L 159.05086 116.727409 
L 159.345732 113.132768 
L 159.640604 112.474407 
L 159.935477 112.141235 
L 160.230349 110.180522 
L 160.525222 111.372703 
L 160.820094 110.349237 
L 161.114967 108.413006 
L 161.409839 107.305448 
L 161.704711 106.839219 
L 161.999584 105.52782 
L 162.294456 103.587331 
L 162.589329 102.764513 
L 162.884201 101.544123 
L 163.179074 101.661212 
L 163.473946 101.453645 
L 163.768818 103.044462 
L 164.063691 103.189227 
L 164.358563 102.73045 
L 164.653436 103.766158 
L 164.948308 103.628312 
L 165.243181 102.721402 
L 165.538053 100.041122 
L 165.832925 100.053363 
L 166.127798 100.885762 
L 166.717543 100.755899 
L 167.012415 100.959741 
L 167.307288 99.787784 
L 167.60216 99.928291 
L 167.897032 99.656324 
L 168.78165 95.229285 
L 169.076522 94.768379 
L 169.371395 94.697593 
L 169.666267 95.89563 
L 170.550884 95.235672 
L 170.845757 94.741768 
L 171.140629 93.090809 
L 171.435502 92.871001 
L 172.614991 92.720913 
L 172.909864 90.931044 
L 173.794481 90.407868 
L 174.089353 90.582437 
L 174.384226 90.466945 
L 174.973971 87.438058 
L 175.268843 87.112337 
L 176.15346 87.219314 
L 176.448333 86.998973 
L 176.743205 87.099564 
L 177.038078 89.129998 
L 177.33295 89.135853 
L 177.627823 90.262571 
L 177.922695 90.229041 
L 178.217568 91.989638 
L 178.51244 91.846469 
L 179.69193 91.924706 
L 179.986802 92.000814 
L 180.281675 90.784682 
L 180.871419 90.70751 
L 181.166292 90.666529 
L 181.461164 88.137933 
L 181.756037 87.809018 
L 182.345782 87.884062 
L 182.640654 87.679688 
L 182.935526 89.893207 
L 183.230399 87.674898 
L 183.525271 87.500328 
L 183.820144 87.493942 
L 184.115016 87.022391 
L 184.409889 87.004828 
L 184.704761 85.31342 
L 185.294506 84.155833 
L 185.589378 84.280905 
L 186.179123 84.002552 
L 186.768868 83.787534 
L 187.06374 83.903026 
L 187.358613 83.406993 
L 187.653485 83.464474 
L 187.948358 83.270744 
L 188.24323 81.959344 
L 188.832975 81.661831 
L 189.717592 81.674604 
L 190.012465 80.466456 
L 191.486827 80.018323 
L 191.631981 346.6 
M 191.967978 346.6 
L 192.076572 186.306117 
L 192.666317 146.671928 
L 192.961189 142.760082 
L 193.256061 142.516855 
L 193.550934 136.794383 
L 193.845806 136.298882 
L 194.140679 136.112604 
L 194.435551 134.654842 
L 194.730424 132.505722 
L 195.320168 125.541039 
L 195.615041 123.606404 
L 195.909913 119.488055 
L 196.204786 119.657302 
L 196.499658 117.507117 
L 196.794531 116.350062 
L 197.384275 110.744147 
L 197.679148 110.02458 
L 197.97402 109.912281 
L 198.268893 108.757355 
L 198.563765 108.479002 
L 199.15351 103.166342 
L 199.448382 100.921953 
L 199.743255 101.105038 
L 200.038127 100.28222 
L 200.333 97.110697 
L 200.922745 93.138709 
L 201.217617 93.158934 
L 201.512489 91.321697 
L 201.807362 88.50836 
L 202.102234 86.948412 
L 202.691979 86.863788 
L 202.986852 86.499747 
L 203.281724 86.44067 
L 203.576596 85.355998 
L 203.871469 85.048904 
L 204.166341 84.136673 
L 204.461214 84.116448 
L 205.050959 81.369108 
L 205.345831 81.232858 
L 205.640703 81.228601 
L 206.230448 79.547837 
L 206.525321 78.131057 
L 207.115066 78.203972 
L 207.409938 77.704213 
L 207.704811 77.698359 
L 207.999683 76.504048 
L 208.8843 76.431666 
L 209.768918 74.26924 
L 210.06379 74.28361 
L 210.358662 73.170197 
L 210.948407 72.876942 
L 213.307387 72.798705 
L 213.602259 71.957258 
L 213.897132 70.41168 
L 214.486876 70.273834 
L 214.781749 68.482368 
L 215.961239 68.464805 
L 216.256111 67.637729 
L 216.845856 67.678178 
L 217.730473 67.616972 
L 218.025346 67.618036 
L 218.320218 67.471675 
L 218.61509 67.466352 
L 219.204835 67.192789 
L 220.089453 67.035251 
L 222.15356 66.934128 
L 222.448432 66.193805 
L 225.397156 66.162404 
L 225.692029 65.512558 
L 227.756136 65.447627 
L 228.051008 64.968625 
L 228.935625 64.9649 
L 229.230498 64.160177 
L 229.820243 64.074489 
L 231.294605 63.936111 
L 231.589477 63.805183 
L 232.768967 63.817957 
L 233.653584 63.743978 
L 236.012564 63.796668 
L 236.602309 63.695545 
L 237.192054 63.696078 
L 237.486926 62.843455 
L 237.781798 62.960012 
L 238.961288 62.897742 
L 239.256161 62.132936 
L 242.499757 62.114308 
L 245.153609 62.066408 
L 250.461313 62.065875 
L 250.694579 346.6 
M 250.830513 346.6 
L 251.051058 123.625564 
L 251.935675 100.770801 
L 252.230547 96.179305 
L 252.52542 95.911064 
L 253.115165 92.791699 
L 253.410037 92.720381 
L 253.999782 89.225266 
L 254.589527 88.488668 
L 254.884399 86.201169 
L 255.179272 86.576387 
L 255.474144 86.472071 
L 256.063889 83.129172 
L 256.653634 82.014163 
L 256.948506 81.257341 
L 257.243379 78.571206 
L 257.538251 77.814916 
L 258.422868 77.673344 
L 258.717741 77.345494 
L 259.307486 76.047932 
L 259.602358 76.053254 
L 259.897231 75.433213 
L 260.486975 75.411924 
L 260.781848 74.85575 
L 261.371593 74.701938 
L 261.666465 74.675326 
L 262.551082 73.134538 
L 262.845955 73.054172 
L 263.140827 72.729516 
L 264.320317 70.535156 
L 264.615189 70.542075 
L 264.910062 70.037527 
L 265.499807 70.069992 
L 265.794679 69.663905 
L 266.089552 70.065202 
L 266.384424 69.545752 
L 266.974169 69.519673 
L 267.269041 69.3946 
L 267.858786 68.438193 
L 268.153659 68.427017 
L 268.743404 67.670194 
L 269.038276 67.246012 
L 269.333148 67.136374 
L 270.217766 67.150211 
L 271.102383 67.091667 
L 271.397255 66.27151 
L 271.987 66.253946 
L 272.281873 65.919709 
L 275.525469 65.984109 
L 275.820342 65.587069 
L 277.294704 65.580683 
L 277.589576 65.130953 
L 277.884449 65.132018 
L 278.179321 64.83823 
L 279.063939 64.84302 
L 279.358811 64.319312 
L 279.653683 64.312393 
L 279.948556 63.902048 
L 280.538301 63.897258 
L 280.833173 64.325699 
L 282.307535 64.31878 
L 283.487025 64.3092 
L 283.781897 63.988801 
L 284.371642 63.983479 
L 284.666515 63.503412 
L 293.217815 63.483188 
L 295.281922 63.482656 
L 295.576795 63.072311 
L 309.435799 63.051022 
L 309.704728 346.6 
M 309.766629 346.6 
L 310.025544 149.635351 
L 310.615289 126.169063 
L 310.910161 121.59034 
L 311.205033 112.549983 
L 311.499906 110.244921 
L 311.794778 105.986597 
L 312.384523 103.322283 
L 312.679396 101.051816 
L 313.564013 97.406081 
L 313.858885 96.746656 
L 314.743503 92.940722 
L 315.038375 93.035458 
L 315.333247 91.563326 
L 315.62812 90.928383 
L 316.217865 88.768618 
L 316.512737 88.643545 
L 316.80761 87.382707 
L 317.102482 86.924994 
L 317.397354 85.453927 
L 317.692227 85.280422 
L 318.281972 84.051517 
L 318.576844 83.992972 
L 318.871717 83.324499 
L 319.166589 83.261164 
L 320.051206 81.704409 
L 320.346079 81.693232 
L 321.230696 80.321159 
L 321.525568 79.155588 
L 321.820441 78.886283 
L 322.410186 77.953294 
L 322.705058 77.963406 
L 322.999931 77.503565 
L 323.294803 77.258742 
L 323.589676 77.240646 
L 323.884548 76.873944 
L 324.17942 76.864364 
L 325.35891 75.181471 
L 325.653783 74.850428 
L 325.948655 74.850428 
L 326.243527 74.600815 
L 326.5384 74.794012 
L 327.128145 74.556108 
L 328.012762 73.726371 
L 328.307634 73.461324 
L 328.602507 73.669955 
L 329.192252 72.801898 
L 330.371741 72.819461 
L 330.666614 72.661391 
L 330.961486 72.016868 
L 331.256359 72.196227 
L 331.846104 71.782689 
L 332.140976 71.294107 
L 332.435848 71.023205 
L 332.730721 71.027463 
L 333.025593 70.798075 
L 333.320466 70.77306 
L 333.910211 70.089684 
L 334.205083 70.096071 
L 334.499955 69.378633 
L 334.794828 69.151374 
L 335.0897 69.136471 
L 335.679445 68.768705 
L 336.26919 68.741561 
L 336.564062 68.153454 
L 336.858935 67.828797 
L 337.153807 67.828797 
L 337.743552 67.575458 
L 338.038425 67.018752 
L 338.628169 67.005446 
L 338.923042 66.840457 
L 341.282021 66.867068 
L 342.461511 65.9724 
L 343.935873 65.99635 
L 344.230746 65.988899 
L 344.525618 65.476367 
L 344.82049 65.351294 
L 345.705108 65.351294 
L 346.294853 64.953191 
L 346.884597 64.936159 
L 347.17947 64.752542 
L 347.769215 64.756268 
L 348.064087 64.569457 
L 353.076919 64.269815 
L 353.371791 63.960061 
L 355.73077 63.986672 
L 356.320515 63.641791 
L 357.794877 63.637533 
L 358.08975 63.416128 
L 360.448729 63.420918 
L 360.743602 63.222398 
L 363.987198 63.230914 
L 370.769264 63.255396 
L 371.359009 63.303296 
L 371.653882 63.528959 
L 374.602606 63.547055 
L 374.897478 63.742381 
L 378.141075 63.789217 
L 378.435947 63.945158 
L 379.025692 63.961657 
L 379.320565 64.217657 
L 381.089799 64.21606 
L 381.384672 64.38105 
L 384.333396 64.431611 
L 384.923141 64.777557 
L 386.102631 64.789798 
L 386.397503 64.982463 
L 388.166738 65.059103 
L 394.359059 65.211852 
L 394.653931 65.405581 
L 397.012911 65.468916 
L 397.602655 65.45082 
L 397.897528 65.752059 
L 398.1924 65.763236 
L 398.1924 65.763236 
" style="fill:none;stroke:#1f77b4;stroke-linecap:square;stroke-opacity:0.5;stroke-width:1.5;"/>
   </g>
   <g id="line2d_15">
    <path clip-path="url(#p88b9195b97)" d="M 87.20833 346.6 
L 87.986604 337.899479 
L 88.576349 331.700666 
L 88.871221 326.912247 
L 89.460966 322.727902 
L 89.755838 317.026718 
L 90.640456 311.447414 
L 90.935328 308.663882 
L 91.230201 297.845365 
L 91.525073 295.61854 
L 91.819946 290.350587 
L 92.114818 289.403228 
L 92.40969 287.642099 
L 93.294308 277.061486 
L 94.178925 269.560853 
L 94.473797 269.449086 
L 94.76867 267.531483 
L 95.063542 267.388315 
L 95.358415 265.894362 
L 95.94816 258.331991 
L 96.537904 250.764298 
L 96.832777 248.603469 
L 97.127649 247.744991 
L 98.012267 239.963344 
L 98.307139 237.342673 
L 98.896884 234.211067 
L 99.191756 231.869282 
L 99.486629 231.061898 
L 99.781501 229.529625 
L 100.076374 225.76414 
L 100.371246 225.337296 
L 100.666118 221.749574 
L 100.960991 220.301925 
L 101.255863 219.799506 
L 102.435353 208.66538 
L 102.730225 202.928537 
L 103.025098 202.04132 
L 103.614843 199.601605 
L 104.49946 197.22416 
L 104.794332 194.268188 
L 105.089205 193.644954 
L 105.384077 191.986544 
L 105.67895 191.937047 
L 106.268695 185.414642 
L 106.563567 185.135224 
L 107.448184 179.983296 
L 107.743057 179.674074 
L 108.037929 176.772389 
L 108.332802 176.206102 
L 108.627674 173.420442 
L 108.922546 172.999453 
L 109.217419 172.815303 
L 109.512291 172.303836 
L 109.807164 172.563029 
L 110.102036 169.183407 
L 110.396909 167.798028 
L 110.691781 167.245047 
L 110.986653 167.021513 
L 111.281526 167.501047 
L 111.576398 167.132748 
L 112.461016 165.180018 
L 112.755888 165.114554 
L 113.05076 162.26343 
L 113.345633 161.374616 
L 113.935378 160.878583 
L 114.23025 160.407033 
L 114.525123 160.25322 
L 115.114867 159.785395 
L 115.40974 159.711416 
L 115.704612 159.484689 
L 115.999485 159.475109 
L 116.294357 159.26967 
L 116.58923 158.808764 
L 117.178974 159.093504 
L 117.473847 159.054652 
L 117.768719 158.265363 
L 118.063592 158.246736 
L 118.358464 157.998187 
L 118.653337 158.291975 
L 118.948209 157.816166 
L 119.243081 157.805522 
L 119.832826 157.526104 
L 120.127699 156.614937 
L 120.422571 156.729365 
L 120.717444 156.456334 
L 121.307189 155.238073 
L 121.602061 155.193367 
L 121.896933 154.790473 
L 122.191806 153.822358 
L 122.781551 153.068728 
L 123.076423 153.0501 
L 123.371296 152.64082 
L 123.666168 152.577486 
L 123.96104 151.820131 
L 124.255913 151.517295 
L 124.550785 150.977088 
L 124.845658 150.888739 
L 125.14053 151.013279 
L 126.025147 150.929188 
L 126.32002 150.341613 
L 126.614892 150.613579 
L 126.909765 150.598677 
L 127.204637 150.964847 
L 127.49951 150.079226 
L 128.089254 150.064856 
L 128.384127 149.799276 
L 128.973872 149.725829 
L 129.268744 150.074436 
L 130.448234 150.002586 
L 131.037979 149.024358 
L 131.332851 148.893963 
L 131.922596 148.889705 
L 132.217468 147.651752 
L 132.512341 146.998181 
L 132.800791 346.6 
M 132.817437 346.6 
L 133.102086 222.866713 
L 133.396958 196.200694 
L 133.986703 190.207319 
L 134.281575 186.174658 
L 134.87132 182.403851 
L 135.461065 179.604353 
L 136.05081 177.567531 
L 136.640555 176.415266 
L 137.2303 174.18578 
L 137.525172 172.92707 
L 137.820045 173.576383 
L 138.114917 172.58485 
L 138.409789 172.15641 
L 138.704662 171.469309 
L 138.999534 170.354832 
L 139.884152 168.619781 
L 140.179024 168.277561 
L 141.063641 165.035253 
L 142.832876 161.887148 
L 143.422621 160.719448 
L 143.717493 160.331989 
L 144.012366 160.173919 
L 144.60211 159.390485 
L 144.896983 158.795459 
L 145.191855 157.446271 
L 146.076473 156.3286 
L 146.371345 156.382887 
L 147.550835 155.139612 
L 148.730324 154.539795 
L 149.025197 154.577583 
L 149.320069 151.383707 
L 149.614942 151.216057 
L 150.499559 150.25007 
L 151.384176 149.669414 
L 151.973921 149.577871 
L 152.268794 149.330387 
L 152.563666 149.281955 
L 153.448283 148.719926 
L 154.627773 148.264342 
L 155.217518 147.952991 
L 156.397008 147.515503 
L 157.281625 147.196701 
L 157.87137 146.756552 
L 158.755987 146.612851 
L 159.05086 146.61977 
L 159.640604 146.372818 
L 159.935477 148.453814 
L 160.820094 148.179719 
L 161.999584 148.097224 
L 162.884201 147.930638 
L 163.179074 144.538242 
L 164.063691 144.498325 
L 164.653436 144.430201 
L 164.948308 144.616479 
L 165.243181 144.496729 
L 165.832925 144.512163 
L 167.012415 144.333868 
L 167.307288 142.949553 
L 171.140629 142.579126 
L 172.320119 142.514194 
L 173.794481 142.356124 
L 175.268843 142.344415 
L 175.563716 142.351866 
L 176.15346 142.240631 
L 177.627823 142.136847 
L 178.51244 142.029338 
L 179.986802 141.934602 
L 180.281675 142.210294 
L 184.409889 142.062868 
L 185.589378 141.974519 
L 187.653485 142.004856 
L 188.538103 141.946843 
L 189.127847 141.952166 
L 189.42272 139.830189 
L 191.486827 139.751419 
L 191.781699 296.393458 
L 192.076572 106.093041 
L 192.371444 104.03227 
L 192.961189 102.880005 
L 193.550934 102.8023 
L 195.320168 102.666051 
L 195.909913 102.660729 
L 196.499658 102.608039 
L 197.97402 102.423889 
L 200.333 102.496272 
L 202.397107 102.461677 
L 202.691979 102.334476 
L 203.576596 102.452629 
L 209.474045 102.337137 
L 209.768918 102.224837 
L 210.948407 102.401004 
L 211.538152 102.541511 
L 213.307387 102.431873 
L 213.897132 102.303607 
L 214.486876 102.192372 
L 215.371494 101.869844 
L 216.550983 101.951806 
L 218.320218 102.110941 
L 218.909963 102.10828 
L 219.499708 102.10349 
L 219.79458 102.14181 
L 220.384325 101.963515 
L 228.640753 102.394617 
L 229.230498 102.372263 
L 230.999732 102.427082 
L 231.294605 102.341927 
L 233.063839 102.598459 
L 234.243329 102.561735 
L 234.833074 102.569719 
L 235.717691 102.572912 
L 238.666416 102.800704 
L 239.256161 102.963564 
L 240.43565 103.057768 
L 241.025395 103.025302 
L 243.974119 103.163148 
L 244.858737 103.388811 
L 246.038226 103.346233 
L 246.922844 103.29514 
L 247.512589 103.32867 
L 247.807461 103.435647 
L 249.576696 103.311639 
L 249.871568 103.41489 
L 250.461313 103.439905 
L 250.63075 346.6 
M 251.025014 346.6 
L 251.051058 329.160361 
L 251.34593 295.884652 
L 251.640803 276.796438 
L 251.935675 271.227246 
L 252.230547 261.517352 
L 252.52542 263.094864 
L 253.410037 254.126889 
L 253.70491 250.896822 
L 253.999782 249.39116 
L 254.294654 250.522136 
L 255.474144 240.498229 
L 256.063889 229.560494 
L 256.358761 228.600894 
L 256.653634 226.593345 
L 256.948506 226.332555 
L 257.243379 224.221223 
L 257.538251 220.876195 
L 257.833124 216.024973 
L 258.127996 217.387999 
L 259.012613 214.701864 
L 259.307486 211.527148 
L 259.602358 210.726683 
L 260.192103 206.634945 
L 260.486975 205.71473 
L 260.781848 201.781062 
L 261.07672 200.221646 
L 261.371593 199.878361 
L 261.666465 200.168423 
L 261.961338 199.062994 
L 262.25621 195.631746 
L 262.551082 196.321508 
L 262.845955 194.796687 
L 263.140827 191.604407 
L 263.730572 187.13958 
L 264.320317 178.631979 
L 264.615189 178.120512 
L 265.204934 173.889331 
L 265.499807 173.605656 
L 265.794679 171.855703 
L 266.089552 171.331463 
L 266.384424 171.503903 
L 266.679297 171.240452 
L 266.974169 172.804659 
L 267.269041 171.496984 
L 267.563914 168.55485 
L 267.858786 167.988564 
L 268.153659 168.269046 
L 268.743404 161.461369 
L 269.038276 159.80083 
L 269.333148 159.000897 
L 269.628021 157.226462 
L 269.922893 156.66603 
L 270.217766 154.966107 
L 270.512638 155.580293 
L 270.807511 156.875194 
L 271.102383 154.91182 
L 271.397255 154.133176 
L 271.987 149.342628 
L 272.576745 143.219391 
L 272.871618 141.23526 
L 273.16649 141.049514 
L 273.461362 139.437407 
L 274.34598 138.84451 
L 274.935725 135.213145 
L 275.230597 135.451582 
L 275.525469 133.599974 
L 275.820342 128.233028 
L 276.115214 128.365551 
L 276.410087 127.988737 
L 276.704959 127.160596 
L 276.999832 127.486317 
L 277.294704 126.486268 
L 277.589576 126.551732 
L 278.474194 122.552069 
L 278.769066 120.577518 
L 279.063939 120.161851 
L 279.653683 118.447557 
L 279.948556 118.22562 
L 280.243428 118.652463 
L 280.538301 117.755134 
L 280.833173 116.371351 
L 281.71779 116.139302 
L 282.307535 111.733019 
L 282.602408 109.90962 
L 282.89728 109.898443 
L 283.192153 108.719035 
L 283.487025 108.383734 
L 283.781897 106.798238 
L 284.07677 106.766837 
L 284.666515 106.47571 
L 285.25626 106.839219 
L 285.551132 105.971694 
L 285.846004 105.715695 
L 286.140877 104.742257 
L 286.435749 104.521916 
L 286.730622 104.503821 
L 287.025494 101.960322 
L 287.320367 101.803848 
L 287.615239 99.235867 
L 287.910111 98.186322 
L 288.499856 97.013832 
L 288.794729 99.377971 
L 290.269091 99.216175 
L 290.563963 99.215111 
L 290.858836 99.983642 
L 291.153708 99.186903 
L 291.448581 99.170404 
L 291.743453 99.656857 
L 292.038325 98.631261 
L 292.333198 98.467336 
L 292.62807 98.956982 
L 293.217815 99.012333 
L 293.80756 99.046928 
L 294.692177 98.972949 
L 295.281922 95.36926 
L 295.576795 95.111131 
L 295.871667 94.620421 
L 296.16654 94.617228 
L 296.461412 92.483542 
L 296.756284 91.354694 
L 297.640902 91.0162 
L 297.935774 91.230686 
L 298.230647 91.15032 
L 298.525519 90.182737 
L 299.115264 90.233831 
L 299.410136 89.45359 
L 299.705009 89.378014 
L 299.999881 88.527521 
L 300.294754 85.511939 
L 300.589626 85.519923 
L 300.884498 85.272971 
L 301.769116 85.258601 
L 302.063988 85.200588 
L 302.358861 84.888173 
L 302.948605 84.867948 
L 303.243478 84.404913 
L 303.53835 84.414493 
L 303.833223 83.001439 
L 304.422968 82.967909 
L 304.71784 81.542081 
L 305.012712 82.446329 
L 305.307585 82.440475 
L 305.602457 80.908734 
L 306.192202 80.878929 
L 306.487075 79.858124 
L 306.781947 79.849608 
L 307.076819 79.570723 
L 307.371692 78.691489 
L 308.256309 78.698408 
L 308.551182 78.159265 
L 308.846054 79.809691 
L 309.435799 79.803305 
L 309.651047 346.6 
M 309.865422 346.6 
L 310.025544 229.325251 
L 310.320416 206.821223 
L 310.910161 180.670929 
L 311.205033 176.928862 
L 311.499906 175.689845 
L 311.794778 173.070238 
L 312.089651 171.498581 
L 312.974268 165.548849 
L 313.26914 166.326428 
L 313.564013 163.706289 
L 314.153758 161.399098 
L 314.44863 161.273494 
L 314.743503 159.34152 
L 315.038375 155.974671 
L 315.333247 155.358356 
L 315.62812 154.261975 
L 315.922992 152.309245 
L 316.80761 148.336725 
L 317.102482 146.704926 
L 317.397354 146.377076 
L 317.987099 141.482212 
L 318.281972 140.646088 
L 318.871717 137.449551 
L 319.166589 135.742176 
L 319.461461 135.173761 
L 320.346079 132.034704 
L 320.935824 131.686629 
L 321.230696 130.3731 
L 321.525568 129.658856 
L 321.820441 128.101568 
L 322.115313 127.374018 
L 322.410186 125.934352 
L 322.705058 125.355825 
L 322.999931 125.023185 
L 323.294803 124.233896 
L 323.589676 122.336518 
L 323.884548 121.818132 
L 324.17942 120.096387 
L 326.243527 113.70757 
L 326.5384 112.424378 
L 328.012762 109.955391 
L 328.602507 108.468357 
L 328.897379 107.800416 
L 329.192252 106.691793 
L 329.781997 105.358572 
L 330.371741 103.691114 
L 330.666614 103.782125 
L 331.256359 103.177518 
L 331.551231 103.159423 
L 331.846104 102.925776 
L 332.140976 102.180663 
L 332.435848 101.947016 
L 332.730721 101.923599 
L 333.025593 101.533478 
L 333.320466 101.793736 
L 333.615338 101.270028 
L 333.910211 101.201903 
L 334.794828 98.996367 
L 335.0897 98.572716 
L 335.679445 96.44861 
L 335.974318 96.2618 
L 336.564062 96.245301 
L 336.858935 95.471447 
L 337.153807 93.632613 
L 337.44868 93.653902 
L 337.743552 93.386193 
L 338.038425 92.110452 
L 338.333297 91.837422 
L 338.628169 91.91353 
L 338.923042 91.826245 
L 339.217914 91.498395 
L 340.102532 89.398239 
L 340.397404 88.870805 
L 340.692276 88.877724 
L 340.987149 89.174173 
L 341.282021 88.82663 
L 341.576894 88.665899 
L 341.871766 88.771279 
L 342.166639 88.999603 
L 342.461511 88.763828 
L 342.756383 87.691397 
L 343.051256 87.415172 
L 343.641001 86.67272 
L 344.230746 86.359772 
L 344.525618 86.299099 
L 345.410235 84.922235 
L 345.705108 85.209636 
L 348.35896 82.278679 
L 348.653832 82.047693 
L 349.243577 81.904525 
L 349.538449 81.116301 
L 350.128194 80.676684 
L 350.423067 80.036951 
L 350.717939 79.771903 
L 351.012811 78.766532 
L 351.307684 78.533418 
L 352.192301 78.478067 
L 352.487174 77.938392 
L 353.371791 77.1028 
L 353.666663 77.442359 
L 353.961536 77.157619 
L 354.256408 77.171989 
L 354.551281 76.906942 
L 354.846153 77.553594 
L 355.141026 77.222018 
L 355.435898 77.181037 
L 355.73077 76.803158 
L 356.025643 76.791981 
L 356.615388 76.269337 
L 356.91026 75.732856 
L 357.205133 75.494951 
L 357.500005 75.020208 
L 357.794877 75.209679 
L 358.679495 75.15486 
L 359.26924 75.123991 
L 359.564112 75.290577 
L 361.038474 75.227243 
L 361.333347 75.394361 
L 361.923091 74.844041 
L 362.217964 73.947776 
L 362.512836 73.988225 
L 362.807709 73.50603 
L 363.102581 73.593315 
L 363.397454 73.373507 
L 363.692326 73.368184 
L 363.987198 73.616733 
L 364.576943 73.650263 
L 364.871816 73.419278 
L 365.461561 73.389473 
L 365.756433 72.969016 
L 366.051305 72.817865 
L 366.935923 72.791254 
L 367.230795 72.568784 
L 367.525668 72.568252 
L 368.115412 71.801317 
L 368.410285 71.795995 
L 368.705157 71.625683 
L 369.00003 73.121765 
L 369.294902 73.469307 
L 369.884647 74.431036 
L 370.474392 73.889764 
L 371.064137 74.118088 
L 371.359009 73.86262 
L 371.653882 73.3767 
L 371.948754 73.390538 
L 372.243626 73.205856 
L 373.128244 73.204792 
L 373.423116 72.540044 
L 374.012861 72.01261 
L 374.307733 72.016868 
L 374.602606 71.846024 
L 374.897478 71.8572 
L 375.487223 71.357442 
L 376.961585 71.368619 
L 377.256458 71.124328 
L 378.435947 71.158922 
L 378.73082 70.937517 
L 379.320565 70.962 
L 379.615437 70.817235 
L 381.974417 70.717177 
L 383.448779 70.08862 
L 383.743651 70.104055 
L 384.038524 69.792703 
L 384.333396 69.160954 
L 384.628269 69.344039 
L 384.923141 69.238126 
L 386.987248 69.292945 
L 387.28212 68.923582 
L 387.576993 68.915066 
L 387.871865 69.104006 
L 388.46161 68.802235 
L 388.756483 68.810218 
L 389.051355 68.645229 
L 389.346227 68.659599 
L 389.6411 68.544106 
L 389.935972 68.557944 
L 390.230845 68.30567 
L 391.705207 68.453628 
L 392.000079 68.148664 
L 392.294952 68.158776 
L 392.589824 68.001238 
L 396.423166 68.021462 
L 398.1924 68.012946 
L 398.1924 68.012946 
" style="fill:none;stroke:#ff7f0e;stroke-linecap:square;stroke-opacity:0.5;stroke-width:1.5;"/>
   </g>
   <g id="line2d_16">
    <path clip-path="url(#p88b9195b97)" d="M 107.437603 346.6 
L 107.448184 346.459238 
L 107.664817 346.6 
M 107.748073 346.6 
L 108.037929 343.662401 
L 108.332802 345.070133 
L 108.922546 341.790036 
L 109.512291 335.817419 
L 109.807164 332.903492 
L 110.102036 332.438329 
L 110.396909 327.441277 
L 110.986653 323.429373 
L 111.281526 322.637956 
L 111.576398 322.494255 
L 112.166143 318.711207 
L 112.461016 314.683336 
L 112.755888 312.914223 
L 113.05076 308.757554 
L 113.935378 306.984716 
L 114.525123 304.85582 
L 115.114867 304.118157 
L 115.40974 303.949975 
L 115.704612 299.914652 
L 115.999485 300.916298 
L 116.294357 297.648442 
L 116.58923 297.299836 
L 116.884102 296.391329 
L 117.178974 296.34609 
L 117.473847 294.336945 
L 117.768719 293.556704 
L 118.063592 291.696049 
L 118.358464 291.027576 
L 118.653337 288.930081 
L 118.948209 287.955579 
L 119.243081 285.472222 
L 120.422571 284.229479 
L 120.717444 284.060764 
L 121.012316 281.559311 
L 121.307189 281.15695 
L 121.602061 279.319712 
L 121.896933 274.679783 
L 122.486678 273.594579 
L 122.781551 271.990988 
L 123.076423 271.55829 
L 123.371296 270.657767 
L 123.666168 270.484262 
L 123.96104 268.818401 
L 124.255913 268.609236 
L 124.550785 267.495824 
L 125.435403 267.004581 
L 125.730275 265.678811 
L 126.025147 265.339784 
L 126.32002 263.981549 
L 126.614892 258.614602 
L 126.909765 257.241996 
L 127.204637 254.374906 
L 127.49951 254.048652 
L 127.794382 251.143241 
L 128.089254 250.723849 
L 128.384127 252.197045 
L 128.678999 252.845294 
L 128.973872 250.989429 
L 129.268744 250.775475 
L 129.563617 248.788682 
L 129.858489 248.764732 
L 130.153361 247.207445 
L 130.743106 246.933882 
L 131.332851 246.466057 
L 131.627724 245.548503 
L 131.922596 244.000263 
L 132.217468 243.639948 
L 132.512341 241.329031 
L 132.572088 346.6 
M 138.87076 346.6 
L 138.999534 344.550682 
L 139.294407 344.659256 
L 139.589279 343.450575 
L 139.884152 339.30934 
L 140.179024 338.176768 
L 140.473896 334.28142 
L 141.063641 330.38767 
L 141.358514 329.534514 
L 142.538003 319.925742 
L 143.422621 313.400676 
L 143.717493 312.408078 
L 144.012366 310.627257 
L 144.307238 310.007216 
L 144.60211 304.926073 
L 145.191855 302.523614 
L 146.076473 296.909183 
L 146.96109 292.73495 
L 147.255962 291.697646 
L 147.550835 290.19092 
L 148.14058 288.326539 
L 148.435452 286.09173 
L 148.730324 284.875066 
L 149.025197 284.707948 
L 149.320069 284.712206 
L 149.614942 284.556796 
L 149.909814 282.068117 
L 150.204687 281.397515 
L 150.794432 278.493701 
L 151.384176 277.567631 
L 151.679049 277.537294 
L 152.268794 274.897463 
L 152.563666 271.391704 
L 152.858539 271.785549 
L 153.743156 268.816272 
L 154.038028 268.77529 
L 154.627773 266.134927 
L 155.217518 262.490789 
L 155.807263 262.202324 
L 156.102135 260.29643 
L 156.397008 260.609378 
L 157.281625 258.05896 
L 157.87137 255.628293 
L 158.166242 255.490979 
L 158.461115 254.917774 
L 159.05086 252.759074 
L 159.345732 252.207689 
L 159.640604 252.200771 
L 160.230349 251.549861 
L 160.525222 250.488606 
L 160.820094 250.280506 
L 161.114967 249.832374 
L 161.999584 245.836968 
L 162.294456 245.571388 
L 163.179074 243.866143 
L 164.063691 241.693072 
L 164.358563 241.865513 
L 164.653436 241.15659 
L 164.948308 240.959135 
L 165.538053 238.208069 
L 166.127798 236.364445 
L 166.42267 236.129735 
L 167.307288 234.670376 
L 167.60216 233.516515 
L 167.897032 233.79061 
L 168.191905 233.316399 
L 168.486777 233.174827 
L 169.076522 231.859169 
L 169.371395 231.723452 
L 169.666267 230.790463 
L 169.961139 230.759062 
L 170.256012 230.496144 
L 170.550884 229.564752 
L 170.845757 229.250207 
L 171.435502 228.04472 
L 171.730374 226.805702 
L 172.025246 226.822201 
L 172.614991 225.375084 
L 173.204736 224.139792 
L 173.499609 223.926903 
L 173.794481 223.415968 
L 174.089353 224.242512 
L 174.679098 223.639502 
L 174.973971 222.867777 
L 175.563716 222.000252 
L 175.858588 222.021009 
L 176.15346 221.711786 
L 176.448333 221.609599 
L 177.038078 220.328536 
L 177.33295 220.342374 
L 177.922695 219.315182 
L 178.217568 218.332696 
L 178.51244 217.963333 
L 179.102185 216.120241 
L 179.397057 215.608242 
L 180.281675 215.551826 
L 180.576547 215.217589 
L 181.166292 214.107902 
L 181.461164 213.564502 
L 182.050909 213.00886 
L 182.345782 212.227555 
L 182.640654 211.820403 
L 182.935526 211.752811 
L 183.230399 211.473926 
L 183.525271 210.778309 
L 183.820144 210.868787 
L 184.115016 210.119416 
L 184.409889 210.165719 
L 184.999633 209.035807 
L 185.589378 208.82345 
L 185.884251 207.891526 
L 186.179123 207.834046 
L 186.473996 207.409863 
L 187.06374 206.38001 
L 187.948358 206.19586 
L 188.24323 205.859495 
L 189.127847 204.515629 
L 189.717592 204.415039 
L 190.012465 204.719471 
L 190.307337 204.073351 
L 190.897082 204.005758 
L 191.191954 203.714632 
L 191.486827 203.066915 
L 191.636353 346.6 
M 191.90422 346.6 
L 192.076572 150.333629 
L 192.371444 145.959812 
L 192.666317 145.214699 
L 192.961189 144.880994 
L 193.256061 144.822982 
L 193.845806 144.908138 
L 195.025296 145.01884 
L 195.615041 145.075256 
L 196.204786 145.176911 
L 196.499658 145.151896 
L 196.794531 144.947522 
L 197.089403 145.121027 
L 198.563765 145.029485 
L 198.858638 145.090691 
L 199.15351 145.035339 
L 200.333 145.302516 
L 202.102234 145.345094 
L 202.691979 145.393526 
L 202.986852 145.293468 
L 204.756086 145.421202 
L 205.640703 145.189684 
L 206.230448 145.257809 
L 207.409938 145.03321 
L 209.179173 144.849593 
L 209.474045 144.961892 
L 209.768918 144.94699 
L 210.358662 145.175314 
L 211.833025 145.26047 
L 212.127897 145.367979 
L 212.717642 145.062483 
L 213.012514 145.099738 
L 213.307387 145.005002 
L 213.897132 144.973601 
L 214.486876 144.726649 
L 215.961239 145.088029 
L 216.550983 144.901219 
L 216.845856 144.653202 
L 217.435601 144.679814 
L 217.730473 144.965086 
L 218.320218 145.042258 
L 219.499708 144.791581 
L 220.089453 144.747406 
L 220.384325 144.778275 
L 220.97407 144.667572 
L 221.858687 144.866624 
L 223.038177 144.733568 
L 223.333049 144.777211 
L 223.627922 144.66225 
L 224.217667 144.783597 
L 225.397156 144.645219 
L 225.692029 144.478101 
L 227.166391 144.379639 
L 227.461263 144.565385 
L 228.345881 144.500454 
L 228.640753 144.600512 
L 228.935625 144.554209 
L 229.230498 144.641494 
L 229.52537 144.515889 
L 230.115115 144.5425 
L 230.409988 144.453618 
L 231.589477 144.649477 
L 231.88435 144.509502 
L 232.474095 144.507373 
L 233.063839 144.482359 
L 233.653584 144.685136 
L 237.781798 144.66225 
L 238.076671 144.48023 
L 238.371543 144.693651 
L 239.845905 144.172604 
L 240.43565 144.189635 
L 241.025395 144.089577 
L 241.61514 144.175798 
L 242.79463 144.620205 
L 243.384375 144.526001 
L 243.679247 144.556338 
L 243.974119 144.716537 
L 245.153609 144.426475 
L 245.448482 144.405718 
L 246.333099 144.636171 
L 247.807461 144.390284 
L 248.397206 144.439248 
L 248.986951 144.423282 
L 250.16644 144.400928 
L 250.461313 144.507905 
L 250.756185 225.664614 
L 251.051058 89.952816 
L 251.34593 87.876611 
L 251.640803 86.713701 
L 251.935675 86.105901 
L 252.820292 85.63169 
L 253.410037 85.342692 
L 253.70491 85.03826 
L 253.999782 84.987699 
L 254.589527 84.631109 
L 254.884399 84.565113 
L 255.179272 84.300598 
L 255.474144 84.327209 
L 255.769017 84.151575 
L 256.063889 84.132947 
L 256.948506 83.732714 
L 257.538251 83.665654 
L 259.602358 82.590562 
L 260.781848 82.332965 
L 261.666465 82.152541 
L 263.140827 82.01576 
L 263.4357 81.949764 
L 264.025445 82.012034 
L 269.038276 81.478214 
L 269.628021 81.562837 
L 270.512638 81.603818 
L 271.397255 81.405299 
L 271.987 81.175378 
L 272.871618 81.170056 
L 273.756235 81.034871 
L 276.410087 80.861898 
L 276.999832 80.99389 
L 277.589576 80.982181 
L 279.358811 81.026355 
L 281.422918 80.831561 
L 282.012663 80.845399 
L 282.307535 80.91725 
L 282.602408 80.782065 
L 287.910111 80.844335 
L 288.499856 80.905008 
L 289.089601 80.883719 
L 291.153708 81.114172 
L 291.743453 81.132268 
L 296.756284 81.084368 
L 297.640902 81.058821 
L 298.230647 81.163137 
L 303.53835 81.096077 
L 305.89733 81.295661 
L 306.192202 81.090222 
L 307.961437 80.944393 
L 309.435799 80.763969 
L 309.698487 346.6 
M 309.761618 346.6 
L 310.025544 68.831507 
L 310.320416 66.410952 
L 310.615289 65.570038 
L 310.910161 65.221964 
L 311.499906 65.026105 
L 311.794778 65.079328 
L 312.384523 64.965432 
L 312.679396 65.345972 
L 313.564013 65.315103 
L 313.858885 65.61102 
L 314.743503 65.541298 
L 316.80761 65.518945 
L 319.166589 65.358213 
L 319.756334 65.266138 
L 320.346079 65.216642 
L 320.640951 65.5083 
L 322.410186 65.438579 
L 322.705058 65.242721 
L 324.17942 65.145856 
L 324.474293 65.111261 
L 324.769165 65.309781 
L 329.192252 65.212916 
L 329.487124 64.99843 
L 334.205083 64.863777 
L 334.499955 65.023444 
L 335.0897 64.999494 
L 335.384573 65.323086 
L 337.44868 65.216109 
L 337.743552 64.729124 
L 338.628169 64.716351 
L 338.923042 64.501865 
L 340.102532 64.431611 
L 340.397404 64.209142 
L 341.871766 64.146871 
L 342.166639 63.756751 
L 343.051256 63.754622 
L 343.346128 63.460302 
L 349.833322 63.476801 
L 350.128194 63.176095 
L 353.961536 63.176095 
L 354.256408 62.911047 
L 355.141026 62.919563 
L 355.435898 63.244752 
L 359.26924 63.28733 
L 361.038474 63.300635 
L 363.692326 63.332569 
L 363.987198 63.173434 
L 364.282071 63.167047 
L 364.576943 63.762073 
L 364.871816 63.448061 
L 368.705157 63.524169 
L 369.00003 63.759944 
L 370.179519 63.951013 
L 370.474392 64.185191 
L 381.089799 64.672176 
L 381.384672 64.839295 
L 384.628269 64.964367 
L 384.923141 64.655677 
L 386.397503 64.736043 
L 389.051355 64.758397 
L 392.589824 64.884534 
L 393.769314 64.920193 
L 394.064186 64.353374 
L 396.718038 64.456626 
L 397.602655 64.516235 
L 397.897528 64.407129 
L 398.1924 64.431079 
L 398.1924 64.431079 
" style="fill:none;stroke:#2ca02c;stroke-linecap:square;stroke-opacity:0.5;stroke-width:1.5;"/>
   </g>
   <g id="patch_3">
    <path d="M 57.6 307.584 
L 57.6 41.472 
" style="fill:none;stroke:#000000;stroke-linecap:square;stroke-linejoin:miter;stroke-width:0.8;"/>
   </g>
   <g id="patch_4">
    <path d="M 414.72 307.584 
L 414.72 41.472 
" style="fill:none;stroke:#000000;stroke-linecap:square;stroke-linejoin:miter;stroke-width:0.8;"/>
   </g>
   <g id="patch_5">
    <path d="M 57.6 307.584 
L 414.72 307.584 
" style="fill:none;stroke:#000000;stroke-linecap:square;stroke-linejoin:miter;stroke-width:0.8;"/>
   </g>
   <g id="patch_6">
    <path d="M 57.6 41.472 
L 414.72 41.472 
" style="fill:none;stroke:#000000;stroke-linecap:square;stroke-linejoin:miter;stroke-width:0.8;"/>
   </g>
   <g id="text_14">
    <!-- Episode durations -->
    <defs>
     <path d="M 9.8125 72.90625 
L 55.90625 72.90625 
L 55.90625 64.59375 
L 19.671875 64.59375 
L 19.671875 43.015625 
L 54.390625 43.015625 
L 54.390625 34.71875 
L 19.671875 34.71875 
L 19.671875 8.296875 
L 56.78125 8.296875 
L 56.78125 0 
L 9.8125 0 
z
" id="DejaVuSans-45"/>
     <path d="M 18.109375 8.203125 
L 18.109375 -20.796875 
L 9.078125 -20.796875 
L 9.078125 54.6875 
L 18.109375 54.6875 
L 18.109375 46.390625 
Q 20.953125 51.265625 25.265625 53.625 
Q 29.59375 56 35.59375 56 
Q 45.5625 56 51.78125 48.09375 
Q 58.015625 40.1875 58.015625 27.296875 
Q 58.015625 14.40625 51.78125 6.484375 
Q 45.5625 -1.421875 35.59375 -1.421875 
Q 29.59375 -1.421875 25.265625 0.953125 
Q 20.953125 3.328125 18.109375 8.203125 
z
M 48.6875 27.296875 
Q 48.6875 37.203125 44.609375 42.84375 
Q 40.53125 48.484375 33.40625 48.484375 
Q 26.265625 48.484375 22.1875 42.84375 
Q 18.109375 37.203125 18.109375 27.296875 
Q 18.109375 17.390625 22.1875 11.75 
Q 26.265625 6.109375 33.40625 6.109375 
Q 40.53125 6.109375 44.609375 11.75 
Q 48.6875 17.390625 48.6875 27.296875 
z
" id="DejaVuSans-70"/>
     <path d="M 9.421875 54.6875 
L 18.40625 54.6875 
L 18.40625 0 
L 9.421875 0 
z
M 9.421875 75.984375 
L 18.40625 75.984375 
L 18.40625 64.59375 
L 9.421875 64.59375 
z
" id="DejaVuSans-69"/>
     <path d="M 44.28125 53.078125 
L 44.28125 44.578125 
Q 40.484375 46.53125 36.375 47.5 
Q 32.28125 48.484375 27.875 48.484375 
Q 21.1875 48.484375 17.84375 46.4375 
Q 14.5 44.390625 14.5 40.28125 
Q 14.5 37.15625 16.890625 35.375 
Q 19.28125 33.59375 26.515625 31.984375 
L 29.59375 31.296875 
Q 39.15625 29.25 43.1875 25.515625 
Q 47.21875 21.78125 47.21875 15.09375 
Q 47.21875 7.46875 41.1875 3.015625 
Q 35.15625 -1.421875 24.609375 -1.421875 
Q 20.21875 -1.421875 15.453125 -0.5625 
Q 10.6875 0.296875 5.421875 2 
L 5.421875 11.28125 
Q 10.40625 8.6875 15.234375 7.390625 
Q 20.0625 6.109375 24.8125 6.109375 
Q 31.15625 6.109375 34.5625 8.28125 
Q 37.984375 10.453125 37.984375 14.40625 
Q 37.984375 18.0625 35.515625 20.015625 
Q 33.0625 21.96875 24.703125 23.78125 
L 21.578125 24.515625 
Q 13.234375 26.265625 9.515625 29.90625 
Q 5.8125 33.546875 5.8125 39.890625 
Q 5.8125 47.609375 11.28125 51.796875 
Q 16.75 56 26.8125 56 
Q 31.78125 56 36.171875 55.265625 
Q 40.578125 54.546875 44.28125 53.078125 
z
" id="DejaVuSans-73"/>
     <path d="M 30.609375 48.390625 
Q 23.390625 48.390625 19.1875 42.75 
Q 14.984375 37.109375 14.984375 27.296875 
Q 14.984375 17.484375 19.15625 11.84375 
Q 23.34375 6.203125 30.609375 6.203125 
Q 37.796875 6.203125 41.984375 11.859375 
Q 46.1875 17.53125 46.1875 27.296875 
Q 46.1875 37.015625 41.984375 42.703125 
Q 37.796875 48.390625 30.609375 48.390625 
z
M 30.609375 56 
Q 42.328125 56 49.015625 48.375 
Q 55.71875 40.765625 55.71875 27.296875 
Q 55.71875 13.875 49.015625 6.21875 
Q 42.328125 -1.421875 30.609375 -1.421875 
Q 18.84375 -1.421875 12.171875 6.21875 
Q 5.515625 13.875 5.515625 27.296875 
Q 5.515625 40.765625 12.171875 48.375 
Q 18.84375 56 30.609375 56 
z
" id="DejaVuSans-6f"/>
     <path d="M 45.40625 46.390625 
L 45.40625 75.984375 
L 54.390625 75.984375 
L 54.390625 0 
L 45.40625 0 
L 45.40625 8.203125 
Q 42.578125 3.328125 38.25 0.953125 
Q 33.9375 -1.421875 27.875 -1.421875 
Q 17.96875 -1.421875 11.734375 6.484375 
Q 5.515625 14.40625 5.515625 27.296875 
Q 5.515625 40.1875 11.734375 48.09375 
Q 17.96875 56 27.875 56 
Q 33.9375 56 38.25 53.625 
Q 42.578125 51.265625 45.40625 46.390625 
z
M 14.796875 27.296875 
Q 14.796875 17.390625 18.875 11.75 
Q 22.953125 6.109375 30.078125 6.109375 
Q 37.203125 6.109375 41.296875 11.75 
Q 45.40625 17.390625 45.40625 27.296875 
Q 45.40625 37.203125 41.296875 42.84375 
Q 37.203125 48.484375 30.078125 48.484375 
Q 22.953125 48.484375 18.875 42.84375 
Q 14.796875 37.203125 14.796875 27.296875 
z
" id="DejaVuSans-64"/>
     <path d="M 56.203125 29.59375 
L 56.203125 25.203125 
L 14.890625 25.203125 
Q 15.484375 15.921875 20.484375 11.0625 
Q 25.484375 6.203125 34.421875 6.203125 
Q 39.59375 6.203125 44.453125 7.46875 
Q 49.3125 8.734375 54.109375 11.28125 
L 54.109375 2.78125 
Q 49.265625 0.734375 44.1875 -0.34375 
Q 39.109375 -1.421875 33.890625 -1.421875 
Q 20.796875 -1.421875 13.15625 6.1875 
Q 5.515625 13.8125 5.515625 26.8125 
Q 5.515625 40.234375 12.765625 48.109375 
Q 20.015625 56 32.328125 56 
Q 43.359375 56 49.78125 48.890625 
Q 56.203125 41.796875 56.203125 29.59375 
z
M 47.21875 32.234375 
Q 47.125 39.59375 43.09375 43.984375 
Q 39.0625 48.390625 32.421875 48.390625 
Q 24.90625 48.390625 20.390625 44.140625 
Q 15.875 39.890625 15.1875 32.171875 
z
" id="DejaVuSans-65"/>
     <path id="DejaVuSans-20"/>
     <path d="M 8.5 21.578125 
L 8.5 54.6875 
L 17.484375 54.6875 
L 17.484375 21.921875 
Q 17.484375 14.15625 20.5 10.265625 
Q 23.53125 6.390625 29.59375 6.390625 
Q 36.859375 6.390625 41.078125 11.03125 
Q 45.3125 15.671875 45.3125 23.6875 
L 45.3125 54.6875 
L 54.296875 54.6875 
L 54.296875 0 
L 45.3125 0 
L 45.3125 8.40625 
Q 42.046875 3.421875 37.71875 1 
Q 33.40625 -1.421875 27.6875 -1.421875 
Q 18.265625 -1.421875 13.375 4.4375 
Q 8.5 10.296875 8.5 21.578125 
z
M 31.109375 56 
z
" id="DejaVuSans-75"/>
     <path d="M 41.109375 46.296875 
Q 39.59375 47.171875 37.8125 47.578125 
Q 36.03125 48 33.890625 48 
Q 26.265625 48 22.1875 43.046875 
Q 18.109375 38.09375 18.109375 28.8125 
L 18.109375 0 
L 9.078125 0 
L 9.078125 54.6875 
L 18.109375 54.6875 
L 18.109375 46.1875 
Q 20.953125 51.171875 25.484375 53.578125 
Q 30.03125 56 36.53125 56 
Q 37.453125 56 38.578125 55.875 
Q 39.703125 55.765625 41.0625 55.515625 
z
" id="DejaVuSans-72"/>
     <path d="M 34.28125 27.484375 
Q 23.390625 27.484375 19.1875 25 
Q 14.984375 22.515625 14.984375 16.5 
Q 14.984375 11.71875 18.140625 8.90625 
Q 21.296875 6.109375 26.703125 6.109375 
Q 34.1875 6.109375 38.703125 11.40625 
Q 43.21875 16.703125 43.21875 25.484375 
L 43.21875 27.484375 
z
M 52.203125 31.203125 
L 52.203125 0 
L 43.21875 0 
L 43.21875 8.296875 
Q 40.140625 3.328125 35.546875 0.953125 
Q 30.953125 -1.421875 24.3125 -1.421875 
Q 15.921875 -1.421875 10.953125 3.296875 
Q 6 8.015625 6 15.921875 
Q 6 25.140625 12.171875 29.828125 
Q 18.359375 34.515625 30.609375 34.515625 
L 43.21875 34.515625 
L 43.21875 35.40625 
Q 43.21875 41.609375 39.140625 45 
Q 35.0625 48.390625 27.6875 48.390625 
Q 23 48.390625 18.546875 47.265625 
Q 14.109375 46.140625 10.015625 43.890625 
L 10.015625 52.203125 
Q 14.9375 54.109375 19.578125 55.046875 
Q 24.21875 56 28.609375 56 
Q 40.484375 56 46.34375 49.84375 
Q 52.203125 43.703125 52.203125 31.203125 
z
" id="DejaVuSans-61"/>
     <path d="M 18.3125 70.21875 
L 18.3125 54.6875 
L 36.8125 54.6875 
L 36.8125 47.703125 
L 18.3125 47.703125 
L 18.3125 18.015625 
Q 18.3125 11.328125 20.140625 9.421875 
Q 21.96875 7.515625 27.59375 7.515625 
L 36.8125 7.515625 
L 36.8125 0 
L 27.59375 0 
Q 17.1875 0 13.234375 3.875 
Q 9.28125 7.765625 9.28125 18.015625 
L 9.28125 47.703125 
L 2.6875 47.703125 
L 2.6875 54.6875 
L 9.28125 54.6875 
L 9.28125 70.21875 
z
" id="DejaVuSans-74"/>
     <path d="M 54.890625 33.015625 
L 54.890625 0 
L 45.90625 0 
L 45.90625 32.71875 
Q 45.90625 40.484375 42.875 44.328125 
Q 39.84375 48.1875 33.796875 48.1875 
Q 26.515625 48.1875 22.3125 43.546875 
Q 18.109375 38.921875 18.109375 30.90625 
L 18.109375 0 
L 9.078125 0 
L 9.078125 54.6875 
L 18.109375 54.6875 
L 18.109375 46.1875 
Q 21.34375 51.125 25.703125 53.5625 
Q 30.078125 56 35.796875 56 
Q 45.21875 56 50.046875 50.171875 
Q 54.890625 44.34375 54.890625 33.015625 
z
" id="DejaVuSans-6e"/>
    </defs>
    <g transform="translate(182.314687 35.472)scale(0.12 -0.12)">
     <use xlink:href="#DejaVuSans-45"/>
     <use x="63.183594" xlink:href="#DejaVuSans-70"/>
     <use x="126.660156" xlink:href="#DejaVuSans-69"/>
     <use x="154.443359" xlink:href="#DejaVuSans-73"/>
     <use x="206.542969" xlink:href="#DejaVuSans-6f"/>
     <use x="267.724609" xlink:href="#DejaVuSans-64"/>
     <use x="331.201172" xlink:href="#DejaVuSans-65"/>
     <use x="392.724609" xlink:href="#DejaVuSans-20"/>
     <use x="424.511719" xlink:href="#DejaVuSans-64"/>
     <use x="487.988281" xlink:href="#DejaVuSans-75"/>
     <use x="551.367188" xlink:href="#DejaVuSans-72"/>
     <use x="592.480469" xlink:href="#DejaVuSans-61"/>
     <use x="653.759766" xlink:href="#DejaVuSans-74"/>
     <use x="692.96875" xlink:href="#DejaVuSans-69"/>
     <use x="720.751953" xlink:href="#DejaVuSans-6f"/>
     <use x="781.933594" xlink:href="#DejaVuSans-6e"/>
     <use x="845.3125" xlink:href="#DejaVuSans-73"/>
    </g>
   </g>
   <g id="legend_1">
    <g id="patch_7">
     <path d="M 286.071563 302.584 
L 407.72 302.584 
Q 409.72 302.584 409.72 300.584 
L 409.72 242.8715 
Q 409.72 240.8715 407.72 240.8715 
L 286.071563 240.8715 
Q 284.071563 240.8715 284.071563 242.8715 
L 284.071563 300.584 
Q 284.071563 302.584 286.071563 302.584 
z
" style="fill:#ffffff;opacity:0.8;stroke:#cccccc;stroke-linejoin:miter;"/>
    </g>
    <g id="line2d_17">
     <path d="M 288.071563 248.969937 
L 308.071563 248.969937 
" style="fill:none;stroke:#1f77b4;stroke-linecap:square;stroke-opacity:0.5;stroke-width:1.5;"/>
    </g>
    <g id="line2d_18"/>
    <g id="text_15">
     <!-- optimal demo -->
     <defs>
      <path d="M 52 44.1875 
Q 55.375 50.25 60.0625 53.125 
Q 64.75 56 71.09375 56 
Q 79.640625 56 84.28125 50.015625 
Q 88.921875 44.046875 88.921875 33.015625 
L 88.921875 0 
L 79.890625 0 
L 79.890625 32.71875 
Q 79.890625 40.578125 77.09375 44.375 
Q 74.3125 48.1875 68.609375 48.1875 
Q 61.625 48.1875 57.5625 43.546875 
Q 53.515625 38.921875 53.515625 30.90625 
L 53.515625 0 
L 44.484375 0 
L 44.484375 32.71875 
Q 44.484375 40.625 41.703125 44.40625 
Q 38.921875 48.1875 33.109375 48.1875 
Q 26.21875 48.1875 22.15625 43.53125 
Q 18.109375 38.875 18.109375 30.90625 
L 18.109375 0 
L 9.078125 0 
L 9.078125 54.6875 
L 18.109375 54.6875 
L 18.109375 46.1875 
Q 21.1875 51.21875 25.484375 53.609375 
Q 29.78125 56 35.6875 56 
Q 41.65625 56 45.828125 52.96875 
Q 50 49.953125 52 44.1875 
z
" id="DejaVuSans-6d"/>
      <path d="M 9.421875 75.984375 
L 18.40625 75.984375 
L 18.40625 0 
L 9.421875 0 
z
" id="DejaVuSans-6c"/>
     </defs>
     <g transform="translate(316.071563 252.469937)scale(0.1 -0.1)">
      <use xlink:href="#DejaVuSans-6f"/>
      <use x="61.181641" xlink:href="#DejaVuSans-70"/>
      <use x="124.658203" xlink:href="#DejaVuSans-74"/>
      <use x="163.867188" xlink:href="#DejaVuSans-69"/>
      <use x="191.650391" xlink:href="#DejaVuSans-6d"/>
      <use x="289.0625" xlink:href="#DejaVuSans-61"/>
      <use x="350.341797" xlink:href="#DejaVuSans-6c"/>
      <use x="378.125" xlink:href="#DejaVuSans-20"/>
      <use x="409.912109" xlink:href="#DejaVuSans-64"/>
      <use x="473.388672" xlink:href="#DejaVuSans-65"/>
      <use x="534.912109" xlink:href="#DejaVuSans-6d"/>
      <use x="632.324219" xlink:href="#DejaVuSans-6f"/>
     </g>
    </g>
    <g id="line2d_19">
     <path d="M 288.071563 263.648062 
L 308.071563 263.648062 
" style="fill:none;stroke:#ff7f0e;stroke-linecap:square;stroke-opacity:0.5;stroke-width:1.5;"/>
    </g>
    <g id="line2d_20"/>
    <g id="text_16">
     <!-- suboptimal demo -->
     <defs>
      <path d="M 48.6875 27.296875 
Q 48.6875 37.203125 44.609375 42.84375 
Q 40.53125 48.484375 33.40625 48.484375 
Q 26.265625 48.484375 22.1875 42.84375 
Q 18.109375 37.203125 18.109375 27.296875 
Q 18.109375 17.390625 22.1875 11.75 
Q 26.265625 6.109375 33.40625 6.109375 
Q 40.53125 6.109375 44.609375 11.75 
Q 48.6875 17.390625 48.6875 27.296875 
z
M 18.109375 46.390625 
Q 20.953125 51.265625 25.265625 53.625 
Q 29.59375 56 35.59375 56 
Q 45.5625 56 51.78125 48.09375 
Q 58.015625 40.1875 58.015625 27.296875 
Q 58.015625 14.40625 51.78125 6.484375 
Q 45.5625 -1.421875 35.59375 -1.421875 
Q 29.59375 -1.421875 25.265625 0.953125 
Q 20.953125 3.328125 18.109375 8.203125 
L 18.109375 0 
L 9.078125 0 
L 9.078125 75.984375 
L 18.109375 75.984375 
z
" id="DejaVuSans-62"/>
     </defs>
     <g transform="translate(316.071563 267.148062)scale(0.1 -0.1)">
      <use xlink:href="#DejaVuSans-73"/>
      <use x="52.099609" xlink:href="#DejaVuSans-75"/>
      <use x="115.478516" xlink:href="#DejaVuSans-62"/>
      <use x="178.955078" xlink:href="#DejaVuSans-6f"/>
      <use x="240.136719" xlink:href="#DejaVuSans-70"/>
      <use x="303.613281" xlink:href="#DejaVuSans-74"/>
      <use x="342.822266" xlink:href="#DejaVuSans-69"/>
      <use x="370.605469" xlink:href="#DejaVuSans-6d"/>
      <use x="468.017578" xlink:href="#DejaVuSans-61"/>
      <use x="529.296875" xlink:href="#DejaVuSans-6c"/>
      <use x="557.080078" xlink:href="#DejaVuSans-20"/>
      <use x="588.867188" xlink:href="#DejaVuSans-64"/>
      <use x="652.34375" xlink:href="#DejaVuSans-65"/>
      <use x="713.867188" xlink:href="#DejaVuSans-6d"/>
      <use x="811.279297" xlink:href="#DejaVuSans-6f"/>
     </g>
    </g>
    <g id="line2d_21">
     <path d="M 288.071563 278.326187 
L 308.071563 278.326187 
" style="fill:none;stroke:#2ca02c;stroke-linecap:square;stroke-opacity:0.5;stroke-width:1.5;"/>
    </g>
    <g id="line2d_22"/>
    <g id="text_17">
     <!-- bad demo -->
     <g transform="translate(316.071563 281.826187)scale(0.1 -0.1)">
      <use xlink:href="#DejaVuSans-62"/>
      <use x="63.476562" xlink:href="#DejaVuSans-61"/>
      <use x="124.755859" xlink:href="#DejaVuSans-64"/>
      <use x="188.232422" xlink:href="#DejaVuSans-20"/>
      <use x="220.019531" xlink:href="#DejaVuSans-64"/>
      <use x="283.496094" xlink:href="#DejaVuSans-65"/>
      <use x="345.019531" xlink:href="#DejaVuSans-6d"/>
      <use x="442.431641" xlink:href="#DejaVuSans-6f"/>
     </g>
    </g>
    <g id="line2d_23">
     <path d="M 288.071563 293.004312 
L 308.071563 293.004312 
" style="fill:none;stroke:#000000;stroke-dasharray:0.74,0.32;stroke-dashoffset:0;stroke-width:0.2;"/>
    </g>
    <g id="text_18">
     <!-- optimal trajectory -->
     <defs>
      <path d="M 9.421875 54.6875 
L 18.40625 54.6875 
L 18.40625 -0.984375 
Q 18.40625 -11.421875 14.421875 -16.109375 
Q 10.453125 -20.796875 1.609375 -20.796875 
L -1.8125 -20.796875 
L -1.8125 -13.1875 
L 0.59375 -13.1875 
Q 5.71875 -13.1875 7.5625 -10.8125 
Q 9.421875 -8.453125 9.421875 -0.984375 
z
M 9.421875 75.984375 
L 18.40625 75.984375 
L 18.40625 64.59375 
L 9.421875 64.59375 
z
" id="DejaVuSans-6a"/>
      <path d="M 48.78125 52.59375 
L 48.78125 44.1875 
Q 44.96875 46.296875 41.140625 47.34375 
Q 37.3125 48.390625 33.40625 48.390625 
Q 24.65625 48.390625 19.8125 42.84375 
Q 14.984375 37.3125 14.984375 27.296875 
Q 14.984375 17.28125 19.8125 11.734375 
Q 24.65625 6.203125 33.40625 6.203125 
Q 37.3125 6.203125 41.140625 7.25 
Q 44.96875 8.296875 48.78125 10.40625 
L 48.78125 2.09375 
Q 45.015625 0.34375 40.984375 -0.53125 
Q 36.96875 -1.421875 32.421875 -1.421875 
Q 20.0625 -1.421875 12.78125 6.34375 
Q 5.515625 14.109375 5.515625 27.296875 
Q 5.515625 40.671875 12.859375 48.328125 
Q 20.21875 56 33.015625 56 
Q 37.15625 56 41.109375 55.140625 
Q 45.0625 54.296875 48.78125 52.59375 
z
" id="DejaVuSans-63"/>
      <path d="M 32.171875 -5.078125 
Q 28.375 -14.84375 24.75 -17.8125 
Q 21.140625 -20.796875 15.09375 -20.796875 
L 7.90625 -20.796875 
L 7.90625 -13.28125 
L 13.1875 -13.28125 
Q 16.890625 -13.28125 18.9375 -11.515625 
Q 21 -9.765625 23.484375 -3.21875 
L 25.09375 0.875 
L 2.984375 54.6875 
L 12.5 54.6875 
L 29.59375 11.921875 
L 46.6875 54.6875 
L 56.203125 54.6875 
z
" id="DejaVuSans-79"/>
     </defs>
     <g transform="translate(316.071563 296.504312)scale(0.1 -0.1)">
      <use xlink:href="#DejaVuSans-6f"/>
      <use x="61.181641" xlink:href="#DejaVuSans-70"/>
      <use x="124.658203" xlink:href="#DejaVuSans-74"/>
      <use x="163.867188" xlink:href="#DejaVuSans-69"/>
      <use x="191.650391" xlink:href="#DejaVuSans-6d"/>
      <use x="289.0625" xlink:href="#DejaVuSans-61"/>
      <use x="350.341797" xlink:href="#DejaVuSans-6c"/>
      <use x="378.125" xlink:href="#DejaVuSans-20"/>
      <use x="409.912109" xlink:href="#DejaVuSans-74"/>
      <use x="449.121094" xlink:href="#DejaVuSans-72"/>
      <use x="490.234375" xlink:href="#DejaVuSans-61"/>
      <use x="551.513672" xlink:href="#DejaVuSans-6a"/>
      <use x="579.296875" xlink:href="#DejaVuSans-65"/>
      <use x="640.820312" xlink:href="#DejaVuSans-63"/>
      <use x="695.800781" xlink:href="#DejaVuSans-74"/>
      <use x="735.009766" xlink:href="#DejaVuSans-6f"/>
      <use x="796.191406" xlink:href="#DejaVuSans-72"/>
      <use x="837.304688" xlink:href="#DejaVuSans-79"/>
     </g>
    </g>
   </g>
  </g>
 </g>
 <defs>
  <clipPath id="p88b9195b97">
   <rect height="266.112" width="357.12" x="57.6" y="41.472"/>
  </clipPath>
 </defs>
</svg>
